<svg width="33" height="32" viewBox="0 0 33 32" fill="none" xmlns="http://www.w3.org/2000/svg">
<path d="M28.4996 3H4.49959C4.23438 3 3.98002 3.10536 3.79249 3.29289C3.60495 3.48043 3.49959 3.73478 3.49959 4C3.49959 4.26522 3.60495 4.51957 3.79249 4.70711C3.98002 4.89464 4.23438 5 4.49959 5H26.0851L3.79259 27.293C3.69708 27.3852 3.6209 27.4956 3.56849 27.6176C3.51608 27.7396 3.4885 27.8708 3.48734 28.0036C3.48619 28.1364 3.51149 28.2681 3.56177 28.391C3.61205 28.5138 3.68631 28.6255 3.7802 28.7194C3.87409 28.8133 3.98574 28.8875 4.10864 28.9378C4.23154 28.9881 4.36321 29.0134 4.49599 29.0123C4.62877 29.0111 4.75999 28.9835 4.882 28.9311C5.004 28.8787 5.11435 28.8025 5.20659 28.707L27.4996 6.414V28C27.4996 28.2652 27.6049 28.5196 27.7925 28.7071C27.98 28.8946 28.2344 29 28.4996 29C28.7648 29 29.0192 28.8946 29.2067 28.7071C29.3942 28.5196 29.4996 28.2652 29.4996 28V4C29.4996 3.73478 29.3942 3.48043 29.2067 3.29289C29.0192 3.10536 28.7648 3 28.4996 3Z" fill="url(#paint0_radial_2172_2780)"/>
<path d="M28.4996 3H4.49959C4.23438 3 3.98002 3.10536 3.79249 3.29289C3.60495 3.48043 3.49959 3.73478 3.49959 4C3.49959 4.26522 3.60495 4.51957 3.79249 4.70711C3.98002 4.89464 4.23438 5 4.49959 5H26.0851L3.79259 27.293C3.69708 27.3852 3.6209 27.4956 3.56849 27.6176C3.51608 27.7396 3.4885 27.8708 3.48734 28.0036C3.48619 28.1364 3.51149 28.2681 3.56177 28.391C3.61205 28.5138 3.68631 28.6255 3.7802 28.7194C3.87409 28.8133 3.98574 28.8875 4.10864 28.9378C4.23154 28.9881 4.36321 29.0134 4.49599 29.0123C4.62877 29.0111 4.75999 28.9835 4.882 28.9311C5.004 28.8787 5.11435 28.8025 5.20659 28.707L27.4996 6.414V28C27.4996 28.2652 27.6049 28.5196 27.7925 28.7071C27.98 28.8946 28.2344 29 28.4996 29C28.7648 29 29.0192 28.8946 29.2067 28.7071C29.3942 28.5196 29.4996 28.2652 29.4996 28V4C29.4996 3.73478 29.3942 3.48043 29.2067 3.29289C29.0192 3.10536 28.7648 3 28.4996 3Z" fill="url(#paint1_radial_2172_2780)"/>
<path d="M28.4996 3H4.49959C4.23438 3 3.98002 3.10536 3.79249 3.29289C3.60495 3.48043 3.49959 3.73478 3.49959 4C3.49959 4.26522 3.60495 4.51957 3.79249 4.70711C3.98002 4.89464 4.23438 5 4.49959 5H26.0851L3.79259 27.293C3.69708 27.3852 3.6209 27.4956 3.56849 27.6176C3.51608 27.7396 3.4885 27.8708 3.48734 28.0036C3.48619 28.1364 3.51149 28.2681 3.56177 28.391C3.61205 28.5138 3.68631 28.6255 3.7802 28.7194C3.87409 28.8133 3.98574 28.8875 4.10864 28.9378C4.23154 28.9881 4.36321 29.0134 4.49599 29.0123C4.62877 29.0111 4.75999 28.9835 4.882 28.9311C5.004 28.8787 5.11435 28.8025 5.20659 28.707L27.4996 6.414V28C27.4996 28.2652 27.6049 28.5196 27.7925 28.7071C27.98 28.8946 28.2344 29 28.4996 29C28.7648 29 29.0192 28.8946 29.2067 28.7071C29.3942 28.5196 29.4996 28.2652 29.4996 28V4C29.4996 3.73478 29.3942 3.48043 29.2067 3.29289C29.0192 3.10536 28.7648 3 28.4996 3Z" fill="url(#paint2_radial_2172_2780)"/>
<path d="M28.4996 3H4.49959C4.23438 3 3.98002 3.10536 3.79249 3.29289C3.60495 3.48043 3.49959 3.73478 3.49959 4C3.49959 4.26522 3.60495 4.51957 3.79249 4.70711C3.98002 4.89464 4.23438 5 4.49959 5H26.0851L3.79259 27.293C3.69708 27.3852 3.6209 27.4956 3.56849 27.6176C3.51608 27.7396 3.4885 27.8708 3.48734 28.0036C3.48619 28.1364 3.51149 28.2681 3.56177 28.391C3.61205 28.5138 3.68631 28.6255 3.7802 28.7194C3.87409 28.8133 3.98574 28.8875 4.10864 28.9378C4.23154 28.9881 4.36321 29.0134 4.49599 29.0123C4.62877 29.0111 4.75999 28.9835 4.882 28.9311C5.004 28.8787 5.11435 28.8025 5.20659 28.707L27.4996 6.414V28C27.4996 28.2652 27.6049 28.5196 27.7925 28.7071C27.98 28.8946 28.2344 29 28.4996 29C28.7648 29 29.0192 28.8946 29.2067 28.7071C29.3942 28.5196 29.4996 28.2652 29.4996 28V4C29.4996 3.73478 29.3942 3.48043 29.2067 3.29289C29.0192 3.10536 28.7648 3 28.4996 3Z" fill="url(#paint3_radial_2172_2780)"/>
<defs>
<radialGradient id="paint0_radial_2172_2780" cx="0" cy="0" r="1" gradientUnits="userSpaceOnUse" gradientTransform="translate(3.4873 29.0123) rotate(-36.6443) scale(37.6047)">
<stop stop-color="#66D2FD"/>
<stop offset="0.25" stop-color="#91DDFF"/>
<stop offset="0.5" stop-color="#ED50B9"/>
<stop offset="0.75" stop-color="#F8086E"/>
<stop offset="0.940085" stop-color="#FF5546"/>
</radialGradient>
<radialGradient id="paint1_radial_2172_2780" cx="0" cy="0" r="1" gradientUnits="userSpaceOnUse" gradientTransform="translate(5.2418 12.0776) rotate(43.4792) scale(30.4867 17.0523)">
<stop offset="0.0149216" stop-color="#6843E7"/>
<stop offset="0.860954" stop-color="#6843E7" stop-opacity="0"/>
</radialGradient>
<radialGradient id="paint2_radial_2172_2780" cx="0" cy="0" r="1" gradientUnits="userSpaceOnUse" gradientTransform="translate(29.4996 27.9443) rotate(-102.324) scale(19.657)">
<stop stop-color="#FADAC7"/>
<stop offset="0.924249" stop-color="#FADAC7" stop-opacity="0"/>
</radialGradient>
<radialGradient id="paint3_radial_2172_2780" cx="0" cy="0" r="1" gradientUnits="userSpaceOnUse" gradientTransform="translate(10.3909 29.0123) scale(14.9132 13.023)">
<stop stop-color="#65CDFC"/>
<stop offset="1" stop-color="#65CDFC" stop-opacity="0"/>
</radialGradient>
</defs>
</svg>
