<svg width="32" height="32" viewBox="0 0 32 32" fill="none" xmlns="http://www.w3.org/2000/svg">
<path d="M27.9996 3H3.99959C3.73438 3 3.48002 3.10536 3.29249 3.29289C3.10495 3.48043 2.99959 3.73478 2.99959 4C2.99959 4.26522 3.10495 4.51957 3.29249 4.70711C3.48002 4.89464 3.73438 5 3.99959 5H25.5851L3.29259 27.293C3.19708 27.3852 3.1209 27.4956 3.06849 27.6176C3.01608 27.7396 2.9885 27.8708 2.98734 28.0036C2.98619 28.1364 3.01149 28.2681 3.06177 28.391C3.11205 28.5138 3.18631 28.6255 3.2802 28.7194C3.37409 28.8133 3.48574 28.8875 3.60864 28.9378C3.73154 28.9881 3.86321 29.0134 3.99599 29.0123C4.12877 29.0111 4.25999 28.9835 4.382 28.9311C4.504 28.8787 4.61435 28.8025 4.70659 28.707L26.9996 6.414V28C26.9996 28.2652 27.1049 28.5196 27.2925 28.7071C27.48 28.8946 27.7344 29 27.9996 29C28.2648 29 28.5192 28.8946 28.7067 28.7071C28.8942 28.5196 28.9996 28.2652 28.9996 28V4C28.9996 3.73478 28.8942 3.48043 28.7067 3.29289C28.5192 3.10536 28.2648 3 27.9996 3Z" fill="white"/>
</svg>
