<svg width="24" height="24" viewBox="0 0 24 24" fill="none" xmlns="http://www.w3.org/2000/svg">
<path fill-rule="evenodd" clip-rule="evenodd" d="M4 8.5C3.73478 8.5 3.48043 8.60536 3.29289 8.79289C3.10536 8.98043 3 9.23478 3 9.5C3 9.76522 3.10536 10.0196 3.29289 10.2071C3.48043 10.3946 3.73478 10.5 4 10.5H20C20.2652 10.5 20.5196 10.3946 20.7071 10.2071C20.8946 10.0196 21 9.76522 21 9.5C21 9.23478 20.8946 8.98043 20.7071 8.79289C20.5196 8.60536 20.2652 8.5 20 8.5H4ZM4 13.5C3.73478 13.5 3.48043 13.6054 3.29289 13.7929C3.10536 13.9804 3 14.2348 3 14.5C3 14.7652 3.10536 15.0196 3.29289 15.2071C3.48043 15.3946 3.73478 15.5 4 15.5H20C20.2652 15.5 20.5196 15.3946 20.7071 15.2071C20.8946 15.0196 21 14.7652 21 14.5C21 14.2348 20.8946 13.9804 20.7071 13.7929C20.5196 13.6054 20.2652 13.5 20 13.5H4Z" fill="white"/>
</svg>
