<svg width="55" height="50" viewBox="0 0 55 50" fill="none" xmlns="http://www.w3.org/2000/svg">
<path fill-rule="evenodd" clip-rule="evenodd" d="M54.3274 20.168C54.5693 23.5971 53.8436 26.9717 52.3922 30.1286C51.6664 32.5779 50.5779 34.9728 49.0659 37.1499C47.9169 38.7284 46.6469 40.198 45.1954 41.4498C43.2602 43.9536 40.7806 46.1308 37.6963 47.4915C34.491 48.9066 30.8624 49.4509 27.2943 49.3965C23.2423 49.2877 19.3113 48.3624 15.6827 46.7295C15.4633 46.6637 15.2439 46.6028 15.0262 46.5425C14.5237 46.4031 14.0302 46.2662 13.566 46.0763C10.6631 45.0422 8.06261 43.4637 6.00639 41.341C3.8897 39.1638 2.49874 36.4968 1.83349 33.7209C1.83349 33.612 1.83349 33.5032 1.77301 33.3943C1.22872 32.1425 0.805383 30.8362 0.502999 29.5299C-0.706539 24.1958 0.321568 18.5352 2.98255 13.6365C5.64353 8.7379 9.99787 4.54686 15.4408 2.15197C15.8036 1.98868 16.1665 2.36969 15.9851 2.64184C19.0694 1.28111 22.4561 0.410238 25.9638 0.246951C32.4953 -0.134054 38.9058 1.8254 43.8649 5.68987C43.9859 5.7443 44.1068 5.85316 44.2278 5.96202C46.3445 7.37717 48.2193 9.01005 49.9126 10.8062C51.1221 12.1125 52.2107 13.5277 52.9969 15.0517C53.7831 16.6846 54.2065 18.3719 54.3274 20.168ZM2.37778 32.088C3.8897 35.9525 6.55069 39.3815 9.93739 42.103C12.1146 43.8447 14.6546 45.2599 17.376 46.294C18.1018 46.4573 18.8275 46.5662 19.5532 46.6751C17.7389 46.1852 16.0456 45.4776 14.4127 44.5523C11.3284 42.8106 8.78833 40.4701 6.91355 37.6942C5.94592 36.4424 5.09924 35.1361 4.434 33.7209C3.40589 31.9792 2.61969 30.0741 2.13587 28.1147C2.0754 29.4754 2.19635 30.7817 2.37778 32.088ZM48.945 13.31C49.3683 13.8542 49.7917 14.3985 50.1545 14.9973C48.7031 12.0581 46.6469 9.39106 44.1068 7.10503C43.8347 6.94174 43.5625 6.76484 43.2904 6.58795C43.0182 6.41106 42.7461 6.23416 42.4739 6.07087C41.2644 5.3633 40.0549 4.71014 38.7244 4.11142C39.6224 4.62188 40.4465 5.19882 41.2546 5.79029C43.5996 7.0905 45.7022 8.73127 47.412 10.6781C47.601 10.8895 47.4299 11.1713 47.1952 11.215C47.8057 11.8983 48.3894 12.5978 48.945 13.31ZM33.2641 2.86581C32.0293 2.43046 30.7578 2.09521 29.4714 1.87983C27.899 1.8254 26.3266 1.87983 24.8147 2.2064C24.3566 2.28887 23.9071 2.39476 23.4696 2.52112C26.7086 2.0755 30.0584 2.20987 33.2641 2.86581ZM17.8958 3.93078C19.0399 3.27177 20.2375 2.66375 21.4885 2.15197C17.7389 3.02284 14.1708 4.76457 11.2679 7.10503C13.0171 5.83543 15.0822 4.89751 17.2176 4.20285C17.3447 4.14953 17.4721 4.09724 17.5998 4.046C17.6982 4.00693 17.7969 3.96852 17.8958 3.93078ZM29.3505 46.5662C30.2576 46.4029 31.1043 46.2396 31.951 46.0763C32.3994 45.9877 32.8439 45.8902 33.284 45.7838C31.8818 45.8973 30.4706 45.8883 29.065 45.7682C23.4896 46.1179 17.8138 44.8787 13.0822 42.2119L13.082 42.2118C12.5378 41.8852 11.9936 41.5587 11.5098 41.2321C15.6222 44.389 20.9442 46.3485 26.3266 46.6206C27.3261 46.6735 28.2685 46.6236 29.2648 46.5707L29.3505 46.5662ZM35.9347 44.4699C38.4097 43.6606 40.7564 42.5037 42.8973 41.0688L42.8368 41.1233C42.0984 41.7546 41.3374 42.3251 40.5401 42.8472C40.5259 42.8552 40.5117 42.8633 40.4975 42.8713C39.1432 43.6641 37.5596 44.137 35.9347 44.4699ZM49.2697 31.0963C48.9501 32.3281 48.4918 33.528 47.9104 34.6822C46.1742 37.0607 43.9981 39.1411 41.4589 40.8156C41.978 40.4111 42.432 39.969 42.886 39.5268C45.0185 37.4437 46.9205 35.103 48.443 32.5841L48.4431 32.584C48.7244 32.0914 49.0057 31.5989 49.2697 31.0963ZM49.7955 26.5504C49.6394 27.12 49.4547 27.6836 49.2436 28.238C49.5252 26.6182 49.5692 24.9439 49.4108 23.3597C49.3911 23.0852 49.3667 22.8111 49.3374 22.5375C49.6025 23.8196 49.7696 25.1163 49.7917 26.4274C49.7931 26.4684 49.7943 26.5094 49.7955 26.5504ZM48.792 17.4671C49.4439 19.3572 50.0095 21.2607 50.361 23.2022C50.3898 22.7361 50.3971 22.2705 50.3815 21.8069C50.1323 20.5434 49.776 19.3008 49.1635 18.1588C49.0491 17.9228 48.9248 17.692 48.792 17.4671ZM4.84003 31.1828C5.38907 32.7484 6.16539 34.2591 7.16949 35.615C8.00778 36.7633 9.03698 37.7732 10.2035 38.6553C8.73658 37.2263 7.50244 35.6003 6.5663 33.8151C5.41825 31.617 4.68695 29.2869 4.38406 26.8729C4.27805 26.5277 4.18942 26.1791 4.11116 25.8284C4.08702 27.2474 4.23785 28.6758 4.55495 30.0741C4.64001 30.4442 4.73504 30.8142 4.84003 31.1828ZM45.1652 11.0784C45.1553 11.0636 45.1455 11.0488 45.1355 11.0339C44.106 10.0235 42.9631 9.10557 41.7353 8.30643C43.4351 9.53845 44.8299 11.133 45.9686 12.8282C46.0549 12.905 46.1409 12.9824 46.2264 13.0603C45.9633 12.4562 45.6669 11.864 45.3164 11.2961C45.2559 11.2144 45.2105 11.1464 45.1652 11.0784ZM47.363 13.6077C47.4065 13.7205 47.45 13.8282 47.4935 13.9359C47.554 14.0856 47.6145 14.2353 47.675 14.3985C47.6919 14.4435 47.7088 14.4884 47.7256 14.5334C48.0192 14.8468 48.3035 15.1681 48.5765 15.4976C48.2139 14.8498 47.8079 14.2185 47.363 13.6077ZM13.794 7.04078C13.0568 7.70083 12.3438 8.38265 11.6307 9.06448C10.1188 10.3163 8.72785 11.6771 7.63927 13.2555C7.51832 13.4188 7.57879 13.5821 7.69975 13.691C7.66951 13.7454 7.63927 13.7862 7.60903 13.827C7.57879 13.8679 7.54855 13.9087 7.51832 13.9631C6.66192 15.1433 5.88842 16.3768 5.23976 17.6589C5.71653 16.3815 6.31987 15.1479 7.04648 13.9856C8.74462 11.2833 11.0304 8.89178 13.794 7.04078ZM17.2095 5.51835C17.4875 5.44603 17.7677 5.37788 18.051 5.3148C17.5761 5.50297 17.1088 5.70129 16.6503 5.90759C16.8367 5.77711 17.0231 5.64664 17.2095 5.51835ZM53.2388 22.2363V21.4743C53.2388 19.7326 53.0574 17.9909 52.3922 16.4124C51.8479 15.0517 51.0617 13.8542 50.094 12.7112C51.5455 15.1061 52.5131 17.7731 52.9969 20.4402C53.0574 20.93 53.1179 21.4743 53.1784 22.0186C53.2388 22.0731 53.2388 22.1819 53.2388 22.2363ZM11.9936 4.92786C8.72785 7.10503 6.06687 9.98978 4.19209 13.2555C1.59158 17.7731 0.442522 22.9984 1.16824 28.0603C1.22872 26.9173 1.34968 25.7198 1.53111 24.5768C1.34968 19.7326 2.98255 14.9428 6.00639 10.9695C6.12735 10.8606 6.18783 10.8062 6.2483 10.6974C6.91355 9.71763 7.69975 8.79233 8.54642 7.86704C9.57453 6.77845 10.7236 5.79873 11.9936 4.92786ZM4.31304 37.6942C4.85733 38.6195 5.4621 39.5448 6.2483 40.4157C7.57879 41.8853 9.15119 43.1372 10.9655 44.0625C10.8143 43.9536 10.6782 43.8583 10.5421 43.763C10.406 43.6678 10.27 43.5726 10.1188 43.4637C7.88118 41.8309 5.88544 39.8714 4.31304 37.6942ZM26.0847 48.3079C29.3505 48.5256 32.7976 48.1446 35.882 47.0561C37.4544 46.5118 38.9058 45.7498 40.2363 44.8245C38.1801 45.913 35.9424 46.7295 33.5838 47.2193C30.681 47.8181 27.7176 47.9814 24.7542 47.7092C23.6657 47.7636 22.5772 47.7092 21.4887 47.6548L21.4885 47.6548C23.0004 47.9813 24.5123 48.1991 26.0847 48.3079ZM6.3937 30.3156C6.72903 31.0071 7.05272 31.6504 7.37641 32.2937C8.33584 34.1754 9.53973 35.9082 10.9764 37.4441C11.994 38.4059 13.0953 39.2503 14.3457 40.015L14.4109 40.0527C11.9893 38.1544 9.97978 35.8726 8.57791 33.3204C5.75089 28.1196 5.37781 21.9338 7.54497 16.5127L7.54503 16.5126C7.76149 16.016 7.97796 15.5194 8.20607 15.071C5.89209 18.9561 4.98912 23.5746 5.75785 27.9164C5.89826 28.7231 6.12888 29.4644 6.37271 30.2482L6.3937 30.3156ZM40.3944 10.1841C38.6458 9.214 36.7598 8.37175 34.9087 7.6741C32.0192 6.62447 28.9202 5.86823 25.7816 5.87684C23.0831 5.8498 20.352 6.38434 17.8446 7.37987C16.3615 7.973 14.9133 8.71071 13.6072 9.57204C11.5236 11.3932 9.86602 13.5851 8.76029 15.972C6.3626 21.1354 6.48655 27.2185 9.06443 32.3166C11.2953 36.675 15.2305 40.1952 19.9152 42.4076C23.2215 43.3252 26.7396 43.4947 30.1435 42.7275C33.6661 41.9875 36.8721 40.401 39.9476 38.7391C40.0096 38.7075 40.0717 38.6759 40.1339 38.6442C41.5239 37.9368 42.9519 37.2101 44.1686 36.2473C44.2373 36.1834 44.2955 36.1341 44.3537 36.0849C44.4119 36.0356 44.4701 35.9864 44.5388 35.9225C45.5678 34.6106 46.4012 33.1856 47.0506 31.6957C49.006 27.0227 48.8239 21.8594 46.4929 17.3187C45.098 14.5633 42.9883 12.0991 40.3944 10.1841ZM46.7566 16.1754C46.6351 15.8791 46.5007 15.5513 46.3251 15.2316C46.1193 14.7497 45.8532 14.3116 45.5629 13.8338C45.4884 13.7112 45.4124 13.586 45.3354 13.4568C44.9092 13.086 44.4296 12.7256 43.9499 12.3652C45.0257 13.5679 46.0177 14.888 46.8071 16.2982C46.7905 16.2579 46.7737 16.217 46.7566 16.1754ZM31.5382 43.1612C29.4847 43.7145 27.4148 43.9682 25.3287 43.9223C25.4742 43.9443 25.6063 43.9689 25.7385 43.9935C25.8706 44.0181 26.0027 44.0427 26.1482 44.0647C29.6663 44.2342 33.2239 43.6388 36.4229 42.2556C38.651 41.2642 40.6788 39.9083 42.4109 38.257C42.2619 38.3366 42.1263 38.4136 41.9907 38.4906C41.8551 38.5676 41.7195 38.6447 41.5704 38.7243C38.3459 40.4659 35.1097 42.1593 31.5382 43.1612ZM43.5284 11.0849C42.6715 10.0917 41.7308 9.21587 40.5992 8.47834C38.0518 6.75605 34.9179 5.85523 31.8002 5.25405C29.9771 4.90424 28.0167 4.68226 26.0912 4.60487C25.2227 4.72437 24.3007 4.85436 23.4439 5.02206C22.8474 5.13881 22.2149 5.3061 21.5369 5.48541C21.4845 5.49928 21.4317 5.51322 21.3788 5.52722C22.5569 5.29663 23.693 5.12472 24.8642 5.09739C28.0865 4.97143 31.2694 5.61032 34.266 6.63898C34.3254 6.6526 34.3714 6.66883 34.4173 6.68507C34.4633 6.70131 34.5093 6.71754 34.5687 6.73116C34.6525 6.61381 34.8015 6.53417 34.9854 6.59911C36.748 7.16267 38.3546 8.00912 39.8774 8.97293C40.9741 9.56587 42.0708 10.1588 43.1256 10.8104C43.2676 10.934 43.398 11.0095 43.5284 11.0849ZM33.4486 4.88094C34.4521 5.08832 35.5325 5.3816 36.5057 5.69585C36.055 5.52596 35.5818 5.38738 35.1235 5.25315C34.9545 5.20365 34.7875 5.15474 34.6244 5.10507C34.4195 5.06946 34.228 5.03123 34.0365 4.99301C33.845 4.95478 33.6535 4.91655 33.4486 4.88094Z" fill="url(#paint0_radial_3001_4347)"/>
<path fill-rule="evenodd" clip-rule="evenodd" d="M54.3274 20.168C54.5693 23.5971 53.8436 26.9717 52.3922 30.1286C51.6664 32.5779 50.5779 34.9728 49.0659 37.1499C47.9169 38.7284 46.6469 40.198 45.1954 41.4498C43.2602 43.9536 40.7806 46.1308 37.6963 47.4915C34.491 48.9066 30.8624 49.4509 27.2943 49.3965C23.2423 49.2877 19.3113 48.3624 15.6827 46.7295C15.4633 46.6637 15.2439 46.6028 15.0262 46.5425C14.5237 46.4031 14.0302 46.2662 13.566 46.0763C10.6631 45.0422 8.06261 43.4637 6.00639 41.341C3.8897 39.1638 2.49874 36.4968 1.83349 33.7209C1.83349 33.612 1.83349 33.5032 1.77301 33.3943C1.22872 32.1425 0.805383 30.8362 0.502999 29.5299C-0.706539 24.1958 0.321568 18.5352 2.98255 13.6365C5.64353 8.7379 9.99787 4.54686 15.4408 2.15197C15.8036 1.98868 16.1665 2.36969 15.9851 2.64184C19.0694 1.28111 22.4561 0.410238 25.9638 0.246951C32.4953 -0.134054 38.9058 1.8254 43.8649 5.68987C43.9859 5.7443 44.1068 5.85316 44.2278 5.96202C46.3445 7.37717 48.2193 9.01005 49.9126 10.8062C51.1221 12.1125 52.2107 13.5277 52.9969 15.0517C53.7831 16.6846 54.2065 18.3719 54.3274 20.168ZM2.37778 32.088C3.8897 35.9525 6.55069 39.3815 9.93739 42.103C12.1146 43.8447 14.6546 45.2599 17.376 46.294C18.1018 46.4573 18.8275 46.5662 19.5532 46.6751C17.7389 46.1852 16.0456 45.4776 14.4127 44.5523C11.3284 42.8106 8.78833 40.4701 6.91355 37.6942C5.94592 36.4424 5.09924 35.1361 4.434 33.7209C3.40589 31.9792 2.61969 30.0741 2.13587 28.1147C2.0754 29.4754 2.19635 30.7817 2.37778 32.088ZM48.945 13.31C49.3683 13.8542 49.7917 14.3985 50.1545 14.9973C48.7031 12.0581 46.6469 9.39106 44.1068 7.10503C43.8347 6.94174 43.5625 6.76484 43.2904 6.58795C43.0182 6.41106 42.7461 6.23416 42.4739 6.07087C41.2644 5.3633 40.0549 4.71014 38.7244 4.11142C39.6224 4.62188 40.4465 5.19882 41.2546 5.79029C43.5996 7.0905 45.7022 8.73127 47.412 10.6781C47.601 10.8895 47.4299 11.1713 47.1952 11.215C47.8057 11.8983 48.3894 12.5978 48.945 13.31ZM33.2641 2.86581C32.0293 2.43046 30.7578 2.09521 29.4714 1.87983C27.899 1.8254 26.3266 1.87983 24.8147 2.2064C24.3566 2.28887 23.9071 2.39476 23.4696 2.52112C26.7086 2.0755 30.0584 2.20987 33.2641 2.86581ZM17.8958 3.93078C19.0399 3.27177 20.2375 2.66375 21.4885 2.15197C17.7389 3.02284 14.1708 4.76457 11.2679 7.10503C13.0171 5.83543 15.0822 4.89751 17.2176 4.20285C17.3447 4.14953 17.4721 4.09724 17.5998 4.046C17.6982 4.00693 17.7969 3.96852 17.8958 3.93078ZM29.3505 46.5662C30.2576 46.4029 31.1043 46.2396 31.951 46.0763C32.3994 45.9877 32.8439 45.8902 33.284 45.7838C31.8818 45.8973 30.4706 45.8883 29.065 45.7682C23.4896 46.1179 17.8138 44.8787 13.0822 42.2119L13.082 42.2118C12.5378 41.8852 11.9936 41.5587 11.5098 41.2321C15.6222 44.389 20.9442 46.3485 26.3266 46.6206C27.3261 46.6735 28.2685 46.6236 29.2648 46.5707L29.3505 46.5662ZM35.9347 44.4699C38.4097 43.6606 40.7564 42.5037 42.8973 41.0688L42.8368 41.1233C42.0984 41.7546 41.3374 42.3251 40.5401 42.8472C40.5259 42.8552 40.5117 42.8633 40.4975 42.8713C39.1432 43.6641 37.5596 44.137 35.9347 44.4699ZM49.2697 31.0963C48.9501 32.3281 48.4918 33.528 47.9104 34.6822C46.1742 37.0607 43.9981 39.1411 41.4589 40.8156C41.978 40.4111 42.432 39.969 42.886 39.5268C45.0185 37.4437 46.9205 35.103 48.443 32.5841L48.4431 32.584C48.7244 32.0914 49.0057 31.5989 49.2697 31.0963ZM49.7955 26.5504C49.6394 27.12 49.4547 27.6836 49.2436 28.238C49.5252 26.6182 49.5692 24.9439 49.4108 23.3597C49.3911 23.0852 49.3667 22.8111 49.3374 22.5375C49.6025 23.8196 49.7696 25.1163 49.7917 26.4274C49.7931 26.4684 49.7943 26.5094 49.7955 26.5504ZM48.792 17.4671C49.4439 19.3572 50.0095 21.2607 50.361 23.2022C50.3898 22.7361 50.3971 22.2705 50.3815 21.8069C50.1323 20.5434 49.776 19.3008 49.1635 18.1588C49.0491 17.9228 48.9248 17.692 48.792 17.4671ZM4.84003 31.1828C5.38907 32.7484 6.16539 34.2591 7.16949 35.615C8.00778 36.7633 9.03698 37.7732 10.2035 38.6553C8.73658 37.2263 7.50244 35.6003 6.5663 33.8151C5.41825 31.617 4.68695 29.2869 4.38406 26.8729C4.27805 26.5277 4.18942 26.1791 4.11116 25.8284C4.08702 27.2474 4.23785 28.6758 4.55495 30.0741C4.64001 30.4442 4.73504 30.8142 4.84003 31.1828ZM45.1652 11.0784C45.1553 11.0636 45.1455 11.0488 45.1355 11.0339C44.106 10.0235 42.9631 9.10557 41.7353 8.30643C43.4351 9.53845 44.8299 11.133 45.9686 12.8282C46.0549 12.905 46.1409 12.9824 46.2264 13.0603C45.9633 12.4562 45.6669 11.864 45.3164 11.2961C45.2559 11.2144 45.2105 11.1464 45.1652 11.0784ZM47.363 13.6077C47.4065 13.7205 47.45 13.8282 47.4935 13.9359C47.554 14.0856 47.6145 14.2353 47.675 14.3985C47.6919 14.4435 47.7088 14.4884 47.7256 14.5334C48.0192 14.8468 48.3035 15.1681 48.5765 15.4976C48.2139 14.8498 47.8079 14.2185 47.363 13.6077ZM13.794 7.04078C13.0568 7.70083 12.3438 8.38265 11.6307 9.06448C10.1188 10.3163 8.72785 11.6771 7.63927 13.2555C7.51832 13.4188 7.57879 13.5821 7.69975 13.691C7.66951 13.7454 7.63927 13.7862 7.60903 13.827C7.57879 13.8679 7.54855 13.9087 7.51832 13.9631C6.66192 15.1433 5.88842 16.3768 5.23976 17.6589C5.71653 16.3815 6.31987 15.1479 7.04648 13.9856C8.74462 11.2833 11.0304 8.89178 13.794 7.04078ZM17.2095 5.51835C17.4875 5.44603 17.7677 5.37788 18.051 5.3148C17.5761 5.50297 17.1088 5.70129 16.6503 5.90759C16.8367 5.77711 17.0231 5.64664 17.2095 5.51835ZM53.2388 22.2363V21.4743C53.2388 19.7326 53.0574 17.9909 52.3922 16.4124C51.8479 15.0517 51.0617 13.8542 50.094 12.7112C51.5455 15.1061 52.5131 17.7731 52.9969 20.4402C53.0574 20.93 53.1179 21.4743 53.1784 22.0186C53.2388 22.0731 53.2388 22.1819 53.2388 22.2363ZM11.9936 4.92786C8.72785 7.10503 6.06687 9.98978 4.19209 13.2555C1.59158 17.7731 0.442522 22.9984 1.16824 28.0603C1.22872 26.9173 1.34968 25.7198 1.53111 24.5768C1.34968 19.7326 2.98255 14.9428 6.00639 10.9695C6.12735 10.8606 6.18783 10.8062 6.2483 10.6974C6.91355 9.71763 7.69975 8.79233 8.54642 7.86704C9.57453 6.77845 10.7236 5.79873 11.9936 4.92786ZM4.31304 37.6942C4.85733 38.6195 5.4621 39.5448 6.2483 40.4157C7.57879 41.8853 9.15119 43.1372 10.9655 44.0625C10.8143 43.9536 10.6782 43.8583 10.5421 43.763C10.406 43.6678 10.27 43.5726 10.1188 43.4637C7.88118 41.8309 5.88544 39.8714 4.31304 37.6942ZM26.0847 48.3079C29.3505 48.5256 32.7976 48.1446 35.882 47.0561C37.4544 46.5118 38.9058 45.7498 40.2363 44.8245C38.1801 45.913 35.9424 46.7295 33.5838 47.2193C30.681 47.8181 27.7176 47.9814 24.7542 47.7092C23.6657 47.7636 22.5772 47.7092 21.4887 47.6548L21.4885 47.6548C23.0004 47.9813 24.5123 48.1991 26.0847 48.3079ZM6.3937 30.3156C6.72903 31.0071 7.05272 31.6504 7.37641 32.2937C8.33584 34.1754 9.53973 35.9082 10.9764 37.4441C11.994 38.4059 13.0953 39.2503 14.3457 40.015L14.4109 40.0527C11.9893 38.1544 9.97978 35.8726 8.57791 33.3204C5.75089 28.1196 5.37781 21.9338 7.54497 16.5127L7.54503 16.5126C7.76149 16.016 7.97796 15.5194 8.20607 15.071C5.89209 18.9561 4.98912 23.5746 5.75785 27.9164C5.89826 28.7231 6.12888 29.4644 6.37271 30.2482L6.3937 30.3156ZM40.3944 10.1841C38.6458 9.214 36.7598 8.37175 34.9087 7.6741C32.0192 6.62447 28.9202 5.86823 25.7816 5.87684C23.0831 5.8498 20.352 6.38434 17.8446 7.37987C16.3615 7.973 14.9133 8.71071 13.6072 9.57204C11.5236 11.3932 9.86602 13.5851 8.76029 15.972C6.3626 21.1354 6.48655 27.2185 9.06443 32.3166C11.2953 36.675 15.2305 40.1952 19.9152 42.4076C23.2215 43.3252 26.7396 43.4947 30.1435 42.7275C33.6661 41.9875 36.8721 40.401 39.9476 38.7391C40.0096 38.7075 40.0717 38.6759 40.1339 38.6442C41.5239 37.9368 42.9519 37.2101 44.1686 36.2473C44.2373 36.1834 44.2955 36.1341 44.3537 36.0849C44.4119 36.0356 44.4701 35.9864 44.5388 35.9225C45.5678 34.6106 46.4012 33.1856 47.0506 31.6957C49.006 27.0227 48.8239 21.8594 46.4929 17.3187C45.098 14.5633 42.9883 12.0991 40.3944 10.1841ZM46.7566 16.1754C46.6351 15.8791 46.5007 15.5513 46.3251 15.2316C46.1193 14.7497 45.8532 14.3116 45.5629 13.8338C45.4884 13.7112 45.4124 13.586 45.3354 13.4568C44.9092 13.086 44.4296 12.7256 43.9499 12.3652C45.0257 13.5679 46.0177 14.888 46.8071 16.2982C46.7905 16.2579 46.7737 16.217 46.7566 16.1754ZM31.5382 43.1612C29.4847 43.7145 27.4148 43.9682 25.3287 43.9223C25.4742 43.9443 25.6063 43.9689 25.7385 43.9935C25.8706 44.0181 26.0027 44.0427 26.1482 44.0647C29.6663 44.2342 33.2239 43.6388 36.4229 42.2556C38.651 41.2642 40.6788 39.9083 42.4109 38.257C42.2619 38.3366 42.1263 38.4136 41.9907 38.4906C41.8551 38.5676 41.7195 38.6447 41.5704 38.7243C38.3459 40.4659 35.1097 42.1593 31.5382 43.1612ZM43.5284 11.0849C42.6715 10.0917 41.7308 9.21587 40.5992 8.47834C38.0518 6.75605 34.9179 5.85523 31.8002 5.25405C29.9771 4.90424 28.0167 4.68226 26.0912 4.60487C25.2227 4.72437 24.3007 4.85436 23.4439 5.02206C22.8474 5.13881 22.2149 5.3061 21.5369 5.48541C21.4845 5.49928 21.4317 5.51322 21.3788 5.52722C22.5569 5.29663 23.693 5.12472 24.8642 5.09739C28.0865 4.97143 31.2694 5.61032 34.266 6.63898C34.3254 6.6526 34.3714 6.66883 34.4173 6.68507C34.4633 6.70131 34.5093 6.71754 34.5687 6.73116C34.6525 6.61381 34.8015 6.53417 34.9854 6.59911C36.748 7.16267 38.3546 8.00912 39.8774 8.97293C40.9741 9.56587 42.0708 10.1588 43.1256 10.8104C43.2676 10.934 43.398 11.0095 43.5284 11.0849ZM33.4486 4.88094C34.4521 5.08832 35.5325 5.3816 36.5057 5.69585C36.055 5.52596 35.5818 5.38738 35.1235 5.25315C34.9545 5.20365 34.7875 5.15474 34.6244 5.10507C34.4195 5.06946 34.228 5.03123 34.0365 4.99301C33.845 4.95478 33.6535 4.91655 33.4486 4.88094Z" fill="url(#paint1_radial_3001_4347)"/>
<path fill-rule="evenodd" clip-rule="evenodd" d="M54.3274 20.168C54.5693 23.5971 53.8436 26.9717 52.3922 30.1286C51.6664 32.5779 50.5779 34.9728 49.0659 37.1499C47.9169 38.7284 46.6469 40.198 45.1954 41.4498C43.2602 43.9536 40.7806 46.1308 37.6963 47.4915C34.491 48.9066 30.8624 49.4509 27.2943 49.3965C23.2423 49.2877 19.3113 48.3624 15.6827 46.7295C15.4633 46.6637 15.2439 46.6028 15.0262 46.5425C14.5237 46.4031 14.0302 46.2662 13.566 46.0763C10.6631 45.0422 8.06261 43.4637 6.00639 41.341C3.8897 39.1638 2.49874 36.4968 1.83349 33.7209C1.83349 33.612 1.83349 33.5032 1.77301 33.3943C1.22872 32.1425 0.805383 30.8362 0.502999 29.5299C-0.706539 24.1958 0.321568 18.5352 2.98255 13.6365C5.64353 8.7379 9.99787 4.54686 15.4408 2.15197C15.8036 1.98868 16.1665 2.36969 15.9851 2.64184C19.0694 1.28111 22.4561 0.410238 25.9638 0.246951C32.4953 -0.134054 38.9058 1.8254 43.8649 5.68987C43.9859 5.7443 44.1068 5.85316 44.2278 5.96202C46.3445 7.37717 48.2193 9.01005 49.9126 10.8062C51.1221 12.1125 52.2107 13.5277 52.9969 15.0517C53.7831 16.6846 54.2065 18.3719 54.3274 20.168ZM2.37778 32.088C3.8897 35.9525 6.55069 39.3815 9.93739 42.103C12.1146 43.8447 14.6546 45.2599 17.376 46.294C18.1018 46.4573 18.8275 46.5662 19.5532 46.6751C17.7389 46.1852 16.0456 45.4776 14.4127 44.5523C11.3284 42.8106 8.78833 40.4701 6.91355 37.6942C5.94592 36.4424 5.09924 35.1361 4.434 33.7209C3.40589 31.9792 2.61969 30.0741 2.13587 28.1147C2.0754 29.4754 2.19635 30.7817 2.37778 32.088ZM48.945 13.31C49.3683 13.8542 49.7917 14.3985 50.1545 14.9973C48.7031 12.0581 46.6469 9.39106 44.1068 7.10503C43.8347 6.94174 43.5625 6.76484 43.2904 6.58795C43.0182 6.41106 42.7461 6.23416 42.4739 6.07087C41.2644 5.3633 40.0549 4.71014 38.7244 4.11142C39.6224 4.62188 40.4465 5.19882 41.2546 5.79029C43.5996 7.0905 45.7022 8.73127 47.412 10.6781C47.601 10.8895 47.4299 11.1713 47.1952 11.215C47.8057 11.8983 48.3894 12.5978 48.945 13.31ZM33.2641 2.86581C32.0293 2.43046 30.7578 2.09521 29.4714 1.87983C27.899 1.8254 26.3266 1.87983 24.8147 2.2064C24.3566 2.28887 23.9071 2.39476 23.4696 2.52112C26.7086 2.0755 30.0584 2.20987 33.2641 2.86581ZM17.8958 3.93078C19.0399 3.27177 20.2375 2.66375 21.4885 2.15197C17.7389 3.02284 14.1708 4.76457 11.2679 7.10503C13.0171 5.83543 15.0822 4.89751 17.2176 4.20285C17.3447 4.14953 17.4721 4.09724 17.5998 4.046C17.6982 4.00693 17.7969 3.96852 17.8958 3.93078ZM29.3505 46.5662C30.2576 46.4029 31.1043 46.2396 31.951 46.0763C32.3994 45.9877 32.8439 45.8902 33.284 45.7838C31.8818 45.8973 30.4706 45.8883 29.065 45.7682C23.4896 46.1179 17.8138 44.8787 13.0822 42.2119L13.082 42.2118C12.5378 41.8852 11.9936 41.5587 11.5098 41.2321C15.6222 44.389 20.9442 46.3485 26.3266 46.6206C27.3261 46.6735 28.2685 46.6236 29.2648 46.5707L29.3505 46.5662ZM35.9347 44.4699C38.4097 43.6606 40.7564 42.5037 42.8973 41.0688L42.8368 41.1233C42.0984 41.7546 41.3374 42.3251 40.5401 42.8472C40.5259 42.8552 40.5117 42.8633 40.4975 42.8713C39.1432 43.6641 37.5596 44.137 35.9347 44.4699ZM49.2697 31.0963C48.9501 32.3281 48.4918 33.528 47.9104 34.6822C46.1742 37.0607 43.9981 39.1411 41.4589 40.8156C41.978 40.4111 42.432 39.969 42.886 39.5268C45.0185 37.4437 46.9205 35.103 48.443 32.5841L48.4431 32.584C48.7244 32.0914 49.0057 31.5989 49.2697 31.0963ZM49.7955 26.5504C49.6394 27.12 49.4547 27.6836 49.2436 28.238C49.5252 26.6182 49.5692 24.9439 49.4108 23.3597C49.3911 23.0852 49.3667 22.8111 49.3374 22.5375C49.6025 23.8196 49.7696 25.1163 49.7917 26.4274C49.7931 26.4684 49.7943 26.5094 49.7955 26.5504ZM48.792 17.4671C49.4439 19.3572 50.0095 21.2607 50.361 23.2022C50.3898 22.7361 50.3971 22.2705 50.3815 21.8069C50.1323 20.5434 49.776 19.3008 49.1635 18.1588C49.0491 17.9228 48.9248 17.692 48.792 17.4671ZM4.84003 31.1828C5.38907 32.7484 6.16539 34.2591 7.16949 35.615C8.00778 36.7633 9.03698 37.7732 10.2035 38.6553C8.73658 37.2263 7.50244 35.6003 6.5663 33.8151C5.41825 31.617 4.68695 29.2869 4.38406 26.8729C4.27805 26.5277 4.18942 26.1791 4.11116 25.8284C4.08702 27.2474 4.23785 28.6758 4.55495 30.0741C4.64001 30.4442 4.73504 30.8142 4.84003 31.1828ZM45.1652 11.0784C45.1553 11.0636 45.1455 11.0488 45.1355 11.0339C44.106 10.0235 42.9631 9.10557 41.7353 8.30643C43.4351 9.53845 44.8299 11.133 45.9686 12.8282C46.0549 12.905 46.1409 12.9824 46.2264 13.0603C45.9633 12.4562 45.6669 11.864 45.3164 11.2961C45.2559 11.2144 45.2105 11.1464 45.1652 11.0784ZM47.363 13.6077C47.4065 13.7205 47.45 13.8282 47.4935 13.9359C47.554 14.0856 47.6145 14.2353 47.675 14.3985C47.6919 14.4435 47.7088 14.4884 47.7256 14.5334C48.0192 14.8468 48.3035 15.1681 48.5765 15.4976C48.2139 14.8498 47.8079 14.2185 47.363 13.6077ZM13.794 7.04078C13.0568 7.70083 12.3438 8.38265 11.6307 9.06448C10.1188 10.3163 8.72785 11.6771 7.63927 13.2555C7.51832 13.4188 7.57879 13.5821 7.69975 13.691C7.66951 13.7454 7.63927 13.7862 7.60903 13.827C7.57879 13.8679 7.54855 13.9087 7.51832 13.9631C6.66192 15.1433 5.88842 16.3768 5.23976 17.6589C5.71653 16.3815 6.31987 15.1479 7.04648 13.9856C8.74462 11.2833 11.0304 8.89178 13.794 7.04078ZM17.2095 5.51835C17.4875 5.44603 17.7677 5.37788 18.051 5.3148C17.5761 5.50297 17.1088 5.70129 16.6503 5.90759C16.8367 5.77711 17.0231 5.64664 17.2095 5.51835ZM53.2388 22.2363V21.4743C53.2388 19.7326 53.0574 17.9909 52.3922 16.4124C51.8479 15.0517 51.0617 13.8542 50.094 12.7112C51.5455 15.1061 52.5131 17.7731 52.9969 20.4402C53.0574 20.93 53.1179 21.4743 53.1784 22.0186C53.2388 22.0731 53.2388 22.1819 53.2388 22.2363ZM11.9936 4.92786C8.72785 7.10503 6.06687 9.98978 4.19209 13.2555C1.59158 17.7731 0.442522 22.9984 1.16824 28.0603C1.22872 26.9173 1.34968 25.7198 1.53111 24.5768C1.34968 19.7326 2.98255 14.9428 6.00639 10.9695C6.12735 10.8606 6.18783 10.8062 6.2483 10.6974C6.91355 9.71763 7.69975 8.79233 8.54642 7.86704C9.57453 6.77845 10.7236 5.79873 11.9936 4.92786ZM4.31304 37.6942C4.85733 38.6195 5.4621 39.5448 6.2483 40.4157C7.57879 41.8853 9.15119 43.1372 10.9655 44.0625C10.8143 43.9536 10.6782 43.8583 10.5421 43.763C10.406 43.6678 10.27 43.5726 10.1188 43.4637C7.88118 41.8309 5.88544 39.8714 4.31304 37.6942ZM26.0847 48.3079C29.3505 48.5256 32.7976 48.1446 35.882 47.0561C37.4544 46.5118 38.9058 45.7498 40.2363 44.8245C38.1801 45.913 35.9424 46.7295 33.5838 47.2193C30.681 47.8181 27.7176 47.9814 24.7542 47.7092C23.6657 47.7636 22.5772 47.7092 21.4887 47.6548L21.4885 47.6548C23.0004 47.9813 24.5123 48.1991 26.0847 48.3079ZM6.3937 30.3156C6.72903 31.0071 7.05272 31.6504 7.37641 32.2937C8.33584 34.1754 9.53973 35.9082 10.9764 37.4441C11.994 38.4059 13.0953 39.2503 14.3457 40.015L14.4109 40.0527C11.9893 38.1544 9.97978 35.8726 8.57791 33.3204C5.75089 28.1196 5.37781 21.9338 7.54497 16.5127L7.54503 16.5126C7.76149 16.016 7.97796 15.5194 8.20607 15.071C5.89209 18.9561 4.98912 23.5746 5.75785 27.9164C5.89826 28.7231 6.12888 29.4644 6.37271 30.2482L6.3937 30.3156ZM40.3944 10.1841C38.6458 9.214 36.7598 8.37175 34.9087 7.6741C32.0192 6.62447 28.9202 5.86823 25.7816 5.87684C23.0831 5.8498 20.352 6.38434 17.8446 7.37987C16.3615 7.973 14.9133 8.71071 13.6072 9.57204C11.5236 11.3932 9.86602 13.5851 8.76029 15.972C6.3626 21.1354 6.48655 27.2185 9.06443 32.3166C11.2953 36.675 15.2305 40.1952 19.9152 42.4076C23.2215 43.3252 26.7396 43.4947 30.1435 42.7275C33.6661 41.9875 36.8721 40.401 39.9476 38.7391C40.0096 38.7075 40.0717 38.6759 40.1339 38.6442C41.5239 37.9368 42.9519 37.2101 44.1686 36.2473C44.2373 36.1834 44.2955 36.1341 44.3537 36.0849C44.4119 36.0356 44.4701 35.9864 44.5388 35.9225C45.5678 34.6106 46.4012 33.1856 47.0506 31.6957C49.006 27.0227 48.8239 21.8594 46.4929 17.3187C45.098 14.5633 42.9883 12.0991 40.3944 10.1841ZM46.7566 16.1754C46.6351 15.8791 46.5007 15.5513 46.3251 15.2316C46.1193 14.7497 45.8532 14.3116 45.5629 13.8338C45.4884 13.7112 45.4124 13.586 45.3354 13.4568C44.9092 13.086 44.4296 12.7256 43.9499 12.3652C45.0257 13.5679 46.0177 14.888 46.8071 16.2982C46.7905 16.2579 46.7737 16.217 46.7566 16.1754ZM31.5382 43.1612C29.4847 43.7145 27.4148 43.9682 25.3287 43.9223C25.4742 43.9443 25.6063 43.9689 25.7385 43.9935C25.8706 44.0181 26.0027 44.0427 26.1482 44.0647C29.6663 44.2342 33.2239 43.6388 36.4229 42.2556C38.651 41.2642 40.6788 39.9083 42.4109 38.257C42.2619 38.3366 42.1263 38.4136 41.9907 38.4906C41.8551 38.5676 41.7195 38.6447 41.5704 38.7243C38.3459 40.4659 35.1097 42.1593 31.5382 43.1612ZM43.5284 11.0849C42.6715 10.0917 41.7308 9.21587 40.5992 8.47834C38.0518 6.75605 34.9179 5.85523 31.8002 5.25405C29.9771 4.90424 28.0167 4.68226 26.0912 4.60487C25.2227 4.72437 24.3007 4.85436 23.4439 5.02206C22.8474 5.13881 22.2149 5.3061 21.5369 5.48541C21.4845 5.49928 21.4317 5.51322 21.3788 5.52722C22.5569 5.29663 23.693 5.12472 24.8642 5.09739C28.0865 4.97143 31.2694 5.61032 34.266 6.63898C34.3254 6.6526 34.3714 6.66883 34.4173 6.68507C34.4633 6.70131 34.5093 6.71754 34.5687 6.73116C34.6525 6.61381 34.8015 6.53417 34.9854 6.59911C36.748 7.16267 38.3546 8.00912 39.8774 8.97293C40.9741 9.56587 42.0708 10.1588 43.1256 10.8104C43.2676 10.934 43.398 11.0095 43.5284 11.0849ZM33.4486 4.88094C34.4521 5.08832 35.5325 5.3816 36.5057 5.69585C36.055 5.52596 35.5818 5.38738 35.1235 5.25315C34.9545 5.20365 34.7875 5.15474 34.6244 5.10507C34.4195 5.06946 34.228 5.03123 34.0365 4.99301C33.845 4.95478 33.6535 4.91655 33.4486 4.88094Z" fill="url(#paint2_radial_3001_4347)"/>
<path fill-rule="evenodd" clip-rule="evenodd" d="M54.3274 20.168C54.5693 23.5971 53.8436 26.9717 52.3922 30.1286C51.6664 32.5779 50.5779 34.9728 49.0659 37.1499C47.9169 38.7284 46.6469 40.198 45.1954 41.4498C43.2602 43.9536 40.7806 46.1308 37.6963 47.4915C34.491 48.9066 30.8624 49.4509 27.2943 49.3965C23.2423 49.2877 19.3113 48.3624 15.6827 46.7295C15.4633 46.6637 15.2439 46.6028 15.0262 46.5425C14.5237 46.4031 14.0302 46.2662 13.566 46.0763C10.6631 45.0422 8.06261 43.4637 6.00639 41.341C3.8897 39.1638 2.49874 36.4968 1.83349 33.7209C1.83349 33.612 1.83349 33.5032 1.77301 33.3943C1.22872 32.1425 0.805383 30.8362 0.502999 29.5299C-0.706539 24.1958 0.321568 18.5352 2.98255 13.6365C5.64353 8.7379 9.99787 4.54686 15.4408 2.15197C15.8036 1.98868 16.1665 2.36969 15.9851 2.64184C19.0694 1.28111 22.4561 0.410238 25.9638 0.246951C32.4953 -0.134054 38.9058 1.8254 43.8649 5.68987C43.9859 5.7443 44.1068 5.85316 44.2278 5.96202C46.3445 7.37717 48.2193 9.01005 49.9126 10.8062C51.1221 12.1125 52.2107 13.5277 52.9969 15.0517C53.7831 16.6846 54.2065 18.3719 54.3274 20.168ZM2.37778 32.088C3.8897 35.9525 6.55069 39.3815 9.93739 42.103C12.1146 43.8447 14.6546 45.2599 17.376 46.294C18.1018 46.4573 18.8275 46.5662 19.5532 46.6751C17.7389 46.1852 16.0456 45.4776 14.4127 44.5523C11.3284 42.8106 8.78833 40.4701 6.91355 37.6942C5.94592 36.4424 5.09924 35.1361 4.434 33.7209C3.40589 31.9792 2.61969 30.0741 2.13587 28.1147C2.0754 29.4754 2.19635 30.7817 2.37778 32.088ZM48.945 13.31C49.3683 13.8542 49.7917 14.3985 50.1545 14.9973C48.7031 12.0581 46.6469 9.39106 44.1068 7.10503C43.8347 6.94174 43.5625 6.76484 43.2904 6.58795C43.0182 6.41106 42.7461 6.23416 42.4739 6.07087C41.2644 5.3633 40.0549 4.71014 38.7244 4.11142C39.6224 4.62188 40.4465 5.19882 41.2546 5.79029C43.5996 7.0905 45.7022 8.73127 47.412 10.6781C47.601 10.8895 47.4299 11.1713 47.1952 11.215C47.8057 11.8983 48.3894 12.5978 48.945 13.31ZM33.2641 2.86581C32.0293 2.43046 30.7578 2.09521 29.4714 1.87983C27.899 1.8254 26.3266 1.87983 24.8147 2.2064C24.3566 2.28887 23.9071 2.39476 23.4696 2.52112C26.7086 2.0755 30.0584 2.20987 33.2641 2.86581ZM17.8958 3.93078C19.0399 3.27177 20.2375 2.66375 21.4885 2.15197C17.7389 3.02284 14.1708 4.76457 11.2679 7.10503C13.0171 5.83543 15.0822 4.89751 17.2176 4.20285C17.3447 4.14953 17.4721 4.09724 17.5998 4.046C17.6982 4.00693 17.7969 3.96852 17.8958 3.93078ZM29.3505 46.5662C30.2576 46.4029 31.1043 46.2396 31.951 46.0763C32.3994 45.9877 32.8439 45.8902 33.284 45.7838C31.8818 45.8973 30.4706 45.8883 29.065 45.7682C23.4896 46.1179 17.8138 44.8787 13.0822 42.2119L13.082 42.2118C12.5378 41.8852 11.9936 41.5587 11.5098 41.2321C15.6222 44.389 20.9442 46.3485 26.3266 46.6206C27.3261 46.6735 28.2685 46.6236 29.2648 46.5707L29.3505 46.5662ZM35.9347 44.4699C38.4097 43.6606 40.7564 42.5037 42.8973 41.0688L42.8368 41.1233C42.0984 41.7546 41.3374 42.3251 40.5401 42.8472C40.5259 42.8552 40.5117 42.8633 40.4975 42.8713C39.1432 43.6641 37.5596 44.137 35.9347 44.4699ZM49.2697 31.0963C48.9501 32.3281 48.4918 33.528 47.9104 34.6822C46.1742 37.0607 43.9981 39.1411 41.4589 40.8156C41.978 40.4111 42.432 39.969 42.886 39.5268C45.0185 37.4437 46.9205 35.103 48.443 32.5841L48.4431 32.584C48.7244 32.0914 49.0057 31.5989 49.2697 31.0963ZM49.7955 26.5504C49.6394 27.12 49.4547 27.6836 49.2436 28.238C49.5252 26.6182 49.5692 24.9439 49.4108 23.3597C49.3911 23.0852 49.3667 22.8111 49.3374 22.5375C49.6025 23.8196 49.7696 25.1163 49.7917 26.4274C49.7931 26.4684 49.7943 26.5094 49.7955 26.5504ZM48.792 17.4671C49.4439 19.3572 50.0095 21.2607 50.361 23.2022C50.3898 22.7361 50.3971 22.2705 50.3815 21.8069C50.1323 20.5434 49.776 19.3008 49.1635 18.1588C49.0491 17.9228 48.9248 17.692 48.792 17.4671ZM4.84003 31.1828C5.38907 32.7484 6.16539 34.2591 7.16949 35.615C8.00778 36.7633 9.03698 37.7732 10.2035 38.6553C8.73658 37.2263 7.50244 35.6003 6.5663 33.8151C5.41825 31.617 4.68695 29.2869 4.38406 26.8729C4.27805 26.5277 4.18942 26.1791 4.11116 25.8284C4.08702 27.2474 4.23785 28.6758 4.55495 30.0741C4.64001 30.4442 4.73504 30.8142 4.84003 31.1828ZM45.1652 11.0784C45.1553 11.0636 45.1455 11.0488 45.1355 11.0339C44.106 10.0235 42.9631 9.10557 41.7353 8.30643C43.4351 9.53845 44.8299 11.133 45.9686 12.8282C46.0549 12.905 46.1409 12.9824 46.2264 13.0603C45.9633 12.4562 45.6669 11.864 45.3164 11.2961C45.2559 11.2144 45.2105 11.1464 45.1652 11.0784ZM47.363 13.6077C47.4065 13.7205 47.45 13.8282 47.4935 13.9359C47.554 14.0856 47.6145 14.2353 47.675 14.3985C47.6919 14.4435 47.7088 14.4884 47.7256 14.5334C48.0192 14.8468 48.3035 15.1681 48.5765 15.4976C48.2139 14.8498 47.8079 14.2185 47.363 13.6077ZM13.794 7.04078C13.0568 7.70083 12.3438 8.38265 11.6307 9.06448C10.1188 10.3163 8.72785 11.6771 7.63927 13.2555C7.51832 13.4188 7.57879 13.5821 7.69975 13.691C7.66951 13.7454 7.63927 13.7862 7.60903 13.827C7.57879 13.8679 7.54855 13.9087 7.51832 13.9631C6.66192 15.1433 5.88842 16.3768 5.23976 17.6589C5.71653 16.3815 6.31987 15.1479 7.04648 13.9856C8.74462 11.2833 11.0304 8.89178 13.794 7.04078ZM17.2095 5.51835C17.4875 5.44603 17.7677 5.37788 18.051 5.3148C17.5761 5.50297 17.1088 5.70129 16.6503 5.90759C16.8367 5.77711 17.0231 5.64664 17.2095 5.51835ZM53.2388 22.2363V21.4743C53.2388 19.7326 53.0574 17.9909 52.3922 16.4124C51.8479 15.0517 51.0617 13.8542 50.094 12.7112C51.5455 15.1061 52.5131 17.7731 52.9969 20.4402C53.0574 20.93 53.1179 21.4743 53.1784 22.0186C53.2388 22.0731 53.2388 22.1819 53.2388 22.2363ZM11.9936 4.92786C8.72785 7.10503 6.06687 9.98978 4.19209 13.2555C1.59158 17.7731 0.442522 22.9984 1.16824 28.0603C1.22872 26.9173 1.34968 25.7198 1.53111 24.5768C1.34968 19.7326 2.98255 14.9428 6.00639 10.9695C6.12735 10.8606 6.18783 10.8062 6.2483 10.6974C6.91355 9.71763 7.69975 8.79233 8.54642 7.86704C9.57453 6.77845 10.7236 5.79873 11.9936 4.92786ZM4.31304 37.6942C4.85733 38.6195 5.4621 39.5448 6.2483 40.4157C7.57879 41.8853 9.15119 43.1372 10.9655 44.0625C10.8143 43.9536 10.6782 43.8583 10.5421 43.763C10.406 43.6678 10.27 43.5726 10.1188 43.4637C7.88118 41.8309 5.88544 39.8714 4.31304 37.6942ZM26.0847 48.3079C29.3505 48.5256 32.7976 48.1446 35.882 47.0561C37.4544 46.5118 38.9058 45.7498 40.2363 44.8245C38.1801 45.913 35.9424 46.7295 33.5838 47.2193C30.681 47.8181 27.7176 47.9814 24.7542 47.7092C23.6657 47.7636 22.5772 47.7092 21.4887 47.6548L21.4885 47.6548C23.0004 47.9813 24.5123 48.1991 26.0847 48.3079ZM6.3937 30.3156C6.72903 31.0071 7.05272 31.6504 7.37641 32.2937C8.33584 34.1754 9.53973 35.9082 10.9764 37.4441C11.994 38.4059 13.0953 39.2503 14.3457 40.015L14.4109 40.0527C11.9893 38.1544 9.97978 35.8726 8.57791 33.3204C5.75089 28.1196 5.37781 21.9338 7.54497 16.5127L7.54503 16.5126C7.76149 16.016 7.97796 15.5194 8.20607 15.071C5.89209 18.9561 4.98912 23.5746 5.75785 27.9164C5.89826 28.7231 6.12888 29.4644 6.37271 30.2482L6.3937 30.3156ZM40.3944 10.1841C38.6458 9.214 36.7598 8.37175 34.9087 7.6741C32.0192 6.62447 28.9202 5.86823 25.7816 5.87684C23.0831 5.8498 20.352 6.38434 17.8446 7.37987C16.3615 7.973 14.9133 8.71071 13.6072 9.57204C11.5236 11.3932 9.86602 13.5851 8.76029 15.972C6.3626 21.1354 6.48655 27.2185 9.06443 32.3166C11.2953 36.675 15.2305 40.1952 19.9152 42.4076C23.2215 43.3252 26.7396 43.4947 30.1435 42.7275C33.6661 41.9875 36.8721 40.401 39.9476 38.7391C40.0096 38.7075 40.0717 38.6759 40.1339 38.6442C41.5239 37.9368 42.9519 37.2101 44.1686 36.2473C44.2373 36.1834 44.2955 36.1341 44.3537 36.0849C44.4119 36.0356 44.4701 35.9864 44.5388 35.9225C45.5678 34.6106 46.4012 33.1856 47.0506 31.6957C49.006 27.0227 48.8239 21.8594 46.4929 17.3187C45.098 14.5633 42.9883 12.0991 40.3944 10.1841ZM46.7566 16.1754C46.6351 15.8791 46.5007 15.5513 46.3251 15.2316C46.1193 14.7497 45.8532 14.3116 45.5629 13.8338C45.4884 13.7112 45.4124 13.586 45.3354 13.4568C44.9092 13.086 44.4296 12.7256 43.9499 12.3652C45.0257 13.5679 46.0177 14.888 46.8071 16.2982C46.7905 16.2579 46.7737 16.217 46.7566 16.1754ZM31.5382 43.1612C29.4847 43.7145 27.4148 43.9682 25.3287 43.9223C25.4742 43.9443 25.6063 43.9689 25.7385 43.9935C25.8706 44.0181 26.0027 44.0427 26.1482 44.0647C29.6663 44.2342 33.2239 43.6388 36.4229 42.2556C38.651 41.2642 40.6788 39.9083 42.4109 38.257C42.2619 38.3366 42.1263 38.4136 41.9907 38.4906C41.8551 38.5676 41.7195 38.6447 41.5704 38.7243C38.3459 40.4659 35.1097 42.1593 31.5382 43.1612ZM43.5284 11.0849C42.6715 10.0917 41.7308 9.21587 40.5992 8.47834C38.0518 6.75605 34.9179 5.85523 31.8002 5.25405C29.9771 4.90424 28.0167 4.68226 26.0912 4.60487C25.2227 4.72437 24.3007 4.85436 23.4439 5.02206C22.8474 5.13881 22.2149 5.3061 21.5369 5.48541C21.4845 5.49928 21.4317 5.51322 21.3788 5.52722C22.5569 5.29663 23.693 5.12472 24.8642 5.09739C28.0865 4.97143 31.2694 5.61032 34.266 6.63898C34.3254 6.6526 34.3714 6.66883 34.4173 6.68507C34.4633 6.70131 34.5093 6.71754 34.5687 6.73116C34.6525 6.61381 34.8015 6.53417 34.9854 6.59911C36.748 7.16267 38.3546 8.00912 39.8774 8.97293C40.9741 9.56587 42.0708 10.1588 43.1256 10.8104C43.2676 10.934 43.398 11.0095 43.5284 11.0849ZM33.4486 4.88094C34.4521 5.08832 35.5325 5.3816 36.5057 5.69585C36.055 5.52596 35.5818 5.38738 35.1235 5.25315C34.9545 5.20365 34.7875 5.15474 34.6244 5.10507C34.4195 5.06946 34.228 5.03123 34.0365 4.99301C33.845 4.95478 33.6535 4.91655 33.4486 4.88094Z" fill="url(#paint3_radial_3001_4347)"/>
<defs>
<radialGradient id="paint0_radial_3001_4347" cx="0" cy="0" r="1" gradientUnits="userSpaceOnUse" gradientTransform="translate(-1.39817e-06 49.4002) rotate(-33.9441) scale(76.0251 73.5396)">
<stop stop-color="#66D2FD"/>
<stop offset="0.25" stop-color="#91DDFF"/>
<stop offset="0.5" stop-color="#ED50B9"/>
<stop offset="0.75" stop-color="#F8086E"/>
<stop offset="0.940085" stop-color="#FF5546"/>
</radialGradient>
<radialGradient id="paint1_radial_3001_4347" cx="0" cy="0" r="1" gradientUnits="userSpaceOnUse" gradientTransform="translate(3.6674 17.3697) rotate(40.6314) scale(60.9307 33.7326)">
<stop offset="0.0149216" stop-color="#6843E7"/>
<stop offset="0.860954" stop-color="#6843E7" stop-opacity="0"/>
</radialGradient>
<radialGradient id="paint2_radial_3001_4347" cx="0" cy="0" r="1" gradientUnits="userSpaceOnUse" gradientTransform="translate(54.3733 47.3803) rotate(-103.574) scale(37.3666 40.8833)">
<stop stop-color="#FADAC7"/>
<stop offset="0.924249" stop-color="#FADAC7" stop-opacity="0"/>
</radialGradient>
<radialGradient id="paint3_radial_3001_4347" cx="0" cy="0" r="1" gradientUnits="userSpaceOnUse" gradientTransform="translate(14.4304 49.4002) scale(31.1729 24.6318)">
<stop stop-color="#65CDFC"/>
<stop offset="1" stop-color="#65CDFC" stop-opacity="0"/>
</radialGradient>
</defs>
</svg>
