<svg width="20" height="20" viewBox="0 0 20 20" fill="none" xmlns="http://www.w3.org/2000/svg">
<g clip-path="url(#clip0_1182_10265)">
<path d="M8.22413 2.51883C7.5917 2.6275 7.0277 2.98135 6.65468 3.5035C6.28166 4.02564 6.12976 4.6739 6.23199 5.3074L7.41413 12.3938L7.45342 12.3795C5.32699 13.1595 4.69199 15.9267 6.26556 17.5553L6.52842 17.8288L7.89199 19.2403C8.02331 19.3763 8.20323 19.4548 8.39229 19.4584C8.58135 19.462 8.76414 19.3905 8.90056 19.2595C8.96836 19.1945 9.02265 19.1167 9.06033 19.0306C9.098 18.9445 9.11832 18.8518 9.12011 18.7578C9.1219 18.6639 9.10513 18.5705 9.07077 18.483C9.0364 18.3956 8.98512 18.3157 8.91985 18.2481L7.55342 16.8338L7.29128 16.5631C6.39842 15.6388 6.73842 14.1631 7.94485 13.721L8.46199 13.531C8.6192 13.474 8.75142 13.3636 8.83561 13.2191C8.9198 13.0746 8.95062 12.9051 8.92271 12.7403L7.64342 5.0724C7.62045 4.94352 7.62341 4.81135 7.65215 4.68362C7.68089 4.5559 7.73482 4.43519 7.81078 4.32857C7.88674 4.22194 7.98321 4.13154 8.09453 4.06266C8.20586 3.99378 8.32982 3.94779 8.45913 3.92741C8.58808 3.90467 8.72027 3.90791 8.84794 3.93693C8.97562 3.96595 9.09622 4.02017 9.20266 4.09641C9.30911 4.17265 9.39926 4.26938 9.46783 4.38092C9.5364 4.49247 9.58202 4.61658 9.60199 4.74598L10.577 10.5974C10.5925 10.6901 10.6261 10.7788 10.676 10.8585C10.7258 10.9382 10.7909 11.0072 10.8674 11.0617C10.944 11.1162 11.0306 11.155 11.1222 11.176C11.2138 11.1969 11.3086 11.1996 11.4013 11.1838L14.5063 10.6645C14.8908 10.5992 15.2844 10.6105 15.6645 10.6979C16.0446 10.7853 16.4037 10.947 16.721 11.1737C17.0384 11.4004 17.3077 11.6877 17.5136 12.0189C17.7195 12.3502 17.8578 12.7189 17.9206 13.1038L18.5806 17.0467C18.6119 17.2333 18.716 17.3999 18.87 17.5098C19.024 17.6198 19.2153 17.6641 19.402 17.6331C19.5886 17.6018 19.7552 17.4977 19.8651 17.3437C19.9751 17.1897 20.0194 16.9984 19.9884 16.8117L19.3291 12.866C18.9313 10.4803 16.6577 8.8574 14.272 9.25598L11.8713 9.65598L11.0106 4.50812C10.9024 3.87618 10.549 3.31255 10.0273 2.93996C9.5055 2.56738 8.85768 2.41601 8.22485 2.51883H8.22413ZM2.50413 0.000976783C2.41022 0.000902953 2.31721 0.0193498 2.23044 0.0552616C2.14366 0.0911734 2.06482 0.143845 1.99842 0.210262L0.209848 1.99883C0.143329 2.06518 0.0905539 2.14401 0.0545446 2.23079C0.0185354 2.31756 0 2.41059 0 2.50455C0 2.5985 0.0185354 2.69153 0.0545446 2.77831C0.0905539 2.86509 0.143329 2.94391 0.209848 3.01026L1.99842 4.79883C2.06477 4.86535 2.14359 4.91813 2.23037 4.95414C2.31715 4.99015 2.41018 5.00868 2.50413 5.00868C2.59809 5.00868 2.69112 4.99015 2.7779 4.95414C2.86468 4.91813 2.9435 4.86535 3.00985 4.79883C3.07637 4.73248 3.12914 4.65366 3.16515 4.56688C3.20116 4.4801 3.2197 4.38707 3.2197 4.29312C3.2197 4.19917 3.20116 4.10614 3.16515 4.01936C3.12914 3.93258 3.07637 3.85376 3.00985 3.78741L1.72771 2.50455L3.00985 1.22241C3.07647 1.15604 3.12934 1.07717 3.16541 0.99033C3.20149 0.903485 3.22006 0.810372 3.22006 0.716334C3.22006 0.622295 3.20149 0.529183 3.16541 0.442338C3.12934 0.355493 3.07647 0.276626 3.00985 0.210262C2.94345 0.143845 2.86461 0.0911734 2.77783 0.0552616C2.69105 0.0193498 2.59805 0.000902953 2.50413 0.000976783Z" fill="#CCD5E1"/>
<path d="M0.715716 1.78913C0.621734 1.78895 0.528639 1.80731 0.441766 1.84316C0.354894 1.87902 0.275951 1.93167 0.209463 1.99809C0.142974 2.06451 0.0902476 2.1434 0.0543041 2.23024C0.0183607 2.31708 -9.27383e-05 2.41015 1.43157e-06 2.50413C-0.000186841 2.59818 0.0181972 2.69133 0.0540985 2.77825C0.0899998 2.86517 0.142712 2.94414 0.209209 3.01064C0.275707 3.07714 0.354682 3.12985 0.441601 3.16575C0.528521 3.20165 0.621674 3.22004 0.715716 3.21985H5.00714C5.10113 3.21994 5.1942 3.20149 5.28104 3.16555C5.36788 3.1296 5.44677 3.07687 5.51319 3.01039C5.57961 2.9439 5.63226 2.86496 5.66811 2.77808C5.70397 2.69121 5.72233 2.59812 5.72214 2.50413C5.72224 2.41021 5.70381 2.31719 5.66791 2.2304C5.63201 2.14361 5.57935 2.06476 5.51293 1.99834C5.44652 1.93193 5.36766 1.87927 5.28087 1.84337C5.19408 1.80747 5.10107 1.78904 5.00714 1.78913H0.715716ZM14.1593 0.209848C14.0927 0.276212 14.0398 0.355079 14.0037 0.441924C13.9676 0.528768 13.9491 0.621881 13.9491 0.71592C13.9491 0.809958 13.9676 0.903071 14.0037 0.989916C14.0398 1.07676 14.0927 1.15563 14.1593 1.22199L15.4414 2.50413L14.1593 3.78699C14.0928 3.85334 14.04 3.93216 14.004 4.01894C13.968 4.10572 13.9494 4.19875 13.9494 4.29271C13.9494 4.38666 13.968 4.47969 14.004 4.56647C14.04 4.65325 14.0928 4.73207 14.1593 4.79842C14.2256 4.86494 14.3045 4.91771 14.3912 4.95372C14.478 4.98973 14.571 5.00827 14.665 5.00827C14.759 5.00827 14.852 4.98973 14.9388 4.95372C15.0255 4.91771 15.1044 4.86494 15.1707 4.79842L16.9593 3.00985C17.0258 2.9435 17.0786 2.86467 17.1146 2.7779C17.1506 2.69112 17.1691 2.59809 17.1691 2.50413C17.1691 2.41018 17.1506 2.31715 17.1146 2.23037C17.0786 2.14359 17.0258 2.06477 16.9593 1.99842L15.1707 0.209848C15.1044 0.143329 15.0255 0.0905539 14.9388 0.0545447C14.852 0.0185354 14.759 0 14.665 0C14.571 0 14.478 0.0185354 14.3912 0.0545447C14.3045 0.0905539 14.2256 0.143329 14.1593 0.209848Z" fill="#CCD5E1"/>
<path d="M12.161 1.78955C12.067 1.78936 11.974 1.80772 11.8871 1.84358C11.8002 1.87944 11.7213 1.93209 11.6548 1.99851C11.5883 2.06493 11.5356 2.14382 11.4996 2.23066C11.4637 2.31749 11.4452 2.41057 11.4453 2.50455C11.4451 2.59859 11.4635 2.69175 11.4994 2.77867C11.5353 2.86559 11.588 2.94456 11.6545 3.01106C11.721 3.07756 11.8 3.13027 11.8869 3.16617C11.9738 3.20207 12.067 3.22045 12.161 3.22027H16.4532C16.5472 3.22036 16.6402 3.20191 16.7271 3.16596C16.8139 3.13002 16.8928 3.07729 16.9592 3.01081C17.0256 2.94432 17.0783 2.86537 17.1141 2.7785C17.15 2.69163 17.1684 2.59853 17.1682 2.50455C17.1683 2.41057 17.1498 2.31749 17.1139 2.23066C17.0779 2.14382 17.0252 2.06493 16.9587 1.99851C16.8922 1.93209 16.8133 1.87944 16.7264 1.84358C16.6395 1.80772 16.5464 1.78936 16.4525 1.78955H12.161Z" fill="#CCD5E1"/>
</g>
<defs>
<clipPath id="clip0_1182_10265">
<rect width="20" height="20" fill="white"/>
</clipPath>
</defs>
</svg>
