<svg aria-hidden="true" style="position: absolute; width: 0; height: 0; overflow: hidden;" version="1.1" xmlns="http://www.w3.org/2000/svg" xmlns:xlink="http://www.w3.org/1999/xlink">
<defs>
<symbol id="icon-1" viewBox="0 0 32 32">
<path d="M26.908 14.852h0.965c0.344 0 0.629 0.278 0.621 0.622v7.905c0 0.344-0.278 0.621-0.621 0.621h-6.94c-0.344 0-0.622-0.278-0.622-0.621v-2.362h-6.355v2.618h3.729c0.102 0 0.183 0.080 0.183 0.183s-0.080 0.183-0.183 0.183h-7.817c-0.102 0-0.183-0.080-0.183-0.183s0.080-0.183 0.183-0.183h3.729v-2.625h-8.907c-0.731 0-1.324-0.592-1.324-1.324v-10.362c0-0.731 0.592-1.324 1.324-1.324h18.179c0.731 0 1.324 0.592 1.324 1.324v5.528h1.214v-0.037c0-0.38 0.336-0.687 0.753-0.687s0.753 0.307 0.753 0.687c0 0.007-0.002 0.013-0.004 0.018s-0.004 0.011-0.004 0.018zM26.162 14.494c-0.212 0-0.388 0.146-0.388 0.322v0.037h0.782c-0.007-0.007-0.007-0.022-0.007-0.037 0-0.175-0.176-0.322-0.388-0.322zM3.727 9.324v10.369c0 0.526 0.431 0.958 0.965 0.958h15.627v-5.177c0-0.344 0.278-0.622 0.622-0.622h2.888v-5.528c0-0.527-0.431-0.958-0.958-0.958h-18.186c-0.527 0-0.958 0.431-0.958 0.958zM27.88 23.634c0.139 0 0.256-0.117 0.256-0.256h-0.007v-7.905c0-0.139-0.117-0.256-0.256-0.256h-2.099v1.221c0 0.175 0.175 0.322 0.388 0.322s0.388-0.146 0.388-0.322v-0.629c0-0.102 0.080-0.183 0.183-0.183s0.183 0.080 0.183 0.183v0.629c0 0.38-0.336 0.687-0.753 0.687s-0.753-0.307-0.753-0.687v-1.221h-4.468c-0.139 0-0.256 0.117-0.256 0.256v7.905c0 0.139 0.117 0.256 0.256 0.256h6.94zM25.943 18.369h1.141c0.103 0 0.183 0.080 0.183 0.183s-0.080 0.183-0.183 0.183h-1.141c-0.103 0-0.183-0.080-0.183-0.183s0.080-0.183 0.183-0.183zM21.818 18.735h2.984c0.102 0 0.183-0.080 0.183-0.183s-0.080-0.183-0.183-0.183h-2.984c-0.102 0-0.183 0.080-0.183 0.183s0.080 0.183 0.183 0.183zM21.811 20.212h5.272c0.102 0 0.183 0.080 0.183 0.183s-0.080 0.183-0.183 0.183h-5.272c-0.103 0-0.183-0.080-0.183-0.183s0.080-0.183 0.183-0.183zM27.084 22.055h-2.018c-0.103 0-0.183 0.080-0.183 0.183s0.080 0.183 0.183 0.183h2.018c0.102 0 0.183-0.080 0.183-0.183s-0.080-0.183-0.183-0.183zM21.818 22.055h2.018c0.102 0 0.183 0.080 0.183 0.183s-0.080 0.183-0.183 0.183h-2.018c-0.102 0-0.183-0.080-0.183-0.183s0.080-0.183 0.183-0.183zM16.312 15.071c0-0.102-0.080-0.183-0.183-0.183h-2.684v-2.684c0-0.102-0.080-0.183-0.183-0.183-1.682 0-3.049 1.367-3.049 3.049 0 0.812 0.314 1.58 0.892 2.157s1.346 0.892 2.157 0.892c1.682 0 3.049-1.367 3.049-3.049zM13.262 17.755c-0.717 0-1.389-0.278-1.894-0.782s-0.782-1.185-0.782-1.894c0-1.419 1.104-2.581 2.501-2.676v2.676c0 0.102 0.080 0.183 0.183 0.183h2.676c-0.102 1.382-1.265 2.494-2.684 2.494zM17.116 14.26h-2.867c-0.095 0-0.183-0.080-0.183-0.183v-2.867c0-0.102 0.080-0.183 0.183-0.183 0.819 0 1.58 0.314 2.157 0.892s0.892 1.346 0.892 2.157c0 0.102-0.080 0.183-0.183 0.183zM16.143 12.19c-0.461-0.468-1.060-0.739-1.711-0.782v2.494h2.494c-0.044-0.644-0.322-1.25-0.782-1.711z"></path>
</symbol>
<symbol id="icon-2" viewBox="0 0 32 32">
<path d="M23.808 8.965h2.321c0.806 0 1.458 0.653 1.45 1.458v11.425c0 0.806-0.653 1.459-1.459 1.459h-9.814v2.884h4.109c0.113 0 0.201 0.089 0.201 0.201s-0.089 0.201-0.201 0.201h-8.621c-0.113 0-0.201-0.089-0.201-0.201s0.089-0.201 0.201-0.201h4.109v-2.893h-9.814c-0.806 0-1.458-0.653-1.458-1.458v-11.417c0-0.806 0.653-1.458 1.458-1.458h14.906l1.789-3.094c0.33-0.58 1.080-0.782 1.66-0.443 0.58 0.33 0.781 1.080 0.443 1.66l-1.080 1.877zM24.243 5.774c-0.387-0.226-0.886-0.089-1.112 0.298l-1.837 3.191-1.45 2.506c-0.226 0.387-0.089 0.886 0.298 1.112 0.193 0.105 0.411 0.137 0.62 0.081s0.379-0.193 0.492-0.379l2.031-3.521 1.257-2.175c0.226-0.387 0.089-0.886-0.298-1.112zM20.239 14.347c0.105-0.193 0.137-0.411 0.081-0.62s-0.193-0.387-0.379-0.492c-0.121-0.073-0.258-0.113-0.403-0.113-0.064 0-0.137 0.008-0.21 0.024-0.435 0.121-0.693 0.564-0.58 0.999l0.209 0.79 0.79-0.21c0.209-0.056 0.379-0.193 0.491-0.379zM26.129 22.896c0.58 0 1.055-0.475 1.055-1.056h0.008v-11.409c0-0.58-0.475-1.056-1.056-1.056h-2.554l-1.974 3.424c-0.161 0.282-0.427 0.483-0.741 0.564-0.081 0.024-0.161 0.032-0.242 0.040 0.040 0.072 0.064 0.145 0.089 0.226 0.089 0.314 0.040 0.645-0.121 0.927s-0.427 0.483-0.741 0.564l-0.983 0.266c-0.016 0.008-0.032 0.008-0.048 0.008h-0c-0.089 0-0.169-0.064-0.193-0.153l-0.266-0.983c-0.169-0.645 0.218-1.313 0.862-1.491 0.081-0.024 0.161-0.032 0.242-0.040-0.177-0.355-0.177-0.782 0.032-1.152l1.273-2.208h-14.672c-0.58 0-1.056 0.475-1.056 1.056v11.417c0 0.58 0.475 1.056 1.056 1.056h20.031zM17.253 16.557c0.281-0.45 0.595-0.953 1.245-0.953 0.113 0 0.201 0.089 0.201 0.201s-0.089 0.201-0.201 0.201c-0.422 0-0.64 0.347-0.894 0.752l-0.009 0.014-0.004 0.006c-0.281 0.45-0.595 0.953-1.245 0.953s-0.964-0.503-1.245-0.953l-0.004-0.006c-0.25-0.411-0.475-0.765-0.902-0.765-0.422 0-0.64 0.347-0.894 0.752l-0.009 0.014-0.004 0.006c-0.281 0.45-0.595 0.953-1.245 0.953s-0.964-0.503-1.245-0.953l-0.004-0.006c-0.25-0.411-0.475-0.765-0.902-0.765-0.113 0-0.201-0.089-0.201-0.201s0.089-0.201 0.201-0.201c0.65 0 0.964 0.503 1.245 0.953l0.004 0.006c0.25 0.411 0.475 0.765 0.902 0.765 0.422 0 0.64-0.347 0.894-0.752l0.009-0.014 0.004-0.006c0.281-0.45 0.595-0.953 1.245-0.953s0.964 0.503 1.245 0.953l0.004 0.006c0.25 0.411 0.475 0.765 0.902 0.765 0.422 0 0.64-0.347 0.894-0.752l0.013-0.020z"></path>
</symbol>
<symbol id="icon-3" viewBox="0 0 32 32">
<path d="M9.213 7.368h13.721c1.013 0 1.845 0.824 1.845 1.845v13.721c0 1.020-0.824 1.845-1.845 1.845h-13.721c-1.020 0-1.845-0.824-1.845-1.845v-13.721c0-1.020 0.824-1.845 1.845-1.845zM22.934 7.761h-13.721c-0.801 0-1.452 0.652-1.452 1.452v2.174h16.626v-2.174c0-0.801-0.652-1.452-1.452-1.452zM9.213 24.387h13.721c0.801 0 1.452-0.652 1.452-1.452v-11.154h-16.626v11.154c0 0.801 0.652 1.452 1.452 1.452zM12.612 16.168c0.071-0.078 0.196-0.078 0.275 0s0.078 0.204 0.008 0.283l-1.617 1.617 1.617 1.617c0.078 0.071 0.078 0.196 0 0.275-0.039 0.039-0.086 0.055-0.141 0.055s-0.102-0.016-0.141-0.055l-1.758-1.758c-0.078-0.071-0.078-0.196 0-0.275l1.758-1.758zM19.535 16.168c-0.078-0.078-0.204-0.078-0.275 0-0.078 0.078-0.078 0.204 0 0.275l1.617 1.617-1.617 1.617c-0.078 0.078-0.078 0.204 0 0.275 0.039 0.039 0.086 0.055 0.141 0.055s0.102-0.016 0.141-0.055l1.758-1.758c0.079-0.078 0.079-0.204 0-0.275l-1.766-1.75zM16.718 14.873c0.031-0.11 0.141-0.173 0.243-0.141 0.11 0.031 0.173 0.141 0.133 0.243l-1.68 6.28c-0.024 0.094-0.102 0.149-0.188 0.149-0.016 0-0.031 0-0.047-0.008-0.11-0.032-0.173-0.141-0.141-0.243l1.68-6.28zM22.283 10.54c0.534 0 0.965-0.432 0.965-0.966s-0.432-0.966-0.965-0.966c-0.534 0-0.965 0.432-0.965 0.966s0.432 0.966 0.965 0.966zM22.283 9.001c0.314 0 0.573 0.259 0.573 0.573s-0.259 0.573-0.573 0.573c-0.314 0-0.573-0.259-0.573-0.573s0.259-0.573 0.573-0.573zM20.179 9.574c0 0.534-0.432 0.966-0.966 0.966s-0.966-0.432-0.966-0.966c0-0.534 0.432-0.966 0.966-0.966s0.966 0.432 0.966 0.966zM19.786 9.574c0-0.314-0.259-0.573-0.573-0.573s-0.573 0.259-0.573 0.573c0 0.314 0.259 0.573 0.573 0.573s0.573-0.259 0.573-0.573z"></path>
</symbol>
<symbol id="icon-4" viewBox="0 0 32 32">
<path d="M25.016 13.046h0.459c0.108 0 0.209 0.092 0.209 0.2v1.302c0 0.117-0.092 0.209-0.209 0.209h-0.459v5.744c0 0.117-0.092 0.209-0.209 0.209h-4.608c-0.885 2.797-3.515 4.734-6.453 4.734-3.406 0-6.261-2.513-6.704-5.869h-0.518c-0.117 0-0.209-0.092-0.209-0.209v-1.302c0-0.117 0.092-0.209 0.209-0.209h0.509c0.301-2.546 2.029-4.7 4.45-5.56v-4.909c0-0.117 0.092-0.209 0.209-0.209h5.652v-0.442c0-0.117 0.092-0.209 0.209-0.209h1.302c0.117 0 0.209 0.092 0.209 0.209v0.442h5.744c0.117 0 0.209 0.092 0.209 0.209v5.66zM18.646 6.944h-0.885v0.885h0.885v-0.885zM7.209 18.273h-0.484v0.885h0.885v-0.885h-0.401zM7.46 19.575c0.442 3.122 3.106 5.452 6.286 5.452 2.713 0 5.143-1.761 6.019-4.316h-8.073c-0.117 0-0.209-0.092-0.209-0.209v-7.764c-2.179 0.835-3.732 2.797-4.032 5.118h0.376c0.117 0 0.209 0.092 0.209 0.209v1.302c0 0.117-0.092 0.209-0.209 0.209h-0.367zM20.341 20.184c-0.008 0.040-0.017 0.079-0.025 0.117h4.274v-5.535h-0.434c-0.117 0-0.209-0.092-0.209-0.209v-1.302c0-0.117 0.092-0.209 0.209-0.209h0.434v-5.452h-5.535v0.442c0 0.117-0.092 0.209-0.209 0.209h-1.302c-0.117 0-0.209-0.092-0.209-0.209v-0.442h-5.443v4.567c0.038-0.008 0.075-0.019 0.113-0.029s0.075-0.021 0.113-0.029c0.109-0.033 0.225 0.042 0.25 0.15 0.033 0.109-0.042 0.225-0.15 0.25s-0.217 0.058-0.326 0.092v7.697h7.989c0.025-0.1 0.050-0.208 0.075-0.316l0-0.001c0.025-0.109 0.134-0.184 0.25-0.159 0.109 0.025 0.184 0.134 0.159 0.25-0.008 0.038-0.017 0.077-0.025 0.117zM24.808 14.349h0.459v-0.885h-0.893v0.885h0.434zM14.205 11.919c-0.342-0.025-0.701-0.017-1.052 0.008-0.117 0.008-0.2 0.109-0.192 0.225 0.008 0.109 0.1 0.192 0.209 0.192h0.017c0.326-0.025 0.66-0.033 0.985-0.008 0.117 0.008 0.217-0.075 0.225-0.192s-0.075-0.217-0.192-0.225zM16.25 12.387c-0.326-0.134-0.66-0.234-1.002-0.309-0.109-0.025-0.225 0.042-0.25 0.159-0.025 0.109 0.042 0.225 0.159 0.25 0.317 0.075 0.634 0.167 0.943 0.292 0.025 0.008 0.050 0.017 0.075 0.017 0.084 0 0.159-0.050 0.192-0.134 0.042-0.109-0.008-0.234-0.117-0.275zM18.513 14.165c0.083-0.075 0.217-0.067 0.292 0.017 0.234 0.259 0.442 0.543 0.643 0.826 0.058 0.1 0.033 0.234-0.067 0.292-0.042 0.025-0.075 0.033-0.117 0.033-0.067 0-0.134-0.033-0.175-0.092-0.175-0.275-0.376-0.543-0.593-0.785-0.075-0.083-0.067-0.217 0.017-0.292zM20.141 17.187c0.109-0.033 0.175-0.142 0.15-0.259-0.092-0.334-0.209-0.668-0.351-0.993-0.050-0.109-0.167-0.15-0.276-0.109-0.109 0.050-0.15 0.167-0.108 0.276 0.134 0.301 0.242 0.609 0.326 0.927 0.025 0.092 0.109 0.159 0.2 0.159 0.017 0.008 0.033 0.008 0.058 0zM16.91 12.93c0.058-0.1 0.184-0.134 0.284-0.075 0.301 0.175 0.584 0.376 0.868 0.609 0.083 0.075 0.1 0.2 0.025 0.292-0.042 0.050-0.1 0.075-0.159 0.075-0.050 0-0.092-0.017-0.134-0.050-0.259-0.209-0.526-0.401-0.81-0.568-0.1-0.058-0.134-0.184-0.075-0.284zM20.249 17.78c-0.117 0.008-0.2 0.117-0.184 0.225 0.025 0.217 0.033 0.442 0.033 0.668v0c0 0.108 0 0.217-0.008 0.317-0.008 0.117 0.083 0.217 0.2 0.217h0.008c0.109 0 0.2-0.083 0.209-0.2 0.008-0.108 0.008-0.225 0.008-0.342v-0c0-0.234-0.008-0.476-0.033-0.71-0.017-0.1-0.125-0.184-0.234-0.175z"></path>
</symbol>
<symbol id="icon-5" viewBox="0 0 32 32">
<path d="M25.947 7.271h-20.089c-0.673 0-1.226 0.554-1.226 1.226v11.631c0 0.673 0.554 1.226 1.226 1.226h9.843v2.832h-4.035c-0.111 0-0.198 0.087-0.198 0.198s0.087 0.198 0.198 0.198h8.458c0.111 0 0.198-0.087 0.198-0.198s-0.087-0.198-0.198-0.198h-4.035v-2.832h9.843c0.673 0 1.226-0.554 1.226-1.226v-11.631c0.016-0.68-0.538-1.226-1.211-1.226zM26.778 20.12c0 0.459-0.372 0.831-0.831 0.831h-20.089c-0.459 0-0.831-0.372-0.831-0.831v-11.631c0-0.459 0.372-0.831 0.831-0.831h20.089c0.459 0 0.831 0.372 0.831 0.831v11.631zM19.657 13.118h-0.285c-0.047-0.142-0.103-0.277-0.166-0.411l0.206-0.206c0.127-0.127 0.198-0.293 0.198-0.475s-0.071-0.348-0.198-0.475l-0.736-0.736c-0.261-0.261-0.688-0.261-0.949 0l-0.206 0.206c-0.134-0.063-0.269-0.119-0.411-0.166v-0.285c0-0.372-0.301-0.673-0.673-0.673h-1.044c-0.372 0-0.673 0.301-0.673 0.673v0.285c-0.142 0.047-0.277 0.103-0.411 0.166l-0.206-0.206c-0.127-0.127-0.293-0.198-0.475-0.198s-0.348 0.071-0.475 0.198l-0.736 0.736c-0.261 0.261-0.261 0.688 0 0.949l0.206 0.206c-0.063 0.134-0.119 0.269-0.166 0.411h-0.285c-0.372 0-0.673 0.301-0.673 0.673v1.044c0 0.372 0.301 0.673 0.673 0.673h0.285c0.047 0.142 0.103 0.277 0.166 0.411l-0.206 0.206c-0.261 0.261-0.261 0.688 0 0.949l0.736 0.736c0.261 0.261 0.688 0.261 0.949 0l0.206-0.206c0.134 0.063 0.269 0.119 0.411 0.166v0.285c0 0.372 0.301 0.673 0.673 0.673h1.044c0.372 0 0.673-0.301 0.673-0.673v-0.285c0.142-0.047 0.277-0.103 0.411-0.166l0.206 0.206c0.261 0.261 0.688 0.261 0.949 0l0.736-0.736c0.261-0.261 0.261-0.688 0-0.949l-0.206-0.206c0.063-0.134 0.119-0.269 0.166-0.411h0.285c0.372 0 0.673-0.301 0.673-0.673v-1.044c0-0.372-0.301-0.673-0.673-0.673zM19.934 14.835c0 0.15-0.127 0.277-0.277 0.277h-0.435c-0.087 0-0.166 0.055-0.19 0.142-0.063 0.214-0.15 0.419-0.253 0.609-0.040 0.079-0.024 0.174 0.032 0.237l0.309 0.309c0.111 0.111 0.111 0.285 0 0.396l-0.736 0.736c-0.111 0.111-0.285 0.111-0.396 0l-0.309-0.309c-0.063-0.063-0.158-0.079-0.237-0.032-0.19 0.103-0.396 0.19-0.609 0.253-0.087 0.024-0.142 0.103-0.142 0.19v0.435c0 0.15-0.127 0.277-0.277 0.277h-1.044c-0.15 0-0.277-0.127-0.277-0.277v-0.435c0-0.087-0.055-0.166-0.142-0.19-0.214-0.063-0.419-0.15-0.609-0.253-0.032-0.016-0.063-0.024-0.095-0.024-0.047 0-0.103 0.024-0.142 0.055l-0.309 0.309c-0.111 0.111-0.285 0.111-0.396 0l-0.736-0.736c-0.111-0.111-0.111-0.285 0-0.396l0.309-0.309c0.063-0.063 0.079-0.158 0.032-0.237-0.103-0.19-0.19-0.396-0.253-0.609-0.024-0.087-0.103-0.142-0.19-0.142h-0.435c-0.15 0-0.277-0.127-0.277-0.277v-1.044c0-0.15 0.127-0.277 0.277-0.277h0.435c0.087 0 0.166-0.055 0.19-0.142 0.063-0.214 0.15-0.419 0.253-0.609 0.040-0.079 0.024-0.174-0.032-0.237l-0.309-0.309c-0.111-0.111-0.111-0.285 0-0.396l0.736-0.736c0.103-0.103 0.285-0.103 0.396 0l0.309 0.309c0.063 0.063 0.158 0.079 0.237 0.032 0.19-0.103 0.396-0.19 0.609-0.253 0.087-0.024 0.142-0.103 0.142-0.19v-0.435c0-0.15 0.127-0.277 0.277-0.277h1.044c0.15 0 0.277 0.127 0.277 0.277v0.435c0 0.087 0.055 0.166 0.142 0.19 0.214 0.063 0.419 0.15 0.609 0.253 0.079 0.040 0.174 0.024 0.237-0.032l0.309-0.309c0.111-0.111 0.285-0.111 0.396 0l0.736 0.736c0.055 0.055 0.079 0.119 0.079 0.198s-0.032 0.142-0.079 0.198l-0.309 0.309c-0.063 0.063-0.079 0.158-0.032 0.237 0.103 0.19 0.19 0.396 0.253 0.609 0.024 0.087 0.103 0.142 0.19 0.142h0.435c0.15 0 0.277 0.127 0.277 0.277v1.044zM14.087 14.305c0-0.997 0.815-1.812 1.812-1.812 1.005 0 1.812 0.815 1.812 1.812s-0.815 1.812-1.812 1.812c-0.997 0-1.812-0.815-1.812-1.812zM14.482 14.313c0 0.783 0.633 1.416 1.416 1.416s1.416-0.633 1.416-1.416c0-0.783-0.633-1.416-1.416-1.416s-1.416 0.633-1.416 1.416z"></path>
</symbol>
</defs>
</svg>
