<svg aria-hidden="true" style="position: absolute; width: 0; height: 0; overflow: hidden;" version="1.1" xmlns="http://www.w3.org/2000/svg" xmlns:xlink="http://www.w3.org/1999/xlink">
<defs>
<symbol id="icon-JS" viewBox="0 0 32 32">
<path d="M0.2 0l2.667 29.333 13.333 2.667 13.333-2.667 2.667-29.333h-32zM14.867 26.293l-7.050-1.408-0.444-4.885h2.678l0.241 2.661 1.907 0.38v-17.708h2.667v20.96h0zM26.117 8h-5.917v6.667h5.311l-0.928 10.219-7.050 1.408v-2.719l4.573-0.913 0.484-5.328h-5.058v-12h8.826l-0.242 2.666z"></path>
</symbol>
<symbol id="icon-PY" viewBox="0 0 32 32">
<path d="M16.171 0c-1.305 0.006-2.551 0.117-3.648 0.311-3.231 0.571-3.817 1.765-3.817 3.968v2.91h7.634v0.97h-10.499c-2.219 0-4.162 1.334-4.769 3.871-0.701 2.908-0.732 4.722 0 7.759 0.543 2.26 1.839 3.87 4.057 3.87h2.625v-3.488c0-2.52 2.18-4.742 4.769-4.742h7.625c2.123 0 3.817-1.748 3.817-3.879v-7.269c0-2.069-1.745-3.623-3.817-3.968-1.311-0.218-2.672-0.318-3.977-0.311zM12.043 2.34c0.789 0 1.433 0.655 1.433 1.459 0 0.802-0.644 1.45-1.433 1.45-0.791 0-1.432-0.648-1.432-1.45 0-0.805 0.641-1.459 1.432-1.459z"></path>
<path d="M24.918 8.159v3.39c0 2.628-2.228 4.84-4.769 4.84h-7.625c-2.089 0-3.817 1.788-3.817 3.879v7.269c0 2.069 1.799 3.286 3.817 3.879 2.417 0.711 4.734 0.839 7.625 0 1.922-0.556 3.817-1.676 3.817-3.879v-2.91h-7.625v-0.97h11.442c2.219 0 3.045-1.548 3.817-3.87 0.797-2.391 0.763-4.691 0-7.759-0.548-2.209-1.596-3.871-3.817-3.871l-2.865 0zM20.629 26.569c0.791 0 1.432 0.648 1.432 1.45 0 0.805-0.641 1.459-1.432 1.459-0.789 0-1.433-0.655-1.433-1.459-0-0.802 0.644-1.45 1.433-1.45z"></path>
</symbol>
<symbol id="icon-JAVA" viewBox="0 0 32 32">
<path d="M15.881 5.929c-1.479 1.040-3.154 2.219-4.052 4.169-1.56 3.402 3.191 7.113 3.394 7.27 0.047 0.036 0.106 0.056 0.165 0.054s0.117-0.023 0.163-0.061c0.046-0.038 0.077-0.091 0.089-0.15s0.003-0.119-0.024-0.172c-0.017-0.033-1.723-3.346-1.659-5.722 0.022-0.828 1.181-1.767 2.407-2.761 1.123-0.91 2.396-1.942 3.141-3.15 1.635-2.657-0.182-5.27-0.201-5.296-0.035-0.049-0.086-0.085-0.144-0.101s-0.12-0.011-0.175 0.013c-0.055 0.024-0.1 0.067-0.128 0.12s-0.036 0.115-0.023 0.174c0.004 0.017 0.357 1.745-0.626 3.525-0.405 0.736-1.296 1.362-2.326 2.087z"></path>
<path d="M22.111 7.101c0.050-0.038 0.086-0.093 0.099-0.155s0.004-0.126-0.027-0.182c-0.031-0.055-0.080-0.098-0.139-0.119s-0.125-0.021-0.184 0.001c-0.251 0.095-6.151 2.37-6.151 5.117 0 1.894 0.809 2.895 1.4 3.626 0.232 0.287 0.432 0.534 0.498 0.745 0.186 0.609-0.254 1.71-0.439 2.082-0.026 0.052-0.034 0.111-0.022 0.168s0.042 0.109 0.086 0.147c0.044 0.038 0.099 0.060 0.158 0.063s0.116-0.013 0.163-0.047c0.101-0.071 2.479-1.752 2.053-3.777-0.159-0.77-0.537-1.332-0.871-1.829-0.517-0.769-0.891-1.324-0.324-2.35 0.664-1.196 3.671-3.469 3.701-3.491z"></path>
<path d="M6.753 18.64c-0.101 0.303-0.053 0.603 0.138 0.869 0.64 0.888 2.905 1.377 6.379 1.377h0c0.471 0 0.968-0.009 1.477-0.028 5.555-0.199 7.615-1.929 7.7-2.003 0.045-0.039 0.075-0.092 0.086-0.15s0.002-0.119-0.026-0.171c-0.028-0.052-0.073-0.094-0.128-0.117s-0.116-0.028-0.173-0.012c-1.956 0.534-5.609 0.724-8.143 0.724-2.835 0-4.279-0.204-4.633-0.355 0.181-0.249 1.3-0.694 2.686-0.966 0.064-0.012 0.121-0.048 0.16-0.101s0.057-0.117 0.051-0.182-0.037-0.125-0.085-0.169c-0.048-0.044-0.112-0.068-0.177-0.068-0.813 0-4.888 0.065-5.314 1.353zM25.34 16.857c-1.146 0-2.232 0.574-2.278 0.599-0.051 0.028-0.092 0.072-0.116 0.125s-0.029 0.113-0.014 0.17c0.014 0.057 0.047 0.107 0.093 0.143s0.103 0.056 0.161 0.056c0.024 0 2.444 0.020 2.663 1.402 0.194 1.193-2.289 3.125-3.263 3.769-0.051 0.034-0.088 0.084-0.106 0.143s-0.014 0.121 0.009 0.177 0.066 0.103 0.12 0.131c0.054 0.028 0.116 0.037 0.176 0.024 0.231-0.049 5.65-1.244 5.077-4.399-0.35-1.934-1.565-2.34-2.523-2.34zM21.624 22.735c0.009-0.050 0.004-0.101-0.015-0.147s-0.051-0.087-0.092-0.116l-1.299-0.91c-0.031-0.022-0.067-0.037-0.105-0.043s-0.076-0.005-0.113 0.005c-0.014 0.004-1.372 0.361-3.345 0.58-0.783 0.088-1.66 0.134-2.536 0.134-1.972 0-3.262-0.232-3.45-0.402-0.025-0.048-0.017-0.069-0.013-0.082 0.034-0.095 0.217-0.208 0.335-0.252 0.063-0.023 0.114-0.069 0.144-0.129s0.035-0.129 0.016-0.193c-0.019-0.064-0.063-0.118-0.121-0.151s-0.127-0.043-0.192-0.027c-1.303 0.315-1.941 0.754-1.894 1.307 0.082 0.98 2.353 1.483 4.273 1.617 0.276 0.019 0.575 0.029 0.887 0.029h0.001c3.192 0 7.284-1.002 7.325-1.012 0.049-0.012 0.093-0.038 0.128-0.075s0.058-0.082 0.067-0.132zM11.827 24.839c0.048-0.031 0.084-0.077 0.104-0.131s0.021-0.112 0.004-0.167c-0.035-0.112-0.14-0.186-0.257-0.184-0.175 0.005-1.709 0.074-1.817 1.051-0.033 0.292 0.051 0.559 0.249 0.793 0.551 0.653 2.038 1.041 4.546 1.187 0.297 0.018 0.598 0.027 0.896 0.027 3.188 0 5.336-0.998 5.426-1.041 0.043-0.020 0.079-0.052 0.106-0.091s0.042-0.085 0.044-0.132c0.003-0.047-0.008-0.094-0.030-0.136s-0.055-0.077-0.095-0.102l-1.642-1.003c-0.057-0.035-0.125-0.046-0.19-0.033-0.010 0.002-1.053 0.218-2.627 0.432-0.298 0.040-0.671 0.061-1.108 0.061-1.572 0-3.32-0.257-3.656-0.425-0.005-0.032 0.001-0.071 0.048-0.106z"></path>
<path d="M14.065 30.428c7.303-0.006 11.223-1.305 11.978-2.122 0.267-0.289 0.296-0.563 0.273-0.742-0.056-0.44-0.457-0.709-0.502-0.739-0.11-0.070-0.257-0.052-0.342 0.047s-0.087 0.243-0.002 0.341c0.046 0.059 0.073 0.158-0.062 0.293-0.302 0.282-3.347 1.138-8.416 1.395-0.694 0.036-1.423 0.054-2.165 0.055-4.539 0-7.861-0.622-8.297-0.984 0.168-0.241 1.343-0.627 2.593-0.845 0.068-0.011 0.129-0.049 0.17-0.105s0.057-0.126 0.047-0.194c-0.011-0.068-0.048-0.13-0.103-0.171s-0.125-0.059-0.193-0.049c-0.035 0.005-0.155 0.012-0.293 0.020-2.062 0.126-4.444 0.407-4.569 1.469-0.038 0.324 0.058 0.618 0.286 0.873 0.557 0.626 2.157 1.457 9.597 1.457l0 0z"></path>
<path d="M27.478 28.536c-0.050-0.023-0.106-0.030-0.161-0.019s-0.104 0.038-0.141 0.079c-0.011 0.012-1.109 1.16-4.41 1.834-1.264 0.253-3.636 0.382-7.052 0.382-3.422 0-6.677-0.135-6.71-0.136-0.065-0.003-0.129 0.018-0.179 0.060s-0.083 0.101-0.091 0.166c-0.009 0.065 0.006 0.13 0.043 0.184s0.092 0.092 0.156 0.107c0.034 0.008 3.446 0.807 8.111 0.807 2.238 0 4.415-0.182 6.472-0.54 3.835-0.672 4.104-2.574 4.113-2.655 0.006-0.055-0.005-0.111-0.032-0.159s-0.069-0.087-0.119-0.11z"></path>
</symbol>
<symbol id="icon-NET" viewBox="0 0 32 32">
<path d="M4.503 10.088v11.665h1.364v-8.433c0.014-0.534-0.008-1.069-0.065-1.6h0.051c0.098 0.256 0.222 0.5 0.371 0.73l5.996 9.303h1.676v-11.665h-1.362v8.203c-0.012 0.573 0.015 1.146 0.083 1.715h-0.031c-0.073-0.141-0.231-0.4-0.474-0.78l-5.836-9.138-1.772-0zM16.923 10.088v11.665h6.2l0.006-1.28h-4.812v-4.044h4.211v-1.229h-4.211v-3.878h4.518v-1.235l-5.913-0zM24.173 10.088v1.235h3.353v10.431h1.362v-10.431h3.392v-1.235h-8.107zM1.151 20.089c-0.115 0.003-0.228 0.029-0.332 0.076s-0.199 0.115-0.276 0.199c-0.084 0.084-0.15 0.184-0.195 0.294s-0.068 0.227-0.067 0.346c-0.002 0.119 0.021 0.237 0.066 0.347s0.112 0.21 0.196 0.293c0.082 0.087 0.182 0.155 0.292 0.201s0.229 0.069 0.348 0.067c0.119 0.001 0.237-0.023 0.347-0.069s0.209-0.114 0.292-0.2c0.086-0.083 0.154-0.182 0.2-0.292s0.069-0.228 0.068-0.348c0-0.119-0.023-0.237-0.069-0.347s-0.114-0.209-0.199-0.293c-0.082-0.087-0.181-0.156-0.291-0.204s-0.229-0.072-0.348-0.071c-0.010-0-0.021-0-0.031 0z"></path>
</symbol>
<symbol id="icon-PHP" viewBox="0 0 32 32">
<path d="M10.859 14.229c0.152 0.169 0.181 0.524 0.083 1.028-0.11 0.564-0.314 0.964-0.605 1.189-0.298 0.23-0.785 0.347-1.444 0.347h-0.696l0.551-2.836h0.973c0.777 0 1.046 0.171 1.138 0.272z"></path>
<path d="M12.742 13.116c-0.487-0.558-1.263-0.837-2.326-0.837h-3.533l-1.639 8.435h1.838l0.436-2.243h1.574c0.695 0 1.266-0.073 1.714-0.219s0.857-0.39 1.223-0.733c0.308-0.283 0.557-0.596 0.748-0.937s0.326-0.718 0.406-1.129c0.194-1 0.048-1.779-0.44-2.337zM11.283 15.323c-0.127 0.653-0.372 1.119-0.735 1.398s-0.914 0.419-1.655 0.419h-1.118l0.686-3.53h1.259c0.698 0 1.163 0.128 1.395 0.386s0.288 0.7 0.166 1.327z"></path>
<path d="M19.83 12.814c-0.388-0.356-1.093-0.535-2.114-0.535h-1.624l0.436-2.242h-1.823l-1.639 8.434h1.823l0.939-4.832h1.457c0.466 0 0.772 0.077 0.915 0.232s0.173 0.444 0.091 0.869l-0.725 3.732h1.852l0.763-3.925c0.155-0.798 0.039-1.376-0.349-1.733zM19.83 12.814c-0.388-0.356-1.093-0.535-2.114-0.535h-1.624l0.436-2.242h-1.823l-1.639 8.434h1.823l0.939-4.832h1.457c0.466 0 0.772 0.077 0.915 0.232s0.173 0.444 0.091 0.869l-0.725 3.732h1.852l0.763-3.925c0.155-0.798 0.039-1.376-0.349-1.733zM19.83 12.814c-0.388-0.356-1.093-0.535-2.114-0.535h-1.624l0.436-2.242h-1.823l-1.639 8.434h1.823l0.939-4.832h1.457c0.466 0 0.772 0.077 0.915 0.232s0.173 0.444 0.091 0.869l-0.725 3.732h1.852l0.763-3.925c0.155-0.798 0.039-1.376-0.349-1.733zM27.083 13.116c-0.487-0.558-1.263-0.837-2.325-0.837h-3.534l-1.639 8.435h1.837l0.436-2.243h1.574c0.695 0 1.266-0.073 1.715-0.219s0.856-0.39 1.223-0.733c0.308-0.283 0.557-0.596 0.748-0.937s0.326-0.718 0.406-1.129c0.195-1 0.048-1.779-0.44-2.337zM25.623 15.323c-0.127 0.653-0.372 1.119-0.734 1.398s-0.915 0.419-1.655 0.419h-1.118l0.686-3.53h1.259c0.698 0 1.163 0.128 1.396 0.386s0.287 0.7 0.166 1.327zM24.062 13.957h-0.973l-0.551 2.836h0.696c0.659 0 1.144-0.116 1.443-0.347 0.292-0.225 0.496-0.625 0.605-1.189 0.098-0.504 0.069-0.859-0.083-1.028-0.092-0.101-0.362-0.272-1.138-0.272zM27.083 13.116c-0.487-0.558-1.263-0.837-2.325-0.837h-3.534l-1.639 8.435h1.837l0.436-2.243h1.574c0.695 0 1.266-0.073 1.715-0.219s0.856-0.39 1.223-0.733c0.308-0.283 0.557-0.596 0.748-0.937s0.326-0.718 0.406-1.129c0.195-1 0.048-1.779-0.44-2.337zM25.623 15.323c-0.127 0.653-0.372 1.119-0.734 1.398s-0.915 0.419-1.655 0.419h-1.118l0.686-3.53h1.259c0.698 0 1.163 0.128 1.396 0.386s0.287 0.7 0.166 1.327zM24.062 13.957h-0.973l-0.551 2.836h0.696c0.659 0 1.144-0.116 1.443-0.347 0.292-0.225 0.496-0.625 0.605-1.189 0.098-0.504 0.069-0.859-0.083-1.028-0.092-0.101-0.362-0.272-1.138-0.272zM19.83 12.814c-0.388-0.356-1.093-0.535-2.114-0.535h-1.624l0.436-2.242h-1.823l-1.639 8.434h1.823l0.939-4.832h1.457c0.466 0 0.772 0.077 0.915 0.232s0.173 0.444 0.091 0.869l-0.725 3.732h1.852l0.763-3.925c0.155-0.798 0.039-1.376-0.349-1.733zM27.514 10.049c-2.895-1.523-6.896-2.465-11.313-2.465s-8.419 0.942-11.314 2.465c-2.895 1.523-4.686 3.627-4.686 5.951 0 4.648 7.164 8.416 16 8.416 4.418 0 8.418-0.942 11.313-2.465s4.686-3.627 4.686-5.951c0-2.325-1.791-4.428-4.686-5.951zM27.864 15.519c-0.087 0.446-0.236 0.86-0.444 1.233s-0.482 0.715-0.814 1.021c-0.403 0.377-0.858 0.649-1.352 0.81-0.481 0.156-1.094 0.236-1.822 0.236h-1.287l-0.381 1.961c-0.015 0.079-0.058 0.15-0.12 0.202s-0.14 0.079-0.221 0.079h-1.837c-0.051-0-0.102-0.011-0.148-0.033s-0.087-0.053-0.12-0.093c-0.032-0.040-0.056-0.086-0.068-0.135s-0.014-0.101-0.004-0.152l0.367-1.889c-0.056 0.038-0.123 0.060-0.195 0.060h-1.852c-0.104 0-0.202-0.046-0.268-0.126-0.033-0.040-0.056-0.086-0.068-0.135s-0.014-0.101-0.004-0.152l0.725-3.732c0.071-0.367 0.028-0.531-0.005-0.566-0.004-0.005-0.118-0.121-0.66-0.121h-1.171l-0.884 4.551c-0.015 0.079-0.058 0.15-0.12 0.202s-0.14 0.079-0.221 0.079h-1.823c-0.104 0-0.202-0.046-0.268-0.126s-0.093-0.185-0.073-0.287l0.305-1.568c-0.201 0.339-0.458 0.654-0.765 0.937-0.402 0.376-0.857 0.648-1.352 0.809-0.481 0.156-1.093 0.236-1.822 0.236h-1.287l-0.382 1.961c-0.015 0.079-0.058 0.15-0.12 0.202s-0.14 0.079-0.221 0.079h-1.838c-0.051-0-0.102-0.011-0.148-0.033s-0.087-0.053-0.12-0.093c-0.032-0.040-0.056-0.086-0.068-0.135s-0.014-0.101-0.004-0.152l1.639-8.434c0.015-0.079 0.058-0.15 0.12-0.202s0.14-0.079 0.221-0.079h3.533c1.163 0 2.034 0.321 2.587 0.956 0.292 0.334 0.479 0.735 0.56 1.199l0.8-4.116c0.015-0.079 0.058-0.15 0.12-0.202s0.14-0.079 0.221-0.079h1.823c0.104 0 0.202 0.046 0.268 0.126 0.033 0.040 0.056 0.086 0.069 0.135s0.014 0.102 0.004 0.152l-0.355 1.829h1.203c1.122 0 1.89 0.205 2.349 0.626 0.315 0.289 0.489 0.685 0.521 1.183l0.297-1.527c0.031-0.163 0.175-0.281 0.34-0.281h3.534c1.163 0 2.033 0.321 2.587 0.956 0.559 0.64 0.734 1.526 0.519 2.631zM24.757 12.279h-3.534l-1.639 8.435h1.837l0.436-2.243h1.574c0.695 0 1.266-0.073 1.715-0.219s0.856-0.39 1.223-0.733c0.308-0.283 0.557-0.596 0.748-0.937s0.326-0.718 0.406-1.129c0.195-1 0.048-1.779-0.44-2.337s-1.263-0.837-2.325-0.837zM25.623 15.323c-0.127 0.653-0.372 1.119-0.734 1.398s-0.915 0.419-1.655 0.419h-1.118l0.686-3.53h1.259c0.698 0 1.163 0.128 1.396 0.386s0.287 0.7 0.166 1.327zM24.062 13.957h-0.973l-0.551 2.836h0.696c0.659 0 1.144-0.116 1.443-0.347 0.292-0.225 0.496-0.625 0.605-1.189 0.098-0.504 0.069-0.859-0.083-1.028-0.092-0.101-0.362-0.272-1.138-0.272zM19.83 12.814c-0.388-0.356-1.093-0.535-2.114-0.535h-1.624l0.436-2.242h-1.823l-1.639 8.434h1.823l0.939-4.832h1.457c0.466 0 0.772 0.077 0.915 0.232s0.173 0.444 0.091 0.869l-0.725 3.732h1.852l0.763-3.925c0.155-0.798 0.039-1.376-0.349-1.733zM19.83 12.814c-0.388-0.356-1.093-0.535-2.114-0.535h-1.624l0.436-2.242h-1.823l-1.639 8.434h1.823l0.939-4.832h1.457c0.466 0 0.772 0.077 0.915 0.232s0.173 0.444 0.091 0.869l-0.725 3.732h1.852l0.763-3.925c0.155-0.798 0.039-1.376-0.349-1.733zM19.83 12.814c-0.388-0.356-1.093-0.535-2.114-0.535h-1.624l0.436-2.242h-1.823l-1.639 8.434h1.823l0.939-4.832h1.457c0.466 0 0.772 0.077 0.915 0.232s0.173 0.444 0.091 0.869l-0.725 3.732h1.852l0.763-3.925c0.155-0.798 0.039-1.376-0.349-1.733z"></path>
</symbol>
<symbol id="icon-C" viewBox="0 0 32 32">
<path d="M29.977 8c-0.223-0.387-0.531-0.724-0.87-0.92l-11.756-6.787c-0.677-0.391-1.785-0.391-2.463 0l-11.755 6.787c-0.677 0.391-1.231 1.351-1.231 2.133v13.574c0 0.391 0.139 0.827 0.362 1.213l-0 0c0.223 0.386 0.531 0.724 0.87 0.92l11.755 6.787c0.677 0.391 1.785 0.391 2.463 0l11.756-6.787c0.339-0.196 0.646-0.533 0.87-0.92s0.362-0.822 0.362-1.213v-13.574c0-0.391-0.138-0.826-0.362-1.213l-0-0zM16.121 25.479c-5.227 0-9.479-4.252-9.479-9.479s4.252-9.479 9.479-9.479c3.373 0 6.518 1.815 8.209 4.736l-4.102 2.374c-0.846-1.462-2.42-2.371-4.106-2.371-2.613 0-4.739 2.126-4.739 4.739s2.126 4.739 4.739 4.739c1.687 0 3.26-0.908 4.107-2.371l4.102 2.374c-1.691 2.922-4.836 4.737-8.209 4.737zM25.6 15.473h-1.053v-1.053h-1.053v1.053h-1.053v1.053h1.053v1.053h1.053v-1.053h1.053v-1.053zM29.55 15.473h-1.053v-1.053h-1.053v1.053h-1.053v1.053h1.053v1.053h1.053v-1.053h1.053v-1.053z"></path>
</symbol>
</defs>
</svg>
