<svg width="32" height="32" viewBox="0 0 32 32" fill="none" xmlns="http://www.w3.org/2000/svg">
<path d="M26.9998 15.0123H7.41379L14.7068 7.71929C14.8023 7.62704 14.8785 7.5167 14.9309 7.39469C14.9833 7.27269 15.0109 7.14147 15.012 7.00869C15.0132 6.87591 14.9879 6.74423 14.9376 6.62133C14.8873 6.49844 14.8131 6.38679 14.7192 6.29289C14.6253 6.199 14.5136 6.12475 14.3907 6.07447C14.2678 6.02419 14.1362 5.99888 14.0034 6.00004C13.8706 6.00119 13.7394 6.02878 13.6174 6.08119C13.4954 6.1336 13.385 6.20978 13.2928 6.30529L4.29279 15.3053C4.10532 15.4928 4 15.7471 4 16.0123C4 16.2775 4.10532 16.5318 4.29279 16.7193L13.2928 25.7193C13.4814 25.9014 13.734 26.0022 13.9962 26C14.2584 25.9977 14.5092 25.8925 14.6946 25.7071C14.88 25.5217 14.9852 25.2709 14.9875 25.0087C14.9897 24.7465 14.8889 24.4939 14.7068 24.3053L7.41379 17.0123H26.9998C27.265 17.0123 27.5194 16.9069 27.7069 16.7194C27.8944 16.5319 27.9998 16.2775 27.9998 16.0123C27.9998 15.7471 27.8944 15.4927 27.7069 15.3052C27.5194 15.1176 27.265 15.0123 26.9998 15.0123Z" fill="white"/>
</svg>
