<svg width="32" height="32" viewBox="0 0 32 32" fill="none" xmlns="http://www.w3.org/2000/svg">
<path fill-rule="evenodd" clip-rule="evenodd" d="M18 6C17.7349 6 17.4806 6.10532 17.293 6.29279C17.1056 6.48031 17.0002 6.73462 17.0002 6.99979C17.0002 7.26495 17.1056 7.51926 17.293 7.70679L24.586 14.9998H5C4.73478 14.9998 4.48043 15.1051 4.29289 15.2926C4.10536 15.4802 4 15.7345 4 15.9998C4 16.265 4.10536 16.5193 4.29289 16.7069C4.48043 16.8944 4.73478 16.9998 5 16.9998H24.5861L17.293 24.2928C17.1109 24.4814 17.0101 24.734 17.0124 24.9962C17.0146 25.2584 17.1198 25.5092 17.3052 25.6946C17.4906 25.88 17.7414 25.9852 18.0036 25.9875C18.2658 25.9897 18.5184 25.8889 18.707 25.7068L27.6966 16.7172C27.7002 16.7138 27.7036 16.7103 27.7071 16.7069C27.8946 16.5193 28 16.265 28 15.9998C28 15.7345 27.8946 15.4802 27.7071 15.2926C27.703 15.2885 27.6989 15.2845 27.6947 15.2805L18.707 6.29279C18.5195 6.10532 18.2652 6 18 6Z" fill="white"/>
</svg>
