<svg width="32" height="32" viewBox="0 0 32 32" fill="none" xmlns="http://www.w3.org/2000/svg">
<path fill-rule="evenodd" clip-rule="evenodd" d="M18 6.00024C17.7349 6.00024 17.4806 6.10556 17.293 6.29303C17.1056 6.48056 17.0002 6.73487 17.0002 7.00003C17.0002 7.26519 17.1056 7.5195 17.293 7.70703L24.586 15H5C4.73478 15 4.48043 15.1054 4.29289 15.2929C4.10536 15.4804 4 15.7348 4 16C4 16.2652 4.10536 16.5196 4.29289 16.7071C4.48043 16.8946 4.73478 17 5 17H24.5861L17.293 24.293C17.1109 24.4816 17.0101 24.7342 17.0124 24.9964C17.0146 25.2586 17.1198 25.5094 17.3052 25.6948C17.4906 25.8803 17.7414 25.9854 18.0036 25.9877C18.2658 25.99 18.5184 25.8892 18.707 25.707L27.6966 16.7174C27.7002 16.714 27.7036 16.7106 27.7071 16.7071C27.8946 16.5196 28 16.2652 28 16C28 15.7348 27.8946 15.4804 27.7071 15.2929C27.703 15.2888 27.6989 15.2847 27.6947 15.2807L18.707 6.29303C18.5195 6.10556 18.2652 6.00024 18 6.00024Z" fill="url(#paint0_radial_644_2411)"/>
<path fill-rule="evenodd" clip-rule="evenodd" d="M18 6.00024C17.7349 6.00024 17.4806 6.10556 17.293 6.29303C17.1056 6.48056 17.0002 6.73487 17.0002 7.00003C17.0002 7.26519 17.1056 7.5195 17.293 7.70703L24.586 15H5C4.73478 15 4.48043 15.1054 4.29289 15.2929C4.10536 15.4804 4 15.7348 4 16C4 16.2652 4.10536 16.5196 4.29289 16.7071C4.48043 16.8946 4.73478 17 5 17H24.5861L17.293 24.293C17.1109 24.4816 17.0101 24.7342 17.0124 24.9964C17.0146 25.2586 17.1198 25.5094 17.3052 25.6948C17.4906 25.8803 17.7414 25.9854 18.0036 25.9877C18.2658 25.99 18.5184 25.8892 18.707 25.707L27.6966 16.7174C27.7002 16.714 27.7036 16.7106 27.7071 16.7071C27.8946 16.5196 28 16.2652 28 16C28 15.7348 27.8946 15.4804 27.7071 15.2929C27.703 15.2888 27.6989 15.2847 27.6947 15.2807L18.707 6.29303C18.5195 6.10556 18.2652 6.00024 18 6.00024Z" fill="url(#paint1_radial_644_2411)"/>
<defs>
<radialGradient id="paint0_radial_644_2411" cx="0" cy="0" r="1" gradientUnits="userSpaceOnUse" gradientTransform="translate(4 25.9877) rotate(-31.7782) scale(32.7474 30.6141)">
<stop stop-color="#66D2FD"/>
<stop offset="0.25" stop-color="#91DDFF"/>
<stop offset="0.5" stop-color="#ED50B9"/>
<stop offset="0.75" stop-color="#F8086E"/>
<stop offset="0.940085" stop-color="#FF5546"/>
</radialGradient>
<radialGradient id="paint1_radial_644_2411" cx="0" cy="0" r="1" gradientUnits="userSpaceOnUse" gradientTransform="translate(5.61877 12.9754) rotate(38.2994) scale(26.0079 14.171)">
<stop offset="0.0149216" stop-color="#6843E7"/>
<stop offset="0.860954" stop-color="#6843E7" stop-opacity="0"/>
</radialGradient>
</defs>
</svg>
