<svg width="81" height="80" viewBox="0 0 81 80" fill="none" xmlns="http://www.w3.org/2000/svg">
<path fill-rule="evenodd" clip-rule="evenodd" d="M74.9423 19.9999C74.3842 19.0334 73.6146 18.1893 72.7682 17.7005L43.3794 0.733218C41.6865 -0.244406 38.9158 -0.244406 37.2228 0.733218L7.83406 17.7007C6.14088 18.678 4.75586 21.0775 4.75586 23.0325V56.9675C4.75586 57.9451 5.10228 59.0338 5.66028 60L5.66016 60.0002C6.21788 60.9664 6.98767 61.8107 7.83403 62.2992L37.2228 79.2667C38.9158 80.2443 41.6864 80.2443 43.3793 79.2667L72.7682 62.2992C73.6147 61.8104 74.3842 60.9664 74.9421 59.9999C75.4999 59.0337 75.8466 57.945 75.8466 56.9673V23.0323C75.8466 22.0546 75.5005 20.9662 74.9424 20L74.942 20L74.9423 19.9999ZM40.3024 63.6966C27.2359 63.6966 16.6055 53.0662 16.6055 39.9996C16.6055 26.9331 27.2359 16.3027 40.3024 16.3027C48.7338 16.3027 56.5973 20.84 60.8237 28.1438L50.5684 34.0783C48.4531 30.4225 44.5192 28.1513 40.3025 28.1513C33.7692 28.1513 28.454 33.4663 28.454 39.9996C28.454 46.5328 33.7691 51.848 40.3025 51.848C44.5196 51.848 48.4536 49.5768 50.5692 45.9204L60.8245 51.8546C56.5979 59.1591 48.7342 63.6966 40.3024 63.6966ZM64.0005 38.6836H61.3674V36.0508H58.7347V38.6836H56.1016V41.3166H58.7347V43.9498H61.3674V41.3166H64.0005V38.6836ZM73.8741 38.6836H71.241V36.0508H68.6083V38.6836H65.9752V41.3166H68.6083V43.9498H71.241V41.3166H73.8741V38.6836Z" fill="#4F4F4F"/>
</svg>
