<svg width="192" height="192" viewBox="0 0 192 192" fill="none" xmlns="http://www.w3.org/2000/svg">
<path fill-rule="evenodd" clip-rule="evenodd" d="M93.8854 34.3984C80.4482 34.3984 69.2065 43.1611 69.2065 54.4213V97.7957C69.2065 101.972 64.8898 105.709 59.0879 105.709C53.286 105.709 48.9693 101.972 48.9693 97.7957C48.9693 97.26 48.535 96.8257 47.9993 96.8257C47.4636 96.8257 47.0293 97.26 47.0293 97.7957C47.0293 103.422 52.6372 107.649 59.0879 107.649C65.5387 107.649 71.1465 103.422 71.1465 97.7957V54.4213C71.1465 44.6071 81.102 36.3384 93.8854 36.3384C106.669 36.3384 116.624 44.6071 116.624 54.4213V82.5514H105.586C97.2115 82.5514 90.3418 89.3544 90.3418 97.7957V112.866V135.105C90.3418 148.198 100.944 158.865 114.102 158.865H121.147C134.24 158.865 144.908 148.201 144.846 135.103V113.206C144.885 113.101 144.907 112.986 144.907 112.866C144.907 112.747 144.885 112.632 144.846 112.526V97.7957C144.846 89.4211 138.043 82.5514 129.601 82.5514H118.564V54.4213C118.564 43.1611 107.323 34.3984 93.8854 34.3984ZM116.624 84.4914H105.586C98.2775 84.4914 92.2818 90.4312 92.2818 97.7957V111.896H116.624V89.2188V84.4914ZM118.564 111.896V89.2188V84.4914H129.601C136.966 84.4914 142.906 90.4871 142.906 97.7957V111.896H118.564ZM142.906 135.105V113.836H92.2818V135.105C92.2818 147.13 102.019 156.925 114.102 156.925H121.147C133.171 156.925 142.964 147.128 142.906 135.11L142.906 135.105Z" fill="url(#paint0_radial_1829_30)"/>
<path fill-rule="evenodd" clip-rule="evenodd" d="M93.8854 34.3984C80.4482 34.3984 69.2065 43.1611 69.2065 54.4213V97.7957C69.2065 101.972 64.8898 105.709 59.0879 105.709C53.286 105.709 48.9693 101.972 48.9693 97.7957C48.9693 97.26 48.535 96.8257 47.9993 96.8257C47.4636 96.8257 47.0293 97.26 47.0293 97.7957C47.0293 103.422 52.6372 107.649 59.0879 107.649C65.5387 107.649 71.1465 103.422 71.1465 97.7957V54.4213C71.1465 44.6071 81.102 36.3384 93.8854 36.3384C106.669 36.3384 116.624 44.6071 116.624 54.4213V82.5514H105.586C97.2115 82.5514 90.3418 89.3544 90.3418 97.7957V112.866V135.105C90.3418 148.198 100.944 158.865 114.102 158.865H121.147C134.24 158.865 144.908 148.201 144.846 135.103V113.206C144.885 113.101 144.907 112.986 144.907 112.866C144.907 112.747 144.885 112.632 144.846 112.526V97.7957C144.846 89.4211 138.043 82.5514 129.601 82.5514H118.564V54.4213C118.564 43.1611 107.323 34.3984 93.8854 34.3984ZM116.624 84.4914H105.586C98.2775 84.4914 92.2818 90.4312 92.2818 97.7957V111.896H116.624V89.2188V84.4914ZM118.564 111.896V89.2188V84.4914H129.601C136.966 84.4914 142.906 90.4871 142.906 97.7957V111.896H118.564ZM142.906 135.105V113.836H92.2818V135.105C92.2818 147.13 102.019 156.925 114.102 156.925H121.147C133.171 156.925 142.964 147.128 142.906 135.11L142.906 135.105Z" fill="url(#paint1_radial_1829_30)"/>
<path fill-rule="evenodd" clip-rule="evenodd" d="M93.8854 34.3984C80.4482 34.3984 69.2065 43.1611 69.2065 54.4213V97.7957C69.2065 101.972 64.8898 105.709 59.0879 105.709C53.286 105.709 48.9693 101.972 48.9693 97.7957C48.9693 97.26 48.535 96.8257 47.9993 96.8257C47.4636 96.8257 47.0293 97.26 47.0293 97.7957C47.0293 103.422 52.6372 107.649 59.0879 107.649C65.5387 107.649 71.1465 103.422 71.1465 97.7957V54.4213C71.1465 44.6071 81.102 36.3384 93.8854 36.3384C106.669 36.3384 116.624 44.6071 116.624 54.4213V82.5514H105.586C97.2115 82.5514 90.3418 89.3544 90.3418 97.7957V112.866V135.105C90.3418 148.198 100.944 158.865 114.102 158.865H121.147C134.24 158.865 144.908 148.201 144.846 135.103V113.206C144.885 113.101 144.907 112.986 144.907 112.866C144.907 112.747 144.885 112.632 144.846 112.526V97.7957C144.846 89.4211 138.043 82.5514 129.601 82.5514H118.564V54.4213C118.564 43.1611 107.323 34.3984 93.8854 34.3984ZM116.624 84.4914H105.586C98.2775 84.4914 92.2818 90.4312 92.2818 97.7957V111.896H116.624V89.2188V84.4914ZM118.564 111.896V89.2188V84.4914H129.601C136.966 84.4914 142.906 90.4871 142.906 97.7957V111.896H118.564ZM142.906 135.105V113.836H92.2818V135.105C92.2818 147.13 102.019 156.925 114.102 156.925H121.147C133.171 156.925 142.964 147.128 142.906 135.11L142.906 135.105Z" fill="url(#paint2_radial_1829_30)"/>
<path fill-rule="evenodd" clip-rule="evenodd" d="M93.8854 34.3984C80.4482 34.3984 69.2065 43.1611 69.2065 54.4213V97.7957C69.2065 101.972 64.8898 105.709 59.0879 105.709C53.286 105.709 48.9693 101.972 48.9693 97.7957C48.9693 97.26 48.535 96.8257 47.9993 96.8257C47.4636 96.8257 47.0293 97.26 47.0293 97.7957C47.0293 103.422 52.6372 107.649 59.0879 107.649C65.5387 107.649 71.1465 103.422 71.1465 97.7957V54.4213C71.1465 44.6071 81.102 36.3384 93.8854 36.3384C106.669 36.3384 116.624 44.6071 116.624 54.4213V82.5514H105.586C97.2115 82.5514 90.3418 89.3544 90.3418 97.7957V112.866V135.105C90.3418 148.198 100.944 158.865 114.102 158.865H121.147C134.24 158.865 144.908 148.201 144.846 135.103V113.206C144.885 113.101 144.907 112.986 144.907 112.866C144.907 112.747 144.885 112.632 144.846 112.526V97.7957C144.846 89.4211 138.043 82.5514 129.601 82.5514H118.564V54.4213C118.564 43.1611 107.323 34.3984 93.8854 34.3984ZM116.624 84.4914H105.586C98.2775 84.4914 92.2818 90.4312 92.2818 97.7957V111.896H116.624V89.2188V84.4914ZM118.564 111.896V89.2188V84.4914H129.601C136.966 84.4914 142.906 90.4871 142.906 97.7957V111.896H118.564ZM142.906 135.105V113.836H92.2818V135.105C92.2818 147.13 102.019 156.925 114.102 156.925H121.147C133.171 156.925 142.964 147.128 142.906 135.11L142.906 135.105Z" fill="url(#paint3_radial_1829_30)"/>
<defs>
<radialGradient id="paint0_radial_1829_30" cx="0" cy="0" r="1" gradientUnits="userSpaceOnUse" gradientTransform="translate(47.0293 158.865) rotate(-43.4086) scale(156.277 162.917)">
<stop stop-color="#66D2FD"/>
<stop offset="0.25" stop-color="#91DDFF"/>
<stop offset="0.5" stop-color="#ED50B9"/>
<stop offset="0.75" stop-color="#F8086E"/>
<stop offset="0.940085" stop-color="#FF5546"/>
</radialGradient>
<radialGradient id="paint1_radial_1829_30" cx="0" cy="0" r="1" gradientUnits="userSpaceOnUse" gradientTransform="translate(53.631 77.8339) rotate(50.3321) scale(130.4 71.7785)">
<stop offset="0.0149216" stop-color="#6843E7"/>
<stop offset="0.860954" stop-color="#6843E7" stop-opacity="0"/>
</radialGradient>
<radialGradient id="paint2_radial_1829_30" cx="0" cy="0" r="1" gradientUnits="userSpaceOnUse" gradientTransform="translate(144.907 153.755) rotate(-99.7483) scale(93.236 74.6158)">
<stop stop-color="#FADAC7"/>
<stop offset="0.924249" stop-color="#FADAC7" stop-opacity="0"/>
</radialGradient>
<radialGradient id="paint3_radial_1829_30" cx="0" cy="0" r="1" gradientUnits="userSpaceOnUse" gradientTransform="translate(73.0056 158.865) scale(56.1146 62.3137)">
<stop stop-color="#65CDFC"/>
<stop offset="1" stop-color="#65CDFC" stop-opacity="0"/>
</radialGradient>
</defs>
</svg>
