<svg width="192" height="192" viewBox="0 0 192 192" fill="none" xmlns="http://www.w3.org/2000/svg">
<path fill-rule="evenodd" clip-rule="evenodd" d="M95.49 36.9775C94.9834 36.9775 94.5728 37.3882 94.5728 37.8948V53.5162L94.5725 53.5362V74.2392L77.4916 109.987L69.1276 94.5214C68.9675 94.2254 68.6582 94.0408 68.3218 94.0405C67.9853 94.0401 67.6756 94.2239 67.5149 94.5195L35.8264 152.799C35.5844 153.244 35.7491 153.801 36.1941 154.043C36.6392 154.285 37.1961 154.12 37.4381 153.675L68.3186 96.8819L76.5133 112.034L56.5999 153.71C56.3815 154.167 56.575 154.715 57.032 154.933C57.4891 155.152 58.0367 154.958 58.2551 154.501L95.4884 76.5774L132.722 154.501C132.94 154.958 133.488 155.152 133.945 154.933C134.402 154.715 134.596 154.167 134.377 153.71L114.523 112.158L122.834 96.8776L153.717 153.675C153.959 154.12 154.516 154.285 154.961 154.043C155.406 153.801 155.571 153.244 155.329 152.799L123.64 94.5195C123.48 94.2243 123.17 94.0405 122.834 94.0404C122.498 94.0404 122.189 94.2242 122.029 94.5194L113.546 110.114L96.407 74.2448V57.408H117.678C118.05 57.408 118.385 57.1833 118.526 56.8391C118.668 56.495 118.587 56.0996 118.322 55.8382L109.596 47.2197L118.324 38.5454C118.588 38.2835 118.667 37.8885 118.526 37.5451C118.384 37.2016 118.049 36.9775 117.678 36.9775H95.49ZM96.4073 55.5735V38.812H115.454L107.646 46.5711C107.473 46.7437 107.375 46.9784 107.376 47.2232C107.376 47.4679 107.474 47.7024 107.648 47.8743L115.444 55.5735H96.4073ZM58.4329 61.4441C57.3838 60.9851 56.1269 60.7172 54.7919 60.8499C51.2499 61.1741 48.539 64.2076 48.4562 67.695L48.3999 67.7091C48.3744 67.7155 48.3491 67.723 48.3242 67.7315C46.132 68.4851 44.4609 70.5497 44.4609 73.0596C44.4609 74.7582 45.142 76.322 46.2938 77.4738C47.4457 78.6256 49.0094 79.3066 50.708 79.3066H77.7619C81.223 79.3066 84.0088 76.5207 84.0088 73.0596C84.0088 72.9791 83.9982 72.8989 83.9773 72.8212C83.4927 71.0212 82.1762 69.6368 80.5171 69.0146C80.5065 69.0106 80.4958 69.0068 80.4851 69.0032C80.1284 68.8843 79.7563 68.7847 79.3587 68.7253C78.7026 65.8561 76.1219 63.6844 73.0694 63.6844C72.0058 63.6844 70.9706 63.9377 70.0698 64.4232C69.498 63.6096 68.7427 62.9241 67.825 62.4602C66.8608 61.9151 65.7236 61.6568 64.6115 61.6568C63.1033 61.6568 61.7123 62.1368 60.5914 62.9969C59.9875 62.3646 59.2755 61.8402 58.4558 61.4545C58.4482 61.4509 58.4406 61.4474 58.4329 61.4441ZM70.4047 66.3999C70.4545 66.3625 70.5001 66.3218 70.5339 66.2899C71.2271 65.7988 72.1145 65.5189 73.0694 65.5189C75.4288 65.5189 77.4186 67.3559 77.6606 69.6788C77.7093 70.1461 78.1031 70.501 78.5729 70.501C79.0185 70.501 79.4339 70.5878 79.8885 70.7381C80.9667 71.1478 81.824 72.0318 82.1727 73.1821C82.1084 75.5728 80.1689 77.4721 77.7619 77.4721H50.708C49.51 77.4721 48.4088 76.9944 47.591 76.1766C46.7731 75.3587 46.2954 74.2576 46.2954 73.0596C46.2954 71.4115 47.3879 70.0093 48.8852 69.4787C49.1114 69.4221 49.3837 69.3519 49.7162 69.2189C50.0644 69.0796 50.2928 68.7423 50.2928 68.3672V68.3669V68.3665V68.3662V68.3658V68.3655V68.3652V68.3648V68.3645V68.3641V68.3638V68.3634V68.363V68.3627V68.3623V68.362V68.3616V68.3613V68.3609V68.3605V68.3602V68.3598V68.3594V68.3591V68.3587V68.3583V68.3579V68.3576V68.3572V68.3568V68.3564V68.3561V68.3557V68.3553V68.3549V68.3545V68.3542V68.3538V68.3534V68.353V68.3526V68.3522V68.3518V68.3514V68.351V68.3506V68.3502V68.3498V68.3494V68.349V68.3486V68.3482V68.3478V68.3474V68.347V68.3466V68.3462V68.3458V68.3454V68.345V68.3446V68.3441V68.3437V68.3433V68.3429V68.3425V68.342V68.3416V68.3412V68.3408V68.3404V68.3399V68.3395V68.3391V68.3386V68.3382V68.3378V68.3373V68.3369V68.3365V68.336V68.3356V68.3352V68.3347V68.3343V68.3338V68.3334V68.3329V68.3325V68.3321V68.3316V68.3312V68.3307V68.3303V68.3298V68.3294V68.3289V68.3284V68.328V68.3275V68.3271V68.3266V68.3261V68.3257V68.3252V68.3248V68.3243V68.3238V68.3234V68.3229V68.3224V68.322V68.3215V68.321V68.3205V68.3201V68.3196V68.3191V68.3186V68.3182V68.3177V68.3172V68.3167V68.3162V68.3158V68.3153V68.3148V68.3143V68.3138V68.3133V68.3128V68.3123V68.3118V68.3114V68.3109V68.3104V68.3099V68.3094V68.3089V68.3084V68.3079V68.3074V68.3069V68.3064V68.3059V68.3054V68.3049V68.3044V68.3039V68.3033V68.3028V68.3023V68.3018V68.3013V68.3008V68.3003V68.2998V68.2992V68.2987V68.2982V68.2977V68.2972V68.2967V68.2961V68.2956V68.2951V68.2946V68.294V68.2935V68.293V68.2925V68.2919V68.2914V68.2909V68.2904V68.2898V68.2893V68.2888V68.2882V68.2877V68.2872V68.2866V68.2861V68.2855V68.285V68.2845V68.2839V68.2834V68.2828V68.2823V68.2817V68.2812V68.2807V68.2801V68.2796V68.279V68.2785V68.2779V68.2774V68.2768V68.2763V68.2757V68.2752V68.2746V68.274V68.2735V68.2729V68.2724V68.2718V68.2713V68.2707V68.2701V68.2696V68.269V68.2684V68.2679V68.2673V68.2667V68.2662V68.2656V68.265V68.2645V68.2639V68.2633V68.2628V68.2622V68.2616V68.261V68.2605V68.2599V68.2593V68.2587V68.2582V68.2576V68.257V68.2564V68.2559V68.2553V68.2547V68.2541V68.2535V68.2529V68.2524V68.2518V68.2512V68.2506V68.25V68.2494V68.2488V68.2482V68.2477V68.2471V68.2465V68.2459V68.2453V68.2447V68.2441V68.2435V68.2429V68.2423V68.2417V68.2411V68.2405V68.2399V68.2393V68.2387V68.2381V68.2375V68.2369V68.2363V68.2357V68.2351V68.2345V68.2339V68.2333V68.2327V68.2321V68.2315V68.2309V68.2303V68.2297V68.2291V68.2284V68.2278V68.2272V68.2266V68.226V68.2254V68.2248V68.2242V68.2235V68.2229V68.2223V68.2217V68.2211V68.2205V68.2198V68.2192V68.2186V68.218V68.2174V68.2167V68.2161V68.2155V68.2149V68.2143V68.2136V68.213V68.2124V68.2118V68.2111V68.2105V68.2099V68.2093V68.2086V68.208V68.2074V68.2067V68.2061V68.2055V68.2048V68.2042V68.2036V68.2029V68.2023V68.2017V68.201V68.2004V68.1998V68.1991V68.1985V68.1979V68.1972V68.1966V68.196V68.1953V68.1947V68.194V68.1934V68.1928V68.1921V68.1915V68.1908V68.1902V68.1896V68.1889V68.1883V68.1876V68.187V68.1863V68.1857V68.1851V68.1844V68.1838V68.1831V68.1825V68.1818V68.1812V68.1805V68.1799V68.1792V68.1786V68.1779V68.1773V68.1766V68.176V68.1753V68.1747V68.174V68.1734V68.1727V68.1721V68.1714V68.1708V68.1701V68.1695V68.1688V68.1681V68.1675V68.1668V68.1662V68.1655V68.1649V68.1642V68.1635V68.1629V68.1622V68.1616V68.1609V68.1603V68.1596V68.1589V68.1583V68.1576V68.157V68.1563V68.1556V68.155V68.1543V68.1536V68.153V68.1523V68.1517V68.151V68.1503V68.1497V68.149V68.1483V68.1477V68.147V68.1463V68.1457V68.145V68.1443V68.1437V68.143V68.1423V68.1417V68.141V68.1403V68.1397V68.139V68.1383V68.1377V68.137V68.1363V68.1357V68.135V68.1343V68.1337V68.133V68.1323V68.1316V68.131V68.1303V68.1296V68.129V68.1283V68.1276V68.1269V68.1263V68.1256V68.1249V68.1243V68.1236V68.1229V68.1222V68.1216V68.1209V68.1202V68.1195V68.1189V68.1182V68.1175V68.1168V68.1162V68.1155V68.1148V68.1141V68.1135V68.1128V68.1121V68.1114V68.1108V68.1101V68.1094V68.1087V68.1081V68.1074V68.1067V68.106V68.1054V68.1047V68.104V68.1033V68.1027V68.102V68.1013V68.1006V68.0999V68.0993V68.0986V68.0979V68.0972V68.0966V68.0959V68.0952V68.0945V68.0938V68.0932V68.0925V68.0918V68.0911V68.0905V68.0898V68.0891V68.0884V68.0877V68.0871V68.0864V68.0857V68.085V68.0843V68.0837V68.083V68.0823V68.0816V68.081V68.0803V68.0796V68.0789V68.0782V68.0776C50.2928 68.0725 50.2927 68.0675 50.2926 68.0625C50.2925 68.0564 50.2924 68.0503 50.2921 68.0442C50.1935 65.3321 52.2737 62.9209 54.962 62.6765L54.962 62.6765L54.9703 62.6757C55.9462 62.5781 56.8849 62.7713 57.686 63.1197C58.5168 63.5131 59.2074 64.1027 59.7586 64.8544C59.9195 65.0737 60.1693 65.2104 60.4407 65.2275C60.7122 65.2445 60.9772 65.1403 61.1642 64.9428C62.0314 64.0275 63.2378 63.4913 64.6115 63.4913C65.4606 63.4913 66.2839 63.6924 66.937 64.0656C66.9518 64.074 66.9667 64.082 66.9819 64.0896C67.8271 64.5122 68.5037 65.2262 68.9469 66.1126C69.1023 66.4233 69.4199 66.6196 69.7673 66.6196C70.0957 66.6196 70.3231 66.4611 70.4047 66.3999Z" fill="url(#paint0_radial_1829_309)"/>
<path fill-rule="evenodd" clip-rule="evenodd" d="M95.49 36.9775C94.9834 36.9775 94.5728 37.3882 94.5728 37.8948V53.5162L94.5725 53.5362V74.2392L77.4916 109.987L69.1276 94.5214C68.9675 94.2254 68.6582 94.0408 68.3218 94.0405C67.9853 94.0401 67.6756 94.2239 67.5149 94.5195L35.8264 152.799C35.5844 153.244 35.7491 153.801 36.1941 154.043C36.6392 154.285 37.1961 154.12 37.4381 153.675L68.3186 96.8819L76.5133 112.034L56.5999 153.71C56.3815 154.167 56.575 154.715 57.032 154.933C57.4891 155.152 58.0367 154.958 58.2551 154.501L95.4884 76.5774L132.722 154.501C132.94 154.958 133.488 155.152 133.945 154.933C134.402 154.715 134.596 154.167 134.377 153.71L114.523 112.158L122.834 96.8776L153.717 153.675C153.959 154.12 154.516 154.285 154.961 154.043C155.406 153.801 155.571 153.244 155.329 152.799L123.64 94.5195C123.48 94.2243 123.17 94.0405 122.834 94.0404C122.498 94.0404 122.189 94.2242 122.029 94.5194L113.546 110.114L96.407 74.2448V57.408H117.678C118.05 57.408 118.385 57.1833 118.526 56.8391C118.668 56.495 118.587 56.0996 118.322 55.8382L109.596 47.2197L118.324 38.5454C118.588 38.2835 118.667 37.8885 118.526 37.5451C118.384 37.2016 118.049 36.9775 117.678 36.9775H95.49ZM96.4073 55.5735V38.812H115.454L107.646 46.5711C107.473 46.7437 107.375 46.9784 107.376 47.2232C107.376 47.4679 107.474 47.7024 107.648 47.8743L115.444 55.5735H96.4073ZM58.4329 61.4441C57.3838 60.9851 56.1269 60.7172 54.7919 60.8499C51.2499 61.1741 48.539 64.2076 48.4562 67.695L48.3999 67.7091C48.3744 67.7155 48.3491 67.723 48.3242 67.7315C46.132 68.4851 44.4609 70.5497 44.4609 73.0596C44.4609 74.7582 45.142 76.322 46.2938 77.4738C47.4457 78.6256 49.0094 79.3066 50.708 79.3066H77.7619C81.223 79.3066 84.0088 76.5207 84.0088 73.0596C84.0088 72.9791 83.9982 72.8989 83.9773 72.8212C83.4927 71.0212 82.1762 69.6368 80.5171 69.0146C80.5065 69.0106 80.4958 69.0068 80.4851 69.0032C80.1284 68.8843 79.7563 68.7847 79.3587 68.7253C78.7026 65.8561 76.1219 63.6844 73.0694 63.6844C72.0058 63.6844 70.9706 63.9377 70.0698 64.4232C69.498 63.6096 68.7427 62.9241 67.825 62.4602C66.8608 61.9151 65.7236 61.6568 64.6115 61.6568C63.1033 61.6568 61.7123 62.1368 60.5914 62.9969C59.9875 62.3646 59.2755 61.8402 58.4558 61.4545C58.4482 61.4509 58.4406 61.4474 58.4329 61.4441ZM70.4047 66.3999C70.4545 66.3625 70.5001 66.3218 70.5339 66.2899C71.2271 65.7988 72.1145 65.5189 73.0694 65.5189C75.4288 65.5189 77.4186 67.3559 77.6606 69.6788C77.7093 70.1461 78.1031 70.501 78.5729 70.501C79.0185 70.501 79.4339 70.5878 79.8885 70.7381C80.9667 71.1478 81.824 72.0318 82.1727 73.1821C82.1084 75.5728 80.1689 77.4721 77.7619 77.4721H50.708C49.51 77.4721 48.4088 76.9944 47.591 76.1766C46.7731 75.3587 46.2954 74.2576 46.2954 73.0596C46.2954 71.4115 47.3879 70.0093 48.8852 69.4787C49.1114 69.4221 49.3837 69.3519 49.7162 69.2189C50.0644 69.0796 50.2928 68.7423 50.2928 68.3672V68.3669V68.3665V68.3662V68.3658V68.3655V68.3652V68.3648V68.3645V68.3641V68.3638V68.3634V68.363V68.3627V68.3623V68.362V68.3616V68.3613V68.3609V68.3605V68.3602V68.3598V68.3594V68.3591V68.3587V68.3583V68.3579V68.3576V68.3572V68.3568V68.3564V68.3561V68.3557V68.3553V68.3549V68.3545V68.3542V68.3538V68.3534V68.353V68.3526V68.3522V68.3518V68.3514V68.351V68.3506V68.3502V68.3498V68.3494V68.349V68.3486V68.3482V68.3478V68.3474V68.347V68.3466V68.3462V68.3458V68.3454V68.345V68.3446V68.3441V68.3437V68.3433V68.3429V68.3425V68.342V68.3416V68.3412V68.3408V68.3404V68.3399V68.3395V68.3391V68.3386V68.3382V68.3378V68.3373V68.3369V68.3365V68.336V68.3356V68.3352V68.3347V68.3343V68.3338V68.3334V68.3329V68.3325V68.3321V68.3316V68.3312V68.3307V68.3303V68.3298V68.3294V68.3289V68.3284V68.328V68.3275V68.3271V68.3266V68.3261V68.3257V68.3252V68.3248V68.3243V68.3238V68.3234V68.3229V68.3224V68.322V68.3215V68.321V68.3205V68.3201V68.3196V68.3191V68.3186V68.3182V68.3177V68.3172V68.3167V68.3162V68.3158V68.3153V68.3148V68.3143V68.3138V68.3133V68.3128V68.3123V68.3118V68.3114V68.3109V68.3104V68.3099V68.3094V68.3089V68.3084V68.3079V68.3074V68.3069V68.3064V68.3059V68.3054V68.3049V68.3044V68.3039V68.3033V68.3028V68.3023V68.3018V68.3013V68.3008V68.3003V68.2998V68.2992V68.2987V68.2982V68.2977V68.2972V68.2967V68.2961V68.2956V68.2951V68.2946V68.294V68.2935V68.293V68.2925V68.2919V68.2914V68.2909V68.2904V68.2898V68.2893V68.2888V68.2882V68.2877V68.2872V68.2866V68.2861V68.2855V68.285V68.2845V68.2839V68.2834V68.2828V68.2823V68.2817V68.2812V68.2807V68.2801V68.2796V68.279V68.2785V68.2779V68.2774V68.2768V68.2763V68.2757V68.2752V68.2746V68.274V68.2735V68.2729V68.2724V68.2718V68.2713V68.2707V68.2701V68.2696V68.269V68.2684V68.2679V68.2673V68.2667V68.2662V68.2656V68.265V68.2645V68.2639V68.2633V68.2628V68.2622V68.2616V68.261V68.2605V68.2599V68.2593V68.2587V68.2582V68.2576V68.257V68.2564V68.2559V68.2553V68.2547V68.2541V68.2535V68.2529V68.2524V68.2518V68.2512V68.2506V68.25V68.2494V68.2488V68.2482V68.2477V68.2471V68.2465V68.2459V68.2453V68.2447V68.2441V68.2435V68.2429V68.2423V68.2417V68.2411V68.2405V68.2399V68.2393V68.2387V68.2381V68.2375V68.2369V68.2363V68.2357V68.2351V68.2345V68.2339V68.2333V68.2327V68.2321V68.2315V68.2309V68.2303V68.2297V68.2291V68.2284V68.2278V68.2272V68.2266V68.226V68.2254V68.2248V68.2242V68.2235V68.2229V68.2223V68.2217V68.2211V68.2205V68.2198V68.2192V68.2186V68.218V68.2174V68.2167V68.2161V68.2155V68.2149V68.2143V68.2136V68.213V68.2124V68.2118V68.2111V68.2105V68.2099V68.2093V68.2086V68.208V68.2074V68.2067V68.2061V68.2055V68.2048V68.2042V68.2036V68.2029V68.2023V68.2017V68.201V68.2004V68.1998V68.1991V68.1985V68.1979V68.1972V68.1966V68.196V68.1953V68.1947V68.194V68.1934V68.1928V68.1921V68.1915V68.1908V68.1902V68.1896V68.1889V68.1883V68.1876V68.187V68.1863V68.1857V68.1851V68.1844V68.1838V68.1831V68.1825V68.1818V68.1812V68.1805V68.1799V68.1792V68.1786V68.1779V68.1773V68.1766V68.176V68.1753V68.1747V68.174V68.1734V68.1727V68.1721V68.1714V68.1708V68.1701V68.1695V68.1688V68.1681V68.1675V68.1668V68.1662V68.1655V68.1649V68.1642V68.1635V68.1629V68.1622V68.1616V68.1609V68.1603V68.1596V68.1589V68.1583V68.1576V68.157V68.1563V68.1556V68.155V68.1543V68.1536V68.153V68.1523V68.1517V68.151V68.1503V68.1497V68.149V68.1483V68.1477V68.147V68.1463V68.1457V68.145V68.1443V68.1437V68.143V68.1423V68.1417V68.141V68.1403V68.1397V68.139V68.1383V68.1377V68.137V68.1363V68.1357V68.135V68.1343V68.1337V68.133V68.1323V68.1316V68.131V68.1303V68.1296V68.129V68.1283V68.1276V68.1269V68.1263V68.1256V68.1249V68.1243V68.1236V68.1229V68.1222V68.1216V68.1209V68.1202V68.1195V68.1189V68.1182V68.1175V68.1168V68.1162V68.1155V68.1148V68.1141V68.1135V68.1128V68.1121V68.1114V68.1108V68.1101V68.1094V68.1087V68.1081V68.1074V68.1067V68.106V68.1054V68.1047V68.104V68.1033V68.1027V68.102V68.1013V68.1006V68.0999V68.0993V68.0986V68.0979V68.0972V68.0966V68.0959V68.0952V68.0945V68.0938V68.0932V68.0925V68.0918V68.0911V68.0905V68.0898V68.0891V68.0884V68.0877V68.0871V68.0864V68.0857V68.085V68.0843V68.0837V68.083V68.0823V68.0816V68.081V68.0803V68.0796V68.0789V68.0782V68.0776C50.2928 68.0725 50.2927 68.0675 50.2926 68.0625C50.2925 68.0564 50.2924 68.0503 50.2921 68.0442C50.1935 65.3321 52.2737 62.9209 54.962 62.6765L54.962 62.6765L54.9703 62.6757C55.9462 62.5781 56.8849 62.7713 57.686 63.1197C58.5168 63.5131 59.2074 64.1027 59.7586 64.8544C59.9195 65.0737 60.1693 65.2104 60.4407 65.2275C60.7122 65.2445 60.9772 65.1403 61.1642 64.9428C62.0314 64.0275 63.2378 63.4913 64.6115 63.4913C65.4606 63.4913 66.2839 63.6924 66.937 64.0656C66.9518 64.074 66.9667 64.082 66.9819 64.0896C67.8271 64.5122 68.5037 65.2262 68.9469 66.1126C69.1023 66.4233 69.4199 66.6196 69.7673 66.6196C70.0957 66.6196 70.3231 66.4611 70.4047 66.3999Z" fill="url(#paint1_radial_1829_309)"/>
<path fill-rule="evenodd" clip-rule="evenodd" d="M95.49 36.9775C94.9834 36.9775 94.5728 37.3882 94.5728 37.8948V53.5162L94.5725 53.5362V74.2392L77.4916 109.987L69.1276 94.5214C68.9675 94.2254 68.6582 94.0408 68.3218 94.0405C67.9853 94.0401 67.6756 94.2239 67.5149 94.5195L35.8264 152.799C35.5844 153.244 35.7491 153.801 36.1941 154.043C36.6392 154.285 37.1961 154.12 37.4381 153.675L68.3186 96.8819L76.5133 112.034L56.5999 153.71C56.3815 154.167 56.575 154.715 57.032 154.933C57.4891 155.152 58.0367 154.958 58.2551 154.501L95.4884 76.5774L132.722 154.501C132.94 154.958 133.488 155.152 133.945 154.933C134.402 154.715 134.596 154.167 134.377 153.71L114.523 112.158L122.834 96.8776L153.717 153.675C153.959 154.12 154.516 154.285 154.961 154.043C155.406 153.801 155.571 153.244 155.329 152.799L123.64 94.5195C123.48 94.2243 123.17 94.0405 122.834 94.0404C122.498 94.0404 122.189 94.2242 122.029 94.5194L113.546 110.114L96.407 74.2448V57.408H117.678C118.05 57.408 118.385 57.1833 118.526 56.8391C118.668 56.495 118.587 56.0996 118.322 55.8382L109.596 47.2197L118.324 38.5454C118.588 38.2835 118.667 37.8885 118.526 37.5451C118.384 37.2016 118.049 36.9775 117.678 36.9775H95.49ZM96.4073 55.5735V38.812H115.454L107.646 46.5711C107.473 46.7437 107.375 46.9784 107.376 47.2232C107.376 47.4679 107.474 47.7024 107.648 47.8743L115.444 55.5735H96.4073ZM58.4329 61.4441C57.3838 60.9851 56.1269 60.7172 54.7919 60.8499C51.2499 61.1741 48.539 64.2076 48.4562 67.695L48.3999 67.7091C48.3744 67.7155 48.3491 67.723 48.3242 67.7315C46.132 68.4851 44.4609 70.5497 44.4609 73.0596C44.4609 74.7582 45.142 76.322 46.2938 77.4738C47.4457 78.6256 49.0094 79.3066 50.708 79.3066H77.7619C81.223 79.3066 84.0088 76.5207 84.0088 73.0596C84.0088 72.9791 83.9982 72.8989 83.9773 72.8212C83.4927 71.0212 82.1762 69.6368 80.5171 69.0146C80.5065 69.0106 80.4958 69.0068 80.4851 69.0032C80.1284 68.8843 79.7563 68.7847 79.3587 68.7253C78.7026 65.8561 76.1219 63.6844 73.0694 63.6844C72.0058 63.6844 70.9706 63.9377 70.0698 64.4232C69.498 63.6096 68.7427 62.9241 67.825 62.4602C66.8608 61.9151 65.7236 61.6568 64.6115 61.6568C63.1033 61.6568 61.7123 62.1368 60.5914 62.9969C59.9875 62.3646 59.2755 61.8402 58.4558 61.4545C58.4482 61.4509 58.4406 61.4474 58.4329 61.4441ZM70.4047 66.3999C70.4545 66.3625 70.5001 66.3218 70.5339 66.2899C71.2271 65.7988 72.1145 65.5189 73.0694 65.5189C75.4288 65.5189 77.4186 67.3559 77.6606 69.6788C77.7093 70.1461 78.1031 70.501 78.5729 70.501C79.0185 70.501 79.4339 70.5878 79.8885 70.7381C80.9667 71.1478 81.824 72.0318 82.1727 73.1821C82.1084 75.5728 80.1689 77.4721 77.7619 77.4721H50.708C49.51 77.4721 48.4088 76.9944 47.591 76.1766C46.7731 75.3587 46.2954 74.2576 46.2954 73.0596C46.2954 71.4115 47.3879 70.0093 48.8852 69.4787C49.1114 69.4221 49.3837 69.3519 49.7162 69.2189C50.0644 69.0796 50.2928 68.7423 50.2928 68.3672V68.3669V68.3665V68.3662V68.3658V68.3655V68.3652V68.3648V68.3645V68.3641V68.3638V68.3634V68.363V68.3627V68.3623V68.362V68.3616V68.3613V68.3609V68.3605V68.3602V68.3598V68.3594V68.3591V68.3587V68.3583V68.3579V68.3576V68.3572V68.3568V68.3564V68.3561V68.3557V68.3553V68.3549V68.3545V68.3542V68.3538V68.3534V68.353V68.3526V68.3522V68.3518V68.3514V68.351V68.3506V68.3502V68.3498V68.3494V68.349V68.3486V68.3482V68.3478V68.3474V68.347V68.3466V68.3462V68.3458V68.3454V68.345V68.3446V68.3441V68.3437V68.3433V68.3429V68.3425V68.342V68.3416V68.3412V68.3408V68.3404V68.3399V68.3395V68.3391V68.3386V68.3382V68.3378V68.3373V68.3369V68.3365V68.336V68.3356V68.3352V68.3347V68.3343V68.3338V68.3334V68.3329V68.3325V68.3321V68.3316V68.3312V68.3307V68.3303V68.3298V68.3294V68.3289V68.3284V68.328V68.3275V68.3271V68.3266V68.3261V68.3257V68.3252V68.3248V68.3243V68.3238V68.3234V68.3229V68.3224V68.322V68.3215V68.321V68.3205V68.3201V68.3196V68.3191V68.3186V68.3182V68.3177V68.3172V68.3167V68.3162V68.3158V68.3153V68.3148V68.3143V68.3138V68.3133V68.3128V68.3123V68.3118V68.3114V68.3109V68.3104V68.3099V68.3094V68.3089V68.3084V68.3079V68.3074V68.3069V68.3064V68.3059V68.3054V68.3049V68.3044V68.3039V68.3033V68.3028V68.3023V68.3018V68.3013V68.3008V68.3003V68.2998V68.2992V68.2987V68.2982V68.2977V68.2972V68.2967V68.2961V68.2956V68.2951V68.2946V68.294V68.2935V68.293V68.2925V68.2919V68.2914V68.2909V68.2904V68.2898V68.2893V68.2888V68.2882V68.2877V68.2872V68.2866V68.2861V68.2855V68.285V68.2845V68.2839V68.2834V68.2828V68.2823V68.2817V68.2812V68.2807V68.2801V68.2796V68.279V68.2785V68.2779V68.2774V68.2768V68.2763V68.2757V68.2752V68.2746V68.274V68.2735V68.2729V68.2724V68.2718V68.2713V68.2707V68.2701V68.2696V68.269V68.2684V68.2679V68.2673V68.2667V68.2662V68.2656V68.265V68.2645V68.2639V68.2633V68.2628V68.2622V68.2616V68.261V68.2605V68.2599V68.2593V68.2587V68.2582V68.2576V68.257V68.2564V68.2559V68.2553V68.2547V68.2541V68.2535V68.2529V68.2524V68.2518V68.2512V68.2506V68.25V68.2494V68.2488V68.2482V68.2477V68.2471V68.2465V68.2459V68.2453V68.2447V68.2441V68.2435V68.2429V68.2423V68.2417V68.2411V68.2405V68.2399V68.2393V68.2387V68.2381V68.2375V68.2369V68.2363V68.2357V68.2351V68.2345V68.2339V68.2333V68.2327V68.2321V68.2315V68.2309V68.2303V68.2297V68.2291V68.2284V68.2278V68.2272V68.2266V68.226V68.2254V68.2248V68.2242V68.2235V68.2229V68.2223V68.2217V68.2211V68.2205V68.2198V68.2192V68.2186V68.218V68.2174V68.2167V68.2161V68.2155V68.2149V68.2143V68.2136V68.213V68.2124V68.2118V68.2111V68.2105V68.2099V68.2093V68.2086V68.208V68.2074V68.2067V68.2061V68.2055V68.2048V68.2042V68.2036V68.2029V68.2023V68.2017V68.201V68.2004V68.1998V68.1991V68.1985V68.1979V68.1972V68.1966V68.196V68.1953V68.1947V68.194V68.1934V68.1928V68.1921V68.1915V68.1908V68.1902V68.1896V68.1889V68.1883V68.1876V68.187V68.1863V68.1857V68.1851V68.1844V68.1838V68.1831V68.1825V68.1818V68.1812V68.1805V68.1799V68.1792V68.1786V68.1779V68.1773V68.1766V68.176V68.1753V68.1747V68.174V68.1734V68.1727V68.1721V68.1714V68.1708V68.1701V68.1695V68.1688V68.1681V68.1675V68.1668V68.1662V68.1655V68.1649V68.1642V68.1635V68.1629V68.1622V68.1616V68.1609V68.1603V68.1596V68.1589V68.1583V68.1576V68.157V68.1563V68.1556V68.155V68.1543V68.1536V68.153V68.1523V68.1517V68.151V68.1503V68.1497V68.149V68.1483V68.1477V68.147V68.1463V68.1457V68.145V68.1443V68.1437V68.143V68.1423V68.1417V68.141V68.1403V68.1397V68.139V68.1383V68.1377V68.137V68.1363V68.1357V68.135V68.1343V68.1337V68.133V68.1323V68.1316V68.131V68.1303V68.1296V68.129V68.1283V68.1276V68.1269V68.1263V68.1256V68.1249V68.1243V68.1236V68.1229V68.1222V68.1216V68.1209V68.1202V68.1195V68.1189V68.1182V68.1175V68.1168V68.1162V68.1155V68.1148V68.1141V68.1135V68.1128V68.1121V68.1114V68.1108V68.1101V68.1094V68.1087V68.1081V68.1074V68.1067V68.106V68.1054V68.1047V68.104V68.1033V68.1027V68.102V68.1013V68.1006V68.0999V68.0993V68.0986V68.0979V68.0972V68.0966V68.0959V68.0952V68.0945V68.0938V68.0932V68.0925V68.0918V68.0911V68.0905V68.0898V68.0891V68.0884V68.0877V68.0871V68.0864V68.0857V68.085V68.0843V68.0837V68.083V68.0823V68.0816V68.081V68.0803V68.0796V68.0789V68.0782V68.0776C50.2928 68.0725 50.2927 68.0675 50.2926 68.0625C50.2925 68.0564 50.2924 68.0503 50.2921 68.0442C50.1935 65.3321 52.2737 62.9209 54.962 62.6765L54.962 62.6765L54.9703 62.6757C55.9462 62.5781 56.8849 62.7713 57.686 63.1197C58.5168 63.5131 59.2074 64.1027 59.7586 64.8544C59.9195 65.0737 60.1693 65.2104 60.4407 65.2275C60.7122 65.2445 60.9772 65.1403 61.1642 64.9428C62.0314 64.0275 63.2378 63.4913 64.6115 63.4913C65.4606 63.4913 66.2839 63.6924 66.937 64.0656C66.9518 64.074 66.9667 64.082 66.9819 64.0896C67.8271 64.5122 68.5037 65.2262 68.9469 66.1126C69.1023 66.4233 69.4199 66.6196 69.7673 66.6196C70.0957 66.6196 70.3231 66.4611 70.4047 66.3999Z" fill="url(#paint2_radial_1829_309)"/>
<path fill-rule="evenodd" clip-rule="evenodd" d="M95.49 36.9775C94.9834 36.9775 94.5728 37.3882 94.5728 37.8948V53.5162L94.5725 53.5362V74.2392L77.4916 109.987L69.1276 94.5214C68.9675 94.2254 68.6582 94.0408 68.3218 94.0405C67.9853 94.0401 67.6756 94.2239 67.5149 94.5195L35.8264 152.799C35.5844 153.244 35.7491 153.801 36.1941 154.043C36.6392 154.285 37.1961 154.12 37.4381 153.675L68.3186 96.8819L76.5133 112.034L56.5999 153.71C56.3815 154.167 56.575 154.715 57.032 154.933C57.4891 155.152 58.0367 154.958 58.2551 154.501L95.4884 76.5774L132.722 154.501C132.94 154.958 133.488 155.152 133.945 154.933C134.402 154.715 134.596 154.167 134.377 153.71L114.523 112.158L122.834 96.8776L153.717 153.675C153.959 154.12 154.516 154.285 154.961 154.043C155.406 153.801 155.571 153.244 155.329 152.799L123.64 94.5195C123.48 94.2243 123.17 94.0405 122.834 94.0404C122.498 94.0404 122.189 94.2242 122.029 94.5194L113.546 110.114L96.407 74.2448V57.408H117.678C118.05 57.408 118.385 57.1833 118.526 56.8391C118.668 56.495 118.587 56.0996 118.322 55.8382L109.596 47.2197L118.324 38.5454C118.588 38.2835 118.667 37.8885 118.526 37.5451C118.384 37.2016 118.049 36.9775 117.678 36.9775H95.49ZM96.4073 55.5735V38.812H115.454L107.646 46.5711C107.473 46.7437 107.375 46.9784 107.376 47.2232C107.376 47.4679 107.474 47.7024 107.648 47.8743L115.444 55.5735H96.4073ZM58.4329 61.4441C57.3838 60.9851 56.1269 60.7172 54.7919 60.8499C51.2499 61.1741 48.539 64.2076 48.4562 67.695L48.3999 67.7091C48.3744 67.7155 48.3491 67.723 48.3242 67.7315C46.132 68.4851 44.4609 70.5497 44.4609 73.0596C44.4609 74.7582 45.142 76.322 46.2938 77.4738C47.4457 78.6256 49.0094 79.3066 50.708 79.3066H77.7619C81.223 79.3066 84.0088 76.5207 84.0088 73.0596C84.0088 72.9791 83.9982 72.8989 83.9773 72.8212C83.4927 71.0212 82.1762 69.6368 80.5171 69.0146C80.5065 69.0106 80.4958 69.0068 80.4851 69.0032C80.1284 68.8843 79.7563 68.7847 79.3587 68.7253C78.7026 65.8561 76.1219 63.6844 73.0694 63.6844C72.0058 63.6844 70.9706 63.9377 70.0698 64.4232C69.498 63.6096 68.7427 62.9241 67.825 62.4602C66.8608 61.9151 65.7236 61.6568 64.6115 61.6568C63.1033 61.6568 61.7123 62.1368 60.5914 62.9969C59.9875 62.3646 59.2755 61.8402 58.4558 61.4545C58.4482 61.4509 58.4406 61.4474 58.4329 61.4441ZM70.4047 66.3999C70.4545 66.3625 70.5001 66.3218 70.5339 66.2899C71.2271 65.7988 72.1145 65.5189 73.0694 65.5189C75.4288 65.5189 77.4186 67.3559 77.6606 69.6788C77.7093 70.1461 78.1031 70.501 78.5729 70.501C79.0185 70.501 79.4339 70.5878 79.8885 70.7381C80.9667 71.1478 81.824 72.0318 82.1727 73.1821C82.1084 75.5728 80.1689 77.4721 77.7619 77.4721H50.708C49.51 77.4721 48.4088 76.9944 47.591 76.1766C46.7731 75.3587 46.2954 74.2576 46.2954 73.0596C46.2954 71.4115 47.3879 70.0093 48.8852 69.4787C49.1114 69.4221 49.3837 69.3519 49.7162 69.2189C50.0644 69.0796 50.2928 68.7423 50.2928 68.3672V68.3669V68.3665V68.3662V68.3658V68.3655V68.3652V68.3648V68.3645V68.3641V68.3638V68.3634V68.363V68.3627V68.3623V68.362V68.3616V68.3613V68.3609V68.3605V68.3602V68.3598V68.3594V68.3591V68.3587V68.3583V68.3579V68.3576V68.3572V68.3568V68.3564V68.3561V68.3557V68.3553V68.3549V68.3545V68.3542V68.3538V68.3534V68.353V68.3526V68.3522V68.3518V68.3514V68.351V68.3506V68.3502V68.3498V68.3494V68.349V68.3486V68.3482V68.3478V68.3474V68.347V68.3466V68.3462V68.3458V68.3454V68.345V68.3446V68.3441V68.3437V68.3433V68.3429V68.3425V68.342V68.3416V68.3412V68.3408V68.3404V68.3399V68.3395V68.3391V68.3386V68.3382V68.3378V68.3373V68.3369V68.3365V68.336V68.3356V68.3352V68.3347V68.3343V68.3338V68.3334V68.3329V68.3325V68.3321V68.3316V68.3312V68.3307V68.3303V68.3298V68.3294V68.3289V68.3284V68.328V68.3275V68.3271V68.3266V68.3261V68.3257V68.3252V68.3248V68.3243V68.3238V68.3234V68.3229V68.3224V68.322V68.3215V68.321V68.3205V68.3201V68.3196V68.3191V68.3186V68.3182V68.3177V68.3172V68.3167V68.3162V68.3158V68.3153V68.3148V68.3143V68.3138V68.3133V68.3128V68.3123V68.3118V68.3114V68.3109V68.3104V68.3099V68.3094V68.3089V68.3084V68.3079V68.3074V68.3069V68.3064V68.3059V68.3054V68.3049V68.3044V68.3039V68.3033V68.3028V68.3023V68.3018V68.3013V68.3008V68.3003V68.2998V68.2992V68.2987V68.2982V68.2977V68.2972V68.2967V68.2961V68.2956V68.2951V68.2946V68.294V68.2935V68.293V68.2925V68.2919V68.2914V68.2909V68.2904V68.2898V68.2893V68.2888V68.2882V68.2877V68.2872V68.2866V68.2861V68.2855V68.285V68.2845V68.2839V68.2834V68.2828V68.2823V68.2817V68.2812V68.2807V68.2801V68.2796V68.279V68.2785V68.2779V68.2774V68.2768V68.2763V68.2757V68.2752V68.2746V68.274V68.2735V68.2729V68.2724V68.2718V68.2713V68.2707V68.2701V68.2696V68.269V68.2684V68.2679V68.2673V68.2667V68.2662V68.2656V68.265V68.2645V68.2639V68.2633V68.2628V68.2622V68.2616V68.261V68.2605V68.2599V68.2593V68.2587V68.2582V68.2576V68.257V68.2564V68.2559V68.2553V68.2547V68.2541V68.2535V68.2529V68.2524V68.2518V68.2512V68.2506V68.25V68.2494V68.2488V68.2482V68.2477V68.2471V68.2465V68.2459V68.2453V68.2447V68.2441V68.2435V68.2429V68.2423V68.2417V68.2411V68.2405V68.2399V68.2393V68.2387V68.2381V68.2375V68.2369V68.2363V68.2357V68.2351V68.2345V68.2339V68.2333V68.2327V68.2321V68.2315V68.2309V68.2303V68.2297V68.2291V68.2284V68.2278V68.2272V68.2266V68.226V68.2254V68.2248V68.2242V68.2235V68.2229V68.2223V68.2217V68.2211V68.2205V68.2198V68.2192V68.2186V68.218V68.2174V68.2167V68.2161V68.2155V68.2149V68.2143V68.2136V68.213V68.2124V68.2118V68.2111V68.2105V68.2099V68.2093V68.2086V68.208V68.2074V68.2067V68.2061V68.2055V68.2048V68.2042V68.2036V68.2029V68.2023V68.2017V68.201V68.2004V68.1998V68.1991V68.1985V68.1979V68.1972V68.1966V68.196V68.1953V68.1947V68.194V68.1934V68.1928V68.1921V68.1915V68.1908V68.1902V68.1896V68.1889V68.1883V68.1876V68.187V68.1863V68.1857V68.1851V68.1844V68.1838V68.1831V68.1825V68.1818V68.1812V68.1805V68.1799V68.1792V68.1786V68.1779V68.1773V68.1766V68.176V68.1753V68.1747V68.174V68.1734V68.1727V68.1721V68.1714V68.1708V68.1701V68.1695V68.1688V68.1681V68.1675V68.1668V68.1662V68.1655V68.1649V68.1642V68.1635V68.1629V68.1622V68.1616V68.1609V68.1603V68.1596V68.1589V68.1583V68.1576V68.157V68.1563V68.1556V68.155V68.1543V68.1536V68.153V68.1523V68.1517V68.151V68.1503V68.1497V68.149V68.1483V68.1477V68.147V68.1463V68.1457V68.145V68.1443V68.1437V68.143V68.1423V68.1417V68.141V68.1403V68.1397V68.139V68.1383V68.1377V68.137V68.1363V68.1357V68.135V68.1343V68.1337V68.133V68.1323V68.1316V68.131V68.1303V68.1296V68.129V68.1283V68.1276V68.1269V68.1263V68.1256V68.1249V68.1243V68.1236V68.1229V68.1222V68.1216V68.1209V68.1202V68.1195V68.1189V68.1182V68.1175V68.1168V68.1162V68.1155V68.1148V68.1141V68.1135V68.1128V68.1121V68.1114V68.1108V68.1101V68.1094V68.1087V68.1081V68.1074V68.1067V68.106V68.1054V68.1047V68.104V68.1033V68.1027V68.102V68.1013V68.1006V68.0999V68.0993V68.0986V68.0979V68.0972V68.0966V68.0959V68.0952V68.0945V68.0938V68.0932V68.0925V68.0918V68.0911V68.0905V68.0898V68.0891V68.0884V68.0877V68.0871V68.0864V68.0857V68.085V68.0843V68.0837V68.083V68.0823V68.0816V68.081V68.0803V68.0796V68.0789V68.0782V68.0776C50.2928 68.0725 50.2927 68.0675 50.2926 68.0625C50.2925 68.0564 50.2924 68.0503 50.2921 68.0442C50.1935 65.3321 52.2737 62.9209 54.962 62.6765L54.962 62.6765L54.9703 62.6757C55.9462 62.5781 56.8849 62.7713 57.686 63.1197C58.5168 63.5131 59.2074 64.1027 59.7586 64.8544C59.9195 65.0737 60.1693 65.2104 60.4407 65.2275C60.7122 65.2445 60.9772 65.1403 61.1642 64.9428C62.0314 64.0275 63.2378 63.4913 64.6115 63.4913C65.4606 63.4913 66.2839 63.6924 66.937 64.0656C66.9518 64.074 66.9667 64.082 66.9819 64.0896C67.8271 64.5122 68.5037 65.2262 68.9469 66.1126C69.1023 66.4233 69.4199 66.6196 69.7673 66.6196C70.0957 66.6196 70.3231 66.4611 70.4047 66.3999Z" fill="url(#paint3_radial_1829_309)"/>
<defs>
<radialGradient id="paint0_radial_1829_309" cx="0" cy="0" r="1" gradientUnits="userSpaceOnUse" gradientTransform="translate(35.7148 155.023) rotate(-36.2574) scale(172.22 171.506)">
<stop stop-color="#66D2FD"/>
<stop offset="0.25" stop-color="#91DDFF"/>
<stop offset="0.5" stop-color="#ED50B9"/>
<stop offset="0.75" stop-color="#F8086E"/>
<stop offset="0.940085" stop-color="#FF5546"/>
</radialGradient>
<radialGradient id="paint1_radial_1829_309" cx="0" cy="0" r="1" gradientUnits="userSpaceOnUse" gradientTransform="translate(43.7902 78.1723) rotate(43.0752) scale(139.391 77.8999)">
<stop offset="0.0149216" stop-color="#6843E7"/>
<stop offset="0.860954" stop-color="#6843E7" stop-opacity="0"/>
</radialGradient>
<radialGradient id="paint2_radial_1829_309" cx="0" cy="0" r="1" gradientUnits="userSpaceOnUse" gradientTransform="translate(155.44 150.177) rotate(-102.494) scale(89.2632 90.4154)">
<stop stop-color="#FADAC7"/>
<stop offset="0.924249" stop-color="#FADAC7" stop-opacity="0"/>
</radialGradient>
<radialGradient id="paint3_radial_1829_309" cx="0" cy="0" r="1" gradientUnits="userSpaceOnUse" gradientTransform="translate(67.4895 155.023) scale(68.6402 59.0991)">
<stop stop-color="#65CDFC"/>
<stop offset="1" stop-color="#65CDFC" stop-opacity="0"/>
</radialGradient>
</defs>
</svg>
