<svg width="192" height="192" viewBox="0 0 192 192" fill="none" xmlns="http://www.w3.org/2000/svg">
<path fill-rule="evenodd" clip-rule="evenodd" d="M42.1055 45.4737C42.1055 45.0082 42.4828 44.6309 42.9483 44.6309H56.523C56.9885 44.6309 57.3659 45.0082 57.3659 45.4737V51.392H87.2461V45.4737C87.2461 45.0082 87.6235 44.6309 88.089 44.6309H101.664C102.129 44.6309 102.507 45.0082 102.507 45.4737V51.392H134.999V45.4737C134.999 45.0082 135.377 44.6309 135.842 44.6309H149.417C149.882 44.6309 150.26 45.0082 150.26 45.4737V59.0484C150.26 59.5139 149.882 59.8913 149.417 59.8913H135.842C135.377 59.8913 134.999 59.5139 134.999 59.0484V53.0777H104.353C124.601 57.2505 140.386 74.7759 143.344 96.6411H149.417C149.882 96.6411 150.26 97.0185 150.26 97.484V111.059C150.26 111.524 149.882 111.902 149.417 111.902H135.842C135.377 111.902 134.999 111.524 134.999 111.059V97.484C134.999 97.0185 135.377 96.6411 135.842 96.6411H141.643C138.62 74.9921 122.646 57.8731 102.507 54.4455V59.0484C102.507 59.5139 102.129 59.8913 101.664 59.8913H88.089C87.6235 59.8913 87.2461 59.5139 87.2461 59.0484V54.4673C68.479 57.9399 53.6078 75.003 50.7173 96.6411H56.523C56.9885 96.6411 57.3659 97.0185 57.3659 97.484V111.059C57.3659 111.524 56.9885 111.902 56.523 111.902H42.9483C42.4828 111.902 42.1055 111.524 42.1055 111.059V97.484C42.1055 97.0185 42.4828 96.6411 42.9483 96.6411H49.017C51.8495 74.8094 66.5829 57.256 85.6135 53.0777H57.3659V59.0484C57.3659 59.5139 56.9885 59.8913 56.523 59.8913H42.9483C42.4828 59.8913 42.1055 59.5139 42.1055 59.0484V45.4737ZM88.9318 58.2055V53.759C88.9827 53.626 89.0006 53.4783 88.9768 53.3275C88.9675 53.2684 88.9523 53.2117 88.9318 53.1579V52.2788C88.9326 52.2643 88.933 52.2496 88.933 52.2348C88.933 52.2201 88.9326 52.2054 88.9318 52.1908V46.3166H100.821V58.2055H88.9318ZM55.6801 46.3166V52.2011C55.6797 52.2123 55.6795 52.2235 55.6795 52.2348C55.6795 52.2461 55.6797 52.2574 55.6801 52.2686V58.2055H43.7912V46.3166H55.6801ZM94.1971 63.4856L94.1619 63.4608C94.3198 63.2366 94.5768 63.1033 94.8509 63.1033L94.8597 63.1034L94.8769 63.1037C94.8856 63.1034 94.8943 63.1033 94.9031 63.1033C95.2847 63.1033 95.607 63.3569 95.7109 63.7047C95.8044 63.8386 95.9351 64.0261 96.0998 64.2637C96.4611 64.7847 96.9861 65.5463 97.6422 66.5105C98.9543 68.4387 100.791 71.1774 102.891 74.421C107.09 80.9048 112.349 89.4209 116.572 97.5198C120.954 105.923 118.896 115.342 115.87 122.518C114.349 126.125 112.563 129.214 111.159 131.401C110.611 132.255 110.12 132.973 109.724 133.532H112.843C113.309 133.532 113.686 133.909 113.686 134.375V147.79C113.686 148.255 113.309 148.632 112.843 148.632H76.9105C76.445 148.632 76.0676 148.255 76.0676 147.79V134.375C76.0676 133.909 76.445 133.532 76.9105 133.532H79.9777C79.582 132.973 79.0909 132.255 78.5424 131.401C77.1385 129.214 75.353 126.125 73.832 122.518C70.8056 115.342 68.7474 105.923 73.1293 97.5198C77.3525 89.4209 82.6123 80.9048 86.8104 74.421C88.9106 71.1774 90.7475 68.4387 92.0597 66.5105C92.7158 65.5463 93.2408 64.7847 93.602 64.2637C93.7826 64.0032 93.9223 63.8029 94.017 63.6674L94.1247 63.5136L94.1523 63.4743L94.1594 63.4643L94.1612 63.4617L94.1617 63.461C94.1617 63.461 94.1617 63.461 94.1673 63.4648L94.197 63.4857L94.1971 63.4856ZM94.0602 66.5699C93.8732 66.8429 93.6705 67.1397 93.4533 67.4589C92.147 69.3785 90.3174 72.1063 88.2254 75.3372C84.0392 81.8026 78.8119 90.2682 74.6241 98.2992C70.595 106.026 72.4229 114.839 75.3853 121.863C76.8588 125.357 78.5933 128.36 79.9609 130.49C80.6442 131.554 81.2343 132.398 81.6523 132.975C81.8184 133.204 81.9573 133.391 82.0639 133.532H107.638C107.744 133.391 107.883 133.204 108.05 132.975C108.467 132.398 109.058 131.554 109.741 130.49C111.108 128.36 112.843 125.357 114.316 121.863C117.279 114.839 119.107 106.026 115.078 98.2992C110.89 90.2682 105.663 81.8026 101.476 75.3372C99.3844 72.1063 97.5548 69.3785 96.2485 67.4589C96.0711 67.1982 95.9034 66.9525 95.746 66.7224V98.3447H101.664C102.129 98.3447 102.507 98.722 102.507 99.1875V113.454C102.507 113.92 102.129 114.297 101.664 114.297H88.089C87.6235 114.297 87.2461 113.92 87.2461 113.454V99.1875C87.2461 98.722 87.6235 98.3447 88.089 98.3447H94.0602V66.5699ZM108.053 135.218L108.035 135.218H81.667L81.6507 135.218L81.6319 135.218H77.7534V146.947H112.001V135.218H108.07L108.053 135.218ZM88.9318 100.03V112.611H100.821V100.03H88.9318ZM43.7912 110.216V98.3269H55.6801V110.216H43.7912ZM136.685 46.3166V58.2055H148.574V46.3166H136.685ZM136.685 110.216V98.3269H148.574V110.216H136.685Z" fill="url(#paint0_radial_1829_1195)"/>
<path fill-rule="evenodd" clip-rule="evenodd" d="M42.1055 45.4737C42.1055 45.0082 42.4828 44.6309 42.9483 44.6309H56.523C56.9885 44.6309 57.3659 45.0082 57.3659 45.4737V51.392H87.2461V45.4737C87.2461 45.0082 87.6235 44.6309 88.089 44.6309H101.664C102.129 44.6309 102.507 45.0082 102.507 45.4737V51.392H134.999V45.4737C134.999 45.0082 135.377 44.6309 135.842 44.6309H149.417C149.882 44.6309 150.26 45.0082 150.26 45.4737V59.0484C150.26 59.5139 149.882 59.8913 149.417 59.8913H135.842C135.377 59.8913 134.999 59.5139 134.999 59.0484V53.0777H104.353C124.601 57.2505 140.386 74.7759 143.344 96.6411H149.417C149.882 96.6411 150.26 97.0185 150.26 97.484V111.059C150.26 111.524 149.882 111.902 149.417 111.902H135.842C135.377 111.902 134.999 111.524 134.999 111.059V97.484C134.999 97.0185 135.377 96.6411 135.842 96.6411H141.643C138.62 74.9921 122.646 57.8731 102.507 54.4455V59.0484C102.507 59.5139 102.129 59.8913 101.664 59.8913H88.089C87.6235 59.8913 87.2461 59.5139 87.2461 59.0484V54.4673C68.479 57.9399 53.6078 75.003 50.7173 96.6411H56.523C56.9885 96.6411 57.3659 97.0185 57.3659 97.484V111.059C57.3659 111.524 56.9885 111.902 56.523 111.902H42.9483C42.4828 111.902 42.1055 111.524 42.1055 111.059V97.484C42.1055 97.0185 42.4828 96.6411 42.9483 96.6411H49.017C51.8495 74.8094 66.5829 57.256 85.6135 53.0777H57.3659V59.0484C57.3659 59.5139 56.9885 59.8913 56.523 59.8913H42.9483C42.4828 59.8913 42.1055 59.5139 42.1055 59.0484V45.4737ZM88.9318 58.2055V53.759C88.9827 53.626 89.0006 53.4783 88.9768 53.3275C88.9675 53.2684 88.9523 53.2117 88.9318 53.1579V52.2788C88.9326 52.2643 88.933 52.2496 88.933 52.2348C88.933 52.2201 88.9326 52.2054 88.9318 52.1908V46.3166H100.821V58.2055H88.9318ZM55.6801 46.3166V52.2011C55.6797 52.2123 55.6795 52.2235 55.6795 52.2348C55.6795 52.2461 55.6797 52.2574 55.6801 52.2686V58.2055H43.7912V46.3166H55.6801ZM94.1971 63.4856L94.1619 63.4608C94.3198 63.2366 94.5768 63.1033 94.8509 63.1033L94.8597 63.1034L94.8769 63.1037C94.8856 63.1034 94.8943 63.1033 94.9031 63.1033C95.2847 63.1033 95.607 63.3569 95.7109 63.7047C95.8044 63.8386 95.9351 64.0261 96.0998 64.2637C96.4611 64.7847 96.9861 65.5463 97.6422 66.5105C98.9543 68.4387 100.791 71.1774 102.891 74.421C107.09 80.9048 112.349 89.4209 116.572 97.5198C120.954 105.923 118.896 115.342 115.87 122.518C114.349 126.125 112.563 129.214 111.159 131.401C110.611 132.255 110.12 132.973 109.724 133.532H112.843C113.309 133.532 113.686 133.909 113.686 134.375V147.79C113.686 148.255 113.309 148.632 112.843 148.632H76.9105C76.445 148.632 76.0676 148.255 76.0676 147.79V134.375C76.0676 133.909 76.445 133.532 76.9105 133.532H79.9777C79.582 132.973 79.0909 132.255 78.5424 131.401C77.1385 129.214 75.353 126.125 73.832 122.518C70.8056 115.342 68.7474 105.923 73.1293 97.5198C77.3525 89.4209 82.6123 80.9048 86.8104 74.421C88.9106 71.1774 90.7475 68.4387 92.0597 66.5105C92.7158 65.5463 93.2408 64.7847 93.602 64.2637C93.7826 64.0032 93.9223 63.8029 94.017 63.6674L94.1247 63.5136L94.1523 63.4743L94.1594 63.4643L94.1612 63.4617L94.1617 63.461C94.1617 63.461 94.1617 63.461 94.1673 63.4648L94.197 63.4857L94.1971 63.4856ZM94.0602 66.5699C93.8732 66.8429 93.6705 67.1397 93.4533 67.4589C92.147 69.3785 90.3174 72.1063 88.2254 75.3372C84.0392 81.8026 78.8119 90.2682 74.6241 98.2992C70.595 106.026 72.4229 114.839 75.3853 121.863C76.8588 125.357 78.5933 128.36 79.9609 130.49C80.6442 131.554 81.2343 132.398 81.6523 132.975C81.8184 133.204 81.9573 133.391 82.0639 133.532H107.638C107.744 133.391 107.883 133.204 108.05 132.975C108.467 132.398 109.058 131.554 109.741 130.49C111.108 128.36 112.843 125.357 114.316 121.863C117.279 114.839 119.107 106.026 115.078 98.2992C110.89 90.2682 105.663 81.8026 101.476 75.3372C99.3844 72.1063 97.5548 69.3785 96.2485 67.4589C96.0711 67.1982 95.9034 66.9525 95.746 66.7224V98.3447H101.664C102.129 98.3447 102.507 98.722 102.507 99.1875V113.454C102.507 113.92 102.129 114.297 101.664 114.297H88.089C87.6235 114.297 87.2461 113.92 87.2461 113.454V99.1875C87.2461 98.722 87.6235 98.3447 88.089 98.3447H94.0602V66.5699ZM108.053 135.218L108.035 135.218H81.667L81.6507 135.218L81.6319 135.218H77.7534V146.947H112.001V135.218H108.07L108.053 135.218ZM88.9318 100.03V112.611H100.821V100.03H88.9318ZM43.7912 110.216V98.3269H55.6801V110.216H43.7912ZM136.685 46.3166V58.2055H148.574V46.3166H136.685ZM136.685 110.216V98.3269H148.574V110.216H136.685Z" fill="url(#paint1_radial_1829_1195)"/>
<path fill-rule="evenodd" clip-rule="evenodd" d="M42.1055 45.4737C42.1055 45.0082 42.4828 44.6309 42.9483 44.6309H56.523C56.9885 44.6309 57.3659 45.0082 57.3659 45.4737V51.392H87.2461V45.4737C87.2461 45.0082 87.6235 44.6309 88.089 44.6309H101.664C102.129 44.6309 102.507 45.0082 102.507 45.4737V51.392H134.999V45.4737C134.999 45.0082 135.377 44.6309 135.842 44.6309H149.417C149.882 44.6309 150.26 45.0082 150.26 45.4737V59.0484C150.26 59.5139 149.882 59.8913 149.417 59.8913H135.842C135.377 59.8913 134.999 59.5139 134.999 59.0484V53.0777H104.353C124.601 57.2505 140.386 74.7759 143.344 96.6411H149.417C149.882 96.6411 150.26 97.0185 150.26 97.484V111.059C150.26 111.524 149.882 111.902 149.417 111.902H135.842C135.377 111.902 134.999 111.524 134.999 111.059V97.484C134.999 97.0185 135.377 96.6411 135.842 96.6411H141.643C138.62 74.9921 122.646 57.8731 102.507 54.4455V59.0484C102.507 59.5139 102.129 59.8913 101.664 59.8913H88.089C87.6235 59.8913 87.2461 59.5139 87.2461 59.0484V54.4673C68.479 57.9399 53.6078 75.003 50.7173 96.6411H56.523C56.9885 96.6411 57.3659 97.0185 57.3659 97.484V111.059C57.3659 111.524 56.9885 111.902 56.523 111.902H42.9483C42.4828 111.902 42.1055 111.524 42.1055 111.059V97.484C42.1055 97.0185 42.4828 96.6411 42.9483 96.6411H49.017C51.8495 74.8094 66.5829 57.256 85.6135 53.0777H57.3659V59.0484C57.3659 59.5139 56.9885 59.8913 56.523 59.8913H42.9483C42.4828 59.8913 42.1055 59.5139 42.1055 59.0484V45.4737ZM88.9318 58.2055V53.759C88.9827 53.626 89.0006 53.4783 88.9768 53.3275C88.9675 53.2684 88.9523 53.2117 88.9318 53.1579V52.2788C88.9326 52.2643 88.933 52.2496 88.933 52.2348C88.933 52.2201 88.9326 52.2054 88.9318 52.1908V46.3166H100.821V58.2055H88.9318ZM55.6801 46.3166V52.2011C55.6797 52.2123 55.6795 52.2235 55.6795 52.2348C55.6795 52.2461 55.6797 52.2574 55.6801 52.2686V58.2055H43.7912V46.3166H55.6801ZM94.1971 63.4856L94.1619 63.4608C94.3198 63.2366 94.5768 63.1033 94.8509 63.1033L94.8597 63.1034L94.8769 63.1037C94.8856 63.1034 94.8943 63.1033 94.9031 63.1033C95.2847 63.1033 95.607 63.3569 95.7109 63.7047C95.8044 63.8386 95.9351 64.0261 96.0998 64.2637C96.4611 64.7847 96.9861 65.5463 97.6422 66.5105C98.9543 68.4387 100.791 71.1774 102.891 74.421C107.09 80.9048 112.349 89.4209 116.572 97.5198C120.954 105.923 118.896 115.342 115.87 122.518C114.349 126.125 112.563 129.214 111.159 131.401C110.611 132.255 110.12 132.973 109.724 133.532H112.843C113.309 133.532 113.686 133.909 113.686 134.375V147.79C113.686 148.255 113.309 148.632 112.843 148.632H76.9105C76.445 148.632 76.0676 148.255 76.0676 147.79V134.375C76.0676 133.909 76.445 133.532 76.9105 133.532H79.9777C79.582 132.973 79.0909 132.255 78.5424 131.401C77.1385 129.214 75.353 126.125 73.832 122.518C70.8056 115.342 68.7474 105.923 73.1293 97.5198C77.3525 89.4209 82.6123 80.9048 86.8104 74.421C88.9106 71.1774 90.7475 68.4387 92.0597 66.5105C92.7158 65.5463 93.2408 64.7847 93.602 64.2637C93.7826 64.0032 93.9223 63.8029 94.017 63.6674L94.1247 63.5136L94.1523 63.4743L94.1594 63.4643L94.1612 63.4617L94.1617 63.461C94.1617 63.461 94.1617 63.461 94.1673 63.4648L94.197 63.4857L94.1971 63.4856ZM94.0602 66.5699C93.8732 66.8429 93.6705 67.1397 93.4533 67.4589C92.147 69.3785 90.3174 72.1063 88.2254 75.3372C84.0392 81.8026 78.8119 90.2682 74.6241 98.2992C70.595 106.026 72.4229 114.839 75.3853 121.863C76.8588 125.357 78.5933 128.36 79.9609 130.49C80.6442 131.554 81.2343 132.398 81.6523 132.975C81.8184 133.204 81.9573 133.391 82.0639 133.532H107.638C107.744 133.391 107.883 133.204 108.05 132.975C108.467 132.398 109.058 131.554 109.741 130.49C111.108 128.36 112.843 125.357 114.316 121.863C117.279 114.839 119.107 106.026 115.078 98.2992C110.89 90.2682 105.663 81.8026 101.476 75.3372C99.3844 72.1063 97.5548 69.3785 96.2485 67.4589C96.0711 67.1982 95.9034 66.9525 95.746 66.7224V98.3447H101.664C102.129 98.3447 102.507 98.722 102.507 99.1875V113.454C102.507 113.92 102.129 114.297 101.664 114.297H88.089C87.6235 114.297 87.2461 113.92 87.2461 113.454V99.1875C87.2461 98.722 87.6235 98.3447 88.089 98.3447H94.0602V66.5699ZM108.053 135.218L108.035 135.218H81.667L81.6507 135.218L81.6319 135.218H77.7534V146.947H112.001V135.218H108.07L108.053 135.218ZM88.9318 100.03V112.611H100.821V100.03H88.9318ZM43.7912 110.216V98.3269H55.6801V110.216H43.7912ZM136.685 46.3166V58.2055H148.574V46.3166H136.685ZM136.685 110.216V98.3269H148.574V110.216H136.685Z" fill="url(#paint2_radial_1829_1195)"/>
<path fill-rule="evenodd" clip-rule="evenodd" d="M42.1055 45.4737C42.1055 45.0082 42.4828 44.6309 42.9483 44.6309H56.523C56.9885 44.6309 57.3659 45.0082 57.3659 45.4737V51.392H87.2461V45.4737C87.2461 45.0082 87.6235 44.6309 88.089 44.6309H101.664C102.129 44.6309 102.507 45.0082 102.507 45.4737V51.392H134.999V45.4737C134.999 45.0082 135.377 44.6309 135.842 44.6309H149.417C149.882 44.6309 150.26 45.0082 150.26 45.4737V59.0484C150.26 59.5139 149.882 59.8913 149.417 59.8913H135.842C135.377 59.8913 134.999 59.5139 134.999 59.0484V53.0777H104.353C124.601 57.2505 140.386 74.7759 143.344 96.6411H149.417C149.882 96.6411 150.26 97.0185 150.26 97.484V111.059C150.26 111.524 149.882 111.902 149.417 111.902H135.842C135.377 111.902 134.999 111.524 134.999 111.059V97.484C134.999 97.0185 135.377 96.6411 135.842 96.6411H141.643C138.62 74.9921 122.646 57.8731 102.507 54.4455V59.0484C102.507 59.5139 102.129 59.8913 101.664 59.8913H88.089C87.6235 59.8913 87.2461 59.5139 87.2461 59.0484V54.4673C68.479 57.9399 53.6078 75.003 50.7173 96.6411H56.523C56.9885 96.6411 57.3659 97.0185 57.3659 97.484V111.059C57.3659 111.524 56.9885 111.902 56.523 111.902H42.9483C42.4828 111.902 42.1055 111.524 42.1055 111.059V97.484C42.1055 97.0185 42.4828 96.6411 42.9483 96.6411H49.017C51.8495 74.8094 66.5829 57.256 85.6135 53.0777H57.3659V59.0484C57.3659 59.5139 56.9885 59.8913 56.523 59.8913H42.9483C42.4828 59.8913 42.1055 59.5139 42.1055 59.0484V45.4737ZM88.9318 58.2055V53.759C88.9827 53.626 89.0006 53.4783 88.9768 53.3275C88.9675 53.2684 88.9523 53.2117 88.9318 53.1579V52.2788C88.9326 52.2643 88.933 52.2496 88.933 52.2348C88.933 52.2201 88.9326 52.2054 88.9318 52.1908V46.3166H100.821V58.2055H88.9318ZM55.6801 46.3166V52.2011C55.6797 52.2123 55.6795 52.2235 55.6795 52.2348C55.6795 52.2461 55.6797 52.2574 55.6801 52.2686V58.2055H43.7912V46.3166H55.6801ZM94.1971 63.4856L94.1619 63.4608C94.3198 63.2366 94.5768 63.1033 94.8509 63.1033L94.8597 63.1034L94.8769 63.1037C94.8856 63.1034 94.8943 63.1033 94.9031 63.1033C95.2847 63.1033 95.607 63.3569 95.7109 63.7047C95.8044 63.8386 95.9351 64.0261 96.0998 64.2637C96.4611 64.7847 96.9861 65.5463 97.6422 66.5105C98.9543 68.4387 100.791 71.1774 102.891 74.421C107.09 80.9048 112.349 89.4209 116.572 97.5198C120.954 105.923 118.896 115.342 115.87 122.518C114.349 126.125 112.563 129.214 111.159 131.401C110.611 132.255 110.12 132.973 109.724 133.532H112.843C113.309 133.532 113.686 133.909 113.686 134.375V147.79C113.686 148.255 113.309 148.632 112.843 148.632H76.9105C76.445 148.632 76.0676 148.255 76.0676 147.79V134.375C76.0676 133.909 76.445 133.532 76.9105 133.532H79.9777C79.582 132.973 79.0909 132.255 78.5424 131.401C77.1385 129.214 75.353 126.125 73.832 122.518C70.8056 115.342 68.7474 105.923 73.1293 97.5198C77.3525 89.4209 82.6123 80.9048 86.8104 74.421C88.9106 71.1774 90.7475 68.4387 92.0597 66.5105C92.7158 65.5463 93.2408 64.7847 93.602 64.2637C93.7826 64.0032 93.9223 63.8029 94.017 63.6674L94.1247 63.5136L94.1523 63.4743L94.1594 63.4643L94.1612 63.4617L94.1617 63.461C94.1617 63.461 94.1617 63.461 94.1673 63.4648L94.197 63.4857L94.1971 63.4856ZM94.0602 66.5699C93.8732 66.8429 93.6705 67.1397 93.4533 67.4589C92.147 69.3785 90.3174 72.1063 88.2254 75.3372C84.0392 81.8026 78.8119 90.2682 74.6241 98.2992C70.595 106.026 72.4229 114.839 75.3853 121.863C76.8588 125.357 78.5933 128.36 79.9609 130.49C80.6442 131.554 81.2343 132.398 81.6523 132.975C81.8184 133.204 81.9573 133.391 82.0639 133.532H107.638C107.744 133.391 107.883 133.204 108.05 132.975C108.467 132.398 109.058 131.554 109.741 130.49C111.108 128.36 112.843 125.357 114.316 121.863C117.279 114.839 119.107 106.026 115.078 98.2992C110.89 90.2682 105.663 81.8026 101.476 75.3372C99.3844 72.1063 97.5548 69.3785 96.2485 67.4589C96.0711 67.1982 95.9034 66.9525 95.746 66.7224V98.3447H101.664C102.129 98.3447 102.507 98.722 102.507 99.1875V113.454C102.507 113.92 102.129 114.297 101.664 114.297H88.089C87.6235 114.297 87.2461 113.92 87.2461 113.454V99.1875C87.2461 98.722 87.6235 98.3447 88.089 98.3447H94.0602V66.5699ZM108.053 135.218L108.035 135.218H81.667L81.6507 135.218L81.6319 135.218H77.7534V146.947H112.001V135.218H108.07L108.053 135.218ZM88.9318 100.03V112.611H100.821V100.03H88.9318ZM43.7912 110.216V98.3269H55.6801V110.216H43.7912ZM136.685 46.3166V58.2055H148.574V46.3166H136.685ZM136.685 110.216V98.3269H148.574V110.216H136.685Z" fill="url(#paint3_radial_1829_1195)"/>
<defs>
<radialGradient id="paint0_radial_1829_1195" cx="0" cy="0" r="1" gradientUnits="userSpaceOnUse" gradientTransform="translate(42.1055 148.632) rotate(-35.5763) scale(154.242 152.409)">
<stop stop-color="#66D2FD"/>
<stop offset="0.25" stop-color="#91DDFF"/>
<stop offset="0.5" stop-color="#ED50B9"/>
<stop offset="0.75" stop-color="#F8086E"/>
<stop offset="0.940085" stop-color="#FF5546"/>
</radialGradient>
<radialGradient id="paint1_radial_1829_1195" cx="0" cy="0" r="1" gradientUnits="userSpaceOnUse" gradientTransform="translate(49.4003 80.9247) rotate(42.3606) scale(124.478 69.4271)">
<stop offset="0.0149216" stop-color="#6843E7"/>
<stop offset="0.860954" stop-color="#6843E7" stop-opacity="0"/>
</radialGradient>
<radialGradient id="paint2_radial_1829_1195" cx="0" cy="0" r="1" gradientUnits="userSpaceOnUse" gradientTransform="translate(150.26 144.363) rotate(-102.8) scale(78.7379 81.5792)">
<stop stop-color="#FADAC7"/>
<stop offset="0.924249" stop-color="#FADAC7" stop-opacity="0"/>
</radialGradient>
<radialGradient id="paint3_radial_1829_1195" cx="0" cy="0" r="1" gradientUnits="userSpaceOnUse" gradientTransform="translate(70.8092 148.632) scale(62.0064 52.0681)">
<stop stop-color="#65CDFC"/>
<stop offset="1" stop-color="#65CDFC" stop-opacity="0"/>
</radialGradient>
</defs>
</svg>
