<svg width="192" height="192" viewBox="0 0 192 192" fill="none" xmlns="http://www.w3.org/2000/svg">
<path fill-rule="evenodd" clip-rule="evenodd" d="M142.848 53.7888H156.771C161.605 53.7888 165.521 57.7047 165.473 62.5391V131.091C165.473 135.925 161.557 139.841 156.723 139.841H97.8395V157.148H122.495C123.172 157.148 123.704 157.68 123.704 158.357C123.704 159.034 123.172 159.566 122.495 159.566H96.6309H70.7669C70.09 159.566 69.5583 159.034 69.5583 158.357C69.5583 157.68 70.09 157.148 70.7669 157.148H95.4223V139.793H36.5393C31.7049 139.793 27.7891 135.877 27.7891 131.043V62.5391C27.7891 57.7047 31.7049 53.7888 36.5393 53.7888H125.976L136.708 35.2247C138.69 31.7439 143.186 30.5353 146.667 32.5658C150.148 34.5479 151.356 39.0439 149.326 42.5247L142.848 53.7888ZM145.458 34.6446C143.138 33.291 140.141 34.1128 138.787 36.4333L127.764 55.5776L119.063 70.6125C117.709 72.9331 118.531 75.9304 120.851 77.284C122.012 77.9125 123.317 78.1059 124.574 77.7675C125.831 77.4291 126.846 76.6072 127.523 75.4953L139.705 54.369L147.247 41.3161C148.601 38.9956 147.779 35.9982 145.458 34.6446ZM121.431 86.0826C122.06 84.9224 122.253 83.6171 121.915 82.3601C121.576 81.1032 120.755 80.0396 119.643 79.4112C118.918 78.9761 118.096 78.7343 117.226 78.7343C116.839 78.7343 116.404 78.7827 115.969 78.8794C113.358 79.6045 111.811 82.2635 112.488 84.874L113.745 89.6117L118.482 88.3548C119.739 88.0164 120.755 87.1946 121.431 86.0826ZM156.771 137.376C160.252 137.376 163.104 134.523 163.104 131.043H163.152V62.5875C163.152 59.1067 160.3 56.2544 156.819 56.2544H141.494L129.65 76.8006C128.683 78.4926 127.088 79.7012 125.202 80.1847C124.719 80.3297 124.235 80.378 123.752 80.4264C123.994 80.8615 124.139 81.2966 124.284 81.78C124.816 83.6654 124.525 85.6475 123.559 87.3396C122.592 89.0316 120.996 90.2402 119.111 90.7237L113.213 92.319C113.116 92.3674 113.02 92.3674 112.923 92.3674C112.391 92.3674 111.908 91.9806 111.763 91.4488L110.167 85.5509C109.152 81.6833 111.473 77.6708 115.34 76.6072C115.824 76.4622 116.307 76.4138 116.79 76.3655C115.727 74.2384 115.727 71.6761 116.984 69.4523L124.622 56.206H36.5877C33.1069 56.206 30.2546 59.0583 30.2546 62.5391V131.043C30.2546 134.523 33.1069 137.376 36.5877 137.376H96.6793H156.771ZM103.519 99.34C105.205 96.6421 107.091 93.6243 110.989 93.6243C111.666 93.6243 112.198 94.1561 112.198 94.8329C112.198 95.5097 111.666 96.0415 110.989 96.0415C108.456 96.0415 107.151 98.1212 105.627 100.551L105.575 100.634L105.551 100.671C103.865 103.369 101.979 106.387 98.0814 106.387C94.1835 106.387 92.2975 103.369 90.6114 100.671L90.5881 100.634C89.0894 98.1687 87.7358 96.0415 85.1736 96.0415C82.6401 96.0415 81.3356 98.1211 79.8111 100.551L79.7591 100.634L79.7358 100.671C78.0497 103.369 76.1637 106.387 72.2658 106.387C68.3678 106.387 66.4818 103.369 64.7957 100.671L64.7724 100.634C63.2738 98.1687 61.9201 96.0415 59.3579 96.0415C58.681 96.0415 58.1493 95.5097 58.1493 94.8329C58.1493 94.1561 58.681 93.6243 59.3579 93.6243C63.2558 93.6243 65.1418 96.6421 66.8279 99.34L66.8512 99.3773C68.3498 101.843 69.7035 103.97 72.2658 103.97C74.7992 103.97 76.1037 101.89 77.6282 99.4603L77.6803 99.3773L77.7035 99.34C79.3896 96.6422 81.2757 93.6243 85.1736 93.6243C89.0715 93.6243 90.9575 96.6422 92.6436 99.34L92.6669 99.3773C94.1656 101.843 95.5192 103.97 98.0814 103.97C100.615 103.97 101.92 101.89 103.444 99.4601L103.496 99.3773L103.519 99.34Z" fill="url(#paint0_radial_1829_3285)"/>
<path fill-rule="evenodd" clip-rule="evenodd" d="M142.848 53.7888H156.771C161.605 53.7888 165.521 57.7047 165.473 62.5391V131.091C165.473 135.925 161.557 139.841 156.723 139.841H97.8395V157.148H122.495C123.172 157.148 123.704 157.68 123.704 158.357C123.704 159.034 123.172 159.566 122.495 159.566H96.6309H70.7669C70.09 159.566 69.5583 159.034 69.5583 158.357C69.5583 157.68 70.09 157.148 70.7669 157.148H95.4223V139.793H36.5393C31.7049 139.793 27.7891 135.877 27.7891 131.043V62.5391C27.7891 57.7047 31.7049 53.7888 36.5393 53.7888H125.976L136.708 35.2247C138.69 31.7439 143.186 30.5353 146.667 32.5658C150.148 34.5479 151.356 39.0439 149.326 42.5247L142.848 53.7888ZM145.458 34.6446C143.138 33.291 140.141 34.1128 138.787 36.4333L127.764 55.5776L119.063 70.6125C117.709 72.9331 118.531 75.9304 120.851 77.284C122.012 77.9125 123.317 78.1059 124.574 77.7675C125.831 77.4291 126.846 76.6072 127.523 75.4953L139.705 54.369L147.247 41.3161C148.601 38.9956 147.779 35.9982 145.458 34.6446ZM121.431 86.0826C122.06 84.9224 122.253 83.6171 121.915 82.3601C121.576 81.1032 120.755 80.0396 119.643 79.4112C118.918 78.9761 118.096 78.7343 117.226 78.7343C116.839 78.7343 116.404 78.7827 115.969 78.8794C113.358 79.6045 111.811 82.2635 112.488 84.874L113.745 89.6117L118.482 88.3548C119.739 88.0164 120.755 87.1946 121.431 86.0826ZM156.771 137.376C160.252 137.376 163.104 134.523 163.104 131.043H163.152V62.5875C163.152 59.1067 160.3 56.2544 156.819 56.2544H141.494L129.65 76.8006C128.683 78.4926 127.088 79.7012 125.202 80.1847C124.719 80.3297 124.235 80.378 123.752 80.4264C123.994 80.8615 124.139 81.2966 124.284 81.78C124.816 83.6654 124.525 85.6475 123.559 87.3396C122.592 89.0316 120.996 90.2402 119.111 90.7237L113.213 92.319C113.116 92.3674 113.02 92.3674 112.923 92.3674C112.391 92.3674 111.908 91.9806 111.763 91.4488L110.167 85.5509C109.152 81.6833 111.473 77.6708 115.34 76.6072C115.824 76.4622 116.307 76.4138 116.79 76.3655C115.727 74.2384 115.727 71.6761 116.984 69.4523L124.622 56.206H36.5877C33.1069 56.206 30.2546 59.0583 30.2546 62.5391V131.043C30.2546 134.523 33.1069 137.376 36.5877 137.376H96.6793H156.771ZM103.519 99.34C105.205 96.6421 107.091 93.6243 110.989 93.6243C111.666 93.6243 112.198 94.1561 112.198 94.8329C112.198 95.5097 111.666 96.0415 110.989 96.0415C108.456 96.0415 107.151 98.1212 105.627 100.551L105.575 100.634L105.551 100.671C103.865 103.369 101.979 106.387 98.0814 106.387C94.1835 106.387 92.2975 103.369 90.6114 100.671L90.5881 100.634C89.0894 98.1687 87.7358 96.0415 85.1736 96.0415C82.6401 96.0415 81.3356 98.1211 79.8111 100.551L79.7591 100.634L79.7358 100.671C78.0497 103.369 76.1637 106.387 72.2658 106.387C68.3678 106.387 66.4818 103.369 64.7957 100.671L64.7724 100.634C63.2738 98.1687 61.9201 96.0415 59.3579 96.0415C58.681 96.0415 58.1493 95.5097 58.1493 94.8329C58.1493 94.1561 58.681 93.6243 59.3579 93.6243C63.2558 93.6243 65.1418 96.6421 66.8279 99.34L66.8512 99.3773C68.3498 101.843 69.7035 103.97 72.2658 103.97C74.7992 103.97 76.1037 101.89 77.6282 99.4603L77.6803 99.3773L77.7035 99.34C79.3896 96.6422 81.2757 93.6243 85.1736 93.6243C89.0715 93.6243 90.9575 96.6422 92.6436 99.34L92.6669 99.3773C94.1656 101.843 95.5192 103.97 98.0814 103.97C100.615 103.97 101.92 101.89 103.444 99.4601L103.496 99.3773L103.519 99.34Z" fill="url(#paint1_radial_1829_3285)"/>
<path fill-rule="evenodd" clip-rule="evenodd" d="M142.848 53.7888H156.771C161.605 53.7888 165.521 57.7047 165.473 62.5391V131.091C165.473 135.925 161.557 139.841 156.723 139.841H97.8395V157.148H122.495C123.172 157.148 123.704 157.68 123.704 158.357C123.704 159.034 123.172 159.566 122.495 159.566H96.6309H70.7669C70.09 159.566 69.5583 159.034 69.5583 158.357C69.5583 157.68 70.09 157.148 70.7669 157.148H95.4223V139.793H36.5393C31.7049 139.793 27.7891 135.877 27.7891 131.043V62.5391C27.7891 57.7047 31.7049 53.7888 36.5393 53.7888H125.976L136.708 35.2247C138.69 31.7439 143.186 30.5353 146.667 32.5658C150.148 34.5479 151.356 39.0439 149.326 42.5247L142.848 53.7888ZM145.458 34.6446C143.138 33.291 140.141 34.1128 138.787 36.4333L127.764 55.5776L119.063 70.6125C117.709 72.9331 118.531 75.9304 120.851 77.284C122.012 77.9125 123.317 78.1059 124.574 77.7675C125.831 77.4291 126.846 76.6072 127.523 75.4953L139.705 54.369L147.247 41.3161C148.601 38.9956 147.779 35.9982 145.458 34.6446ZM121.431 86.0826C122.06 84.9224 122.253 83.6171 121.915 82.3601C121.576 81.1032 120.755 80.0396 119.643 79.4112C118.918 78.9761 118.096 78.7343 117.226 78.7343C116.839 78.7343 116.404 78.7827 115.969 78.8794C113.358 79.6045 111.811 82.2635 112.488 84.874L113.745 89.6117L118.482 88.3548C119.739 88.0164 120.755 87.1946 121.431 86.0826ZM156.771 137.376C160.252 137.376 163.104 134.523 163.104 131.043H163.152V62.5875C163.152 59.1067 160.3 56.2544 156.819 56.2544H141.494L129.65 76.8006C128.683 78.4926 127.088 79.7012 125.202 80.1847C124.719 80.3297 124.235 80.378 123.752 80.4264C123.994 80.8615 124.139 81.2966 124.284 81.78C124.816 83.6654 124.525 85.6475 123.559 87.3396C122.592 89.0316 120.996 90.2402 119.111 90.7237L113.213 92.319C113.116 92.3674 113.02 92.3674 112.923 92.3674C112.391 92.3674 111.908 91.9806 111.763 91.4488L110.167 85.5509C109.152 81.6833 111.473 77.6708 115.34 76.6072C115.824 76.4622 116.307 76.4138 116.79 76.3655C115.727 74.2384 115.727 71.6761 116.984 69.4523L124.622 56.206H36.5877C33.1069 56.206 30.2546 59.0583 30.2546 62.5391V131.043C30.2546 134.523 33.1069 137.376 36.5877 137.376H96.6793H156.771ZM103.519 99.34C105.205 96.6421 107.091 93.6243 110.989 93.6243C111.666 93.6243 112.198 94.1561 112.198 94.8329C112.198 95.5097 111.666 96.0415 110.989 96.0415C108.456 96.0415 107.151 98.1212 105.627 100.551L105.575 100.634L105.551 100.671C103.865 103.369 101.979 106.387 98.0814 106.387C94.1835 106.387 92.2975 103.369 90.6114 100.671L90.5881 100.634C89.0894 98.1687 87.7358 96.0415 85.1736 96.0415C82.6401 96.0415 81.3356 98.1211 79.8111 100.551L79.7591 100.634L79.7358 100.671C78.0497 103.369 76.1637 106.387 72.2658 106.387C68.3678 106.387 66.4818 103.369 64.7957 100.671L64.7724 100.634C63.2738 98.1687 61.9201 96.0415 59.3579 96.0415C58.681 96.0415 58.1493 95.5097 58.1493 94.8329C58.1493 94.1561 58.681 93.6243 59.3579 93.6243C63.2558 93.6243 65.1418 96.6421 66.8279 99.34L66.8512 99.3773C68.3498 101.843 69.7035 103.97 72.2658 103.97C74.7992 103.97 76.1037 101.89 77.6282 99.4603L77.6803 99.3773L77.7035 99.34C79.3896 96.6422 81.2757 93.6243 85.1736 93.6243C89.0715 93.6243 90.9575 96.6422 92.6436 99.34L92.6669 99.3773C94.1656 101.843 95.5192 103.97 98.0814 103.97C100.615 103.97 101.92 101.89 103.444 99.4601L103.496 99.3773L103.519 99.34Z" fill="url(#paint2_radial_1829_3285)"/>
<path fill-rule="evenodd" clip-rule="evenodd" d="M142.848 53.7888H156.771C161.605 53.7888 165.521 57.7047 165.473 62.5391V131.091C165.473 135.925 161.557 139.841 156.723 139.841H97.8395V157.148H122.495C123.172 157.148 123.704 157.68 123.704 158.357C123.704 159.034 123.172 159.566 122.495 159.566H96.6309H70.7669C70.09 159.566 69.5583 159.034 69.5583 158.357C69.5583 157.68 70.09 157.148 70.7669 157.148H95.4223V139.793H36.5393C31.7049 139.793 27.7891 135.877 27.7891 131.043V62.5391C27.7891 57.7047 31.7049 53.7888 36.5393 53.7888H125.976L136.708 35.2247C138.69 31.7439 143.186 30.5353 146.667 32.5658C150.148 34.5479 151.356 39.0439 149.326 42.5247L142.848 53.7888ZM145.458 34.6446C143.138 33.291 140.141 34.1128 138.787 36.4333L127.764 55.5776L119.063 70.6125C117.709 72.9331 118.531 75.9304 120.851 77.284C122.012 77.9125 123.317 78.1059 124.574 77.7675C125.831 77.4291 126.846 76.6072 127.523 75.4953L139.705 54.369L147.247 41.3161C148.601 38.9956 147.779 35.9982 145.458 34.6446ZM121.431 86.0826C122.06 84.9224 122.253 83.6171 121.915 82.3601C121.576 81.1032 120.755 80.0396 119.643 79.4112C118.918 78.9761 118.096 78.7343 117.226 78.7343C116.839 78.7343 116.404 78.7827 115.969 78.8794C113.358 79.6045 111.811 82.2635 112.488 84.874L113.745 89.6117L118.482 88.3548C119.739 88.0164 120.755 87.1946 121.431 86.0826ZM156.771 137.376C160.252 137.376 163.104 134.523 163.104 131.043H163.152V62.5875C163.152 59.1067 160.3 56.2544 156.819 56.2544H141.494L129.65 76.8006C128.683 78.4926 127.088 79.7012 125.202 80.1847C124.719 80.3297 124.235 80.378 123.752 80.4264C123.994 80.8615 124.139 81.2966 124.284 81.78C124.816 83.6654 124.525 85.6475 123.559 87.3396C122.592 89.0316 120.996 90.2402 119.111 90.7237L113.213 92.319C113.116 92.3674 113.02 92.3674 112.923 92.3674C112.391 92.3674 111.908 91.9806 111.763 91.4488L110.167 85.5509C109.152 81.6833 111.473 77.6708 115.34 76.6072C115.824 76.4622 116.307 76.4138 116.79 76.3655C115.727 74.2384 115.727 71.6761 116.984 69.4523L124.622 56.206H36.5877C33.1069 56.206 30.2546 59.0583 30.2546 62.5391V131.043C30.2546 134.523 33.1069 137.376 36.5877 137.376H96.6793H156.771ZM103.519 99.34C105.205 96.6421 107.091 93.6243 110.989 93.6243C111.666 93.6243 112.198 94.1561 112.198 94.8329C112.198 95.5097 111.666 96.0415 110.989 96.0415C108.456 96.0415 107.151 98.1212 105.627 100.551L105.575 100.634L105.551 100.671C103.865 103.369 101.979 106.387 98.0814 106.387C94.1835 106.387 92.2975 103.369 90.6114 100.671L90.5881 100.634C89.0894 98.1687 87.7358 96.0415 85.1736 96.0415C82.6401 96.0415 81.3356 98.1211 79.8111 100.551L79.7591 100.634L79.7358 100.671C78.0497 103.369 76.1637 106.387 72.2658 106.387C68.3678 106.387 66.4818 103.369 64.7957 100.671L64.7724 100.634C63.2738 98.1687 61.9201 96.0415 59.3579 96.0415C58.681 96.0415 58.1493 95.5097 58.1493 94.8329C58.1493 94.1561 58.681 93.6243 59.3579 93.6243C63.2558 93.6243 65.1418 96.6421 66.8279 99.34L66.8512 99.3773C68.3498 101.843 69.7035 103.97 72.2658 103.97C74.7992 103.97 76.1037 101.89 77.6282 99.4603L77.6803 99.3773L77.7035 99.34C79.3896 96.6422 81.2757 93.6243 85.1736 93.6243C89.0715 93.6243 90.9575 96.6422 92.6436 99.34L92.6669 99.3773C94.1656 101.843 95.5192 103.97 98.0814 103.97C100.615 103.97 101.92 101.89 103.444 99.4601L103.496 99.3773L103.519 99.34Z" fill="url(#paint3_radial_1829_3285)"/>
<defs>
<radialGradient id="paint0_radial_1829_3285" cx="0" cy="0" r="1" gradientUnits="userSpaceOnUse" gradientTransform="translate(27.7891 159.566) rotate(-34.6627) scale(194.166 189.672)">
<stop stop-color="#66D2FD"/>
<stop offset="0.25" stop-color="#91DDFF"/>
<stop offset="0.5" stop-color="#ED50B9"/>
<stop offset="0.75" stop-color="#F8086E"/>
<stop offset="0.940085" stop-color="#FF5546"/>
</radialGradient>
<radialGradient id="paint1_radial_1829_3285" cx="0" cy="0" r="1" gradientUnits="userSpaceOnUse" gradientTransform="translate(37.0757 76.243) rotate(41.3957) scale(156.089 86.7382)">
<stop offset="0.0149216" stop-color="#6843E7"/>
<stop offset="0.860954" stop-color="#6843E7" stop-opacity="0"/>
</radialGradient>
<radialGradient id="paint2_radial_1829_3285" cx="0" cy="0" r="1" gradientUnits="userSpaceOnUse" gradientTransform="translate(165.473 154.311) rotate(-103.226) scale(97.0631 103.675)">
<stop stop-color="#FADAC7"/>
<stop offset="0.924249" stop-color="#FADAC7" stop-opacity="0"/>
</radialGradient>
<radialGradient id="paint3_radial_1829_3285" cx="0" cy="0" r="1" gradientUnits="userSpaceOnUse" gradientTransform="translate(64.3299 159.566) scale(78.9363 64.076)">
<stop stop-color="#65CDFC"/>
<stop offset="1" stop-color="#65CDFC" stop-opacity="0"/>
</radialGradient>
</defs>
</svg>
