<svg width="192" height="192" viewBox="0 0 192 192" fill="none" xmlns="http://www.w3.org/2000/svg">
<path fill-rule="evenodd" clip-rule="evenodd" d="M69.9382 46.8668C69.9382 42.5552 73.4334 39.0599 77.7451 39.0599C82.0567 39.0599 85.5519 42.5552 85.5519 46.8668C85.5519 51.1784 82.0567 54.6736 77.7451 54.6736C73.4334 54.6736 69.9382 51.1784 69.9382 46.8668ZM77.7451 36.7295C72.1464 36.7295 67.6078 41.2681 67.6078 46.8668C67.6078 52.4654 72.1464 57.0041 77.7451 57.0041C83.3437 57.0041 87.8823 52.4654 87.8823 46.8668C87.8823 41.2681 83.3437 36.7295 77.7451 36.7295ZM129.131 48.3807V68.5387H151.815L143.248 59.2497C142.836 58.8034 142.836 58.116 143.248 57.6697L151.815 48.3807H129.131ZM126.801 69.7039V47.2155C126.801 46.5719 127.323 46.0503 127.966 46.0503H154.475C154.937 46.0503 155.356 46.3241 155.542 46.7479C155.728 47.1717 155.645 47.6653 155.331 48.0054L145.689 58.4597L155.331 68.9139C155.645 69.254 155.728 69.7476 155.542 70.1714C155.356 70.5953 154.937 70.8691 154.475 70.8691H129.131V107.923H140.782C141.426 107.923 141.948 108.444 141.948 109.088C141.948 109.732 141.426 110.253 140.782 110.253H108.681V130.936C108.681 131.579 108.159 132.101 107.516 132.101H75.4145V152.841C75.4145 153.485 74.8928 154.007 74.2493 154.007H42.148C41.5045 154.007 40.9828 153.485 40.9828 152.841C40.9828 152.198 41.5045 151.676 42.148 151.676H73.0841V130.936C73.0841 130.292 73.6058 129.77 74.2493 129.77H75.4145H106.351V109.088C106.351 108.444 106.872 107.923 107.516 107.923H108.681H126.801V69.7039ZM57.4273 60.561C57.6425 60.232 58.0092 60.0338 58.4023 60.0338H78.6768C81.7984 60.0338 84.7195 61.5622 86.5095 64.1479L86.5154 64.1564L86.5154 64.1564L92.3995 72.8191L102.808 71.3477L102.819 71.3462C105.666 70.9717 108.31 72.9915 108.616 75.8704C108.917 78.5314 107.091 80.9291 104.482 81.4509L104.467 81.4536L90.7763 84.0171C90.3711 84.093 89.9559 83.949 89.6846 83.6386L82.8229 75.7884C82.8131 75.7785 82.8055 75.7729 82.8006 75.7698C82.7977 75.7679 82.7952 75.7666 82.793 75.7655C82.7908 75.7646 82.789 75.7639 82.7876 75.7634C82.7815 75.7615 82.7752 75.7612 82.7691 75.7624C82.7669 75.7629 82.7653 75.7634 82.764 75.7639C82.7632 75.7643 82.7625 75.7646 82.7621 75.7649C82.7619 75.765 82.7618 75.7651 82.7617 75.7651L82.7611 75.766C82.7605 75.7669 82.7581 75.7705 82.7552 75.7783L78.536 89.2128L89.5474 100.951C89.6688 101.08 89.759 101.236 89.8112 101.405L95.4624 119.757L95.4657 119.768C96.3048 122.59 94.4709 125.549 91.4408 125.861C89.3203 126.087 87.2916 124.946 86.5062 122.915L79.803 106.185L72.283 99.966L72.2729 99.9576L72.2729 99.9576C71.3474 99.1744 69.9229 99.4977 69.4267 100.596L69.4265 100.597L66.397 107.297L66.3969 107.297C65.1 110.164 62.2302 112.01 59.0232 111.943L59.0184 111.943L42.3645 111.71L42.3537 111.71C39.2313 111.638 36.7295 109.155 36.7295 106.001C36.7295 102.847 39.2313 100.364 42.3537 100.292L42.3716 100.292L56.3203 100.181L67.628 71.0313C67.6371 71.0079 67.6469 70.9848 67.6575 70.9621C68.0205 70.1801 67.4251 69.0641 66.2674 69.0641H63.2217L57.0327 80.116C55.7518 82.4457 52.8309 83.4293 50.4067 82.3023C47.4704 81.012 46.4451 77.4084 48.157 74.7289L48.1638 74.7182L48.1639 74.7182L57.4273 60.561ZM59.0324 62.3642L50.1177 75.9885C49.1569 77.4986 49.7571 79.477 51.3523 80.1723L51.3671 80.1789L51.3813 80.1854C52.6812 80.7948 54.2932 80.265 54.992 78.9906L54.997 78.9816L54.997 78.9816L61.5221 67.3296C61.7282 66.9616 62.117 66.7337 62.5388 66.7337H66.2674C68.9415 66.7337 70.9031 69.4355 69.7883 71.906L58.2069 101.762C58.0342 102.207 57.6073 102.502 57.1298 102.505L42.3995 102.622C40.5156 102.67 39.0599 104.147 39.0599 106.001C39.0599 107.856 40.5173 109.334 42.4027 109.38L42.4079 109.38L59.0594 109.613L59.0679 109.613C61.3354 109.662 63.3572 108.362 64.2736 106.337L64.2737 106.336L67.3028 99.6372C68.437 97.1258 71.669 96.3995 73.7731 98.1742L81.5168 104.579C81.6669 104.703 81.7834 104.863 81.8558 105.043L88.6722 122.055L88.6782 122.07C89.0599 123.063 90.0568 123.666 91.1952 123.544L91.2004 123.543C92.7113 123.388 93.6721 121.923 93.2334 120.437L93.2319 120.432L87.6633 102.349L76.3705 90.3106C76.0827 90.0038 75.9826 89.5656 76.1086 89.1643L80.5364 75.0653L80.5427 75.046C81.1238 73.3027 83.324 72.886 84.5462 74.2193L84.5538 74.2278L84.5645 74.2398L91.0014 81.604L104.024 79.1657L104.031 79.1644C105.495 78.8684 106.461 77.5423 106.3 76.1294L106.299 76.119C106.136 74.5743 104.706 73.4512 103.128 73.656L103.123 73.6567L92.0067 75.2282C91.5667 75.2904 91.1295 75.0968 90.8798 74.7292L84.5935 65.4744L84.5908 65.4705C83.2346 63.5143 81.0301 62.3642 78.6768 62.3642H59.0324Z" fill="url(#paint0_radial_1829_2457)"/>
<path fill-rule="evenodd" clip-rule="evenodd" d="M69.9382 46.8668C69.9382 42.5552 73.4334 39.0599 77.7451 39.0599C82.0567 39.0599 85.5519 42.5552 85.5519 46.8668C85.5519 51.1784 82.0567 54.6736 77.7451 54.6736C73.4334 54.6736 69.9382 51.1784 69.9382 46.8668ZM77.7451 36.7295C72.1464 36.7295 67.6078 41.2681 67.6078 46.8668C67.6078 52.4654 72.1464 57.0041 77.7451 57.0041C83.3437 57.0041 87.8823 52.4654 87.8823 46.8668C87.8823 41.2681 83.3437 36.7295 77.7451 36.7295ZM129.131 48.3807V68.5387H151.815L143.248 59.2497C142.836 58.8034 142.836 58.116 143.248 57.6697L151.815 48.3807H129.131ZM126.801 69.7039V47.2155C126.801 46.5719 127.323 46.0503 127.966 46.0503H154.475C154.937 46.0503 155.356 46.3241 155.542 46.7479C155.728 47.1717 155.645 47.6653 155.331 48.0054L145.689 58.4597L155.331 68.9139C155.645 69.254 155.728 69.7476 155.542 70.1714C155.356 70.5953 154.937 70.8691 154.475 70.8691H129.131V107.923H140.782C141.426 107.923 141.948 108.444 141.948 109.088C141.948 109.732 141.426 110.253 140.782 110.253H108.681V130.936C108.681 131.579 108.159 132.101 107.516 132.101H75.4145V152.841C75.4145 153.485 74.8928 154.007 74.2493 154.007H42.148C41.5045 154.007 40.9828 153.485 40.9828 152.841C40.9828 152.198 41.5045 151.676 42.148 151.676H73.0841V130.936C73.0841 130.292 73.6058 129.77 74.2493 129.77H75.4145H106.351V109.088C106.351 108.444 106.872 107.923 107.516 107.923H108.681H126.801V69.7039ZM57.4273 60.561C57.6425 60.232 58.0092 60.0338 58.4023 60.0338H78.6768C81.7984 60.0338 84.7195 61.5622 86.5095 64.1479L86.5154 64.1564L86.5154 64.1564L92.3995 72.8191L102.808 71.3477L102.819 71.3462C105.666 70.9717 108.31 72.9915 108.616 75.8704C108.917 78.5314 107.091 80.9291 104.482 81.4509L104.467 81.4536L90.7763 84.0171C90.3711 84.093 89.9559 83.949 89.6846 83.6386L82.8229 75.7884C82.8131 75.7785 82.8055 75.7729 82.8006 75.7698C82.7977 75.7679 82.7952 75.7666 82.793 75.7655C82.7908 75.7646 82.789 75.7639 82.7876 75.7634C82.7815 75.7615 82.7752 75.7612 82.7691 75.7624C82.7669 75.7629 82.7653 75.7634 82.764 75.7639C82.7632 75.7643 82.7625 75.7646 82.7621 75.7649C82.7619 75.765 82.7618 75.7651 82.7617 75.7651L82.7611 75.766C82.7605 75.7669 82.7581 75.7705 82.7552 75.7783L78.536 89.2128L89.5474 100.951C89.6688 101.08 89.759 101.236 89.8112 101.405L95.4624 119.757L95.4657 119.768C96.3048 122.59 94.4709 125.549 91.4408 125.861C89.3203 126.087 87.2916 124.946 86.5062 122.915L79.803 106.185L72.283 99.966L72.2729 99.9576L72.2729 99.9576C71.3474 99.1744 69.9229 99.4977 69.4267 100.596L69.4265 100.597L66.397 107.297L66.3969 107.297C65.1 110.164 62.2302 112.01 59.0232 111.943L59.0184 111.943L42.3645 111.71L42.3537 111.71C39.2313 111.638 36.7295 109.155 36.7295 106.001C36.7295 102.847 39.2313 100.364 42.3537 100.292L42.3716 100.292L56.3203 100.181L67.628 71.0313C67.6371 71.0079 67.6469 70.9848 67.6575 70.9621C68.0205 70.1801 67.4251 69.0641 66.2674 69.0641H63.2217L57.0327 80.116C55.7518 82.4457 52.8309 83.4293 50.4067 82.3023C47.4704 81.012 46.4451 77.4084 48.157 74.7289L48.1638 74.7182L48.1639 74.7182L57.4273 60.561ZM59.0324 62.3642L50.1177 75.9885C49.1569 77.4986 49.7571 79.477 51.3523 80.1723L51.3671 80.1789L51.3813 80.1854C52.6812 80.7948 54.2932 80.265 54.992 78.9906L54.997 78.9816L54.997 78.9816L61.5221 67.3296C61.7282 66.9616 62.117 66.7337 62.5388 66.7337H66.2674C68.9415 66.7337 70.9031 69.4355 69.7883 71.906L58.2069 101.762C58.0342 102.207 57.6073 102.502 57.1298 102.505L42.3995 102.622C40.5156 102.67 39.0599 104.147 39.0599 106.001C39.0599 107.856 40.5173 109.334 42.4027 109.38L42.4079 109.38L59.0594 109.613L59.0679 109.613C61.3354 109.662 63.3572 108.362 64.2736 106.337L64.2737 106.336L67.3028 99.6372C68.437 97.1258 71.669 96.3995 73.7731 98.1742L81.5168 104.579C81.6669 104.703 81.7834 104.863 81.8558 105.043L88.6722 122.055L88.6782 122.07C89.0599 123.063 90.0568 123.666 91.1952 123.544L91.2004 123.543C92.7113 123.388 93.6721 121.923 93.2334 120.437L93.2319 120.432L87.6633 102.349L76.3705 90.3106C76.0827 90.0038 75.9826 89.5656 76.1086 89.1643L80.5364 75.0653L80.5427 75.046C81.1238 73.3027 83.324 72.886 84.5462 74.2193L84.5538 74.2278L84.5645 74.2398L91.0014 81.604L104.024 79.1657L104.031 79.1644C105.495 78.8684 106.461 77.5423 106.3 76.1294L106.299 76.119C106.136 74.5743 104.706 73.4512 103.128 73.656L103.123 73.6567L92.0067 75.2282C91.5667 75.2904 91.1295 75.0968 90.8798 74.7292L84.5935 65.4744L84.5908 65.4705C83.2346 63.5143 81.0301 62.3642 78.6768 62.3642H59.0324Z" fill="url(#paint1_radial_1829_2457)"/>
<path fill-rule="evenodd" clip-rule="evenodd" d="M69.9382 46.8668C69.9382 42.5552 73.4334 39.0599 77.7451 39.0599C82.0567 39.0599 85.5519 42.5552 85.5519 46.8668C85.5519 51.1784 82.0567 54.6736 77.7451 54.6736C73.4334 54.6736 69.9382 51.1784 69.9382 46.8668ZM77.7451 36.7295C72.1464 36.7295 67.6078 41.2681 67.6078 46.8668C67.6078 52.4654 72.1464 57.0041 77.7451 57.0041C83.3437 57.0041 87.8823 52.4654 87.8823 46.8668C87.8823 41.2681 83.3437 36.7295 77.7451 36.7295ZM129.131 48.3807V68.5387H151.815L143.248 59.2497C142.836 58.8034 142.836 58.116 143.248 57.6697L151.815 48.3807H129.131ZM126.801 69.7039V47.2155C126.801 46.5719 127.323 46.0503 127.966 46.0503H154.475C154.937 46.0503 155.356 46.3241 155.542 46.7479C155.728 47.1717 155.645 47.6653 155.331 48.0054L145.689 58.4597L155.331 68.9139C155.645 69.254 155.728 69.7476 155.542 70.1714C155.356 70.5953 154.937 70.8691 154.475 70.8691H129.131V107.923H140.782C141.426 107.923 141.948 108.444 141.948 109.088C141.948 109.732 141.426 110.253 140.782 110.253H108.681V130.936C108.681 131.579 108.159 132.101 107.516 132.101H75.4145V152.841C75.4145 153.485 74.8928 154.007 74.2493 154.007H42.148C41.5045 154.007 40.9828 153.485 40.9828 152.841C40.9828 152.198 41.5045 151.676 42.148 151.676H73.0841V130.936C73.0841 130.292 73.6058 129.77 74.2493 129.77H75.4145H106.351V109.088C106.351 108.444 106.872 107.923 107.516 107.923H108.681H126.801V69.7039ZM57.4273 60.561C57.6425 60.232 58.0092 60.0338 58.4023 60.0338H78.6768C81.7984 60.0338 84.7195 61.5622 86.5095 64.1479L86.5154 64.1564L86.5154 64.1564L92.3995 72.8191L102.808 71.3477L102.819 71.3462C105.666 70.9717 108.31 72.9915 108.616 75.8704C108.917 78.5314 107.091 80.9291 104.482 81.4509L104.467 81.4536L90.7763 84.0171C90.3711 84.093 89.9559 83.949 89.6846 83.6386L82.8229 75.7884C82.8131 75.7785 82.8055 75.7729 82.8006 75.7698C82.7977 75.7679 82.7952 75.7666 82.793 75.7655C82.7908 75.7646 82.789 75.7639 82.7876 75.7634C82.7815 75.7615 82.7752 75.7612 82.7691 75.7624C82.7669 75.7629 82.7653 75.7634 82.764 75.7639C82.7632 75.7643 82.7625 75.7646 82.7621 75.7649C82.7619 75.765 82.7618 75.7651 82.7617 75.7651L82.7611 75.766C82.7605 75.7669 82.7581 75.7705 82.7552 75.7783L78.536 89.2128L89.5474 100.951C89.6688 101.08 89.759 101.236 89.8112 101.405L95.4624 119.757L95.4657 119.768C96.3048 122.59 94.4709 125.549 91.4408 125.861C89.3203 126.087 87.2916 124.946 86.5062 122.915L79.803 106.185L72.283 99.966L72.2729 99.9576L72.2729 99.9576C71.3474 99.1744 69.9229 99.4977 69.4267 100.596L69.4265 100.597L66.397 107.297L66.3969 107.297C65.1 110.164 62.2302 112.01 59.0232 111.943L59.0184 111.943L42.3645 111.71L42.3537 111.71C39.2313 111.638 36.7295 109.155 36.7295 106.001C36.7295 102.847 39.2313 100.364 42.3537 100.292L42.3716 100.292L56.3203 100.181L67.628 71.0313C67.6371 71.0079 67.6469 70.9848 67.6575 70.9621C68.0205 70.1801 67.4251 69.0641 66.2674 69.0641H63.2217L57.0327 80.116C55.7518 82.4457 52.8309 83.4293 50.4067 82.3023C47.4704 81.012 46.4451 77.4084 48.157 74.7289L48.1638 74.7182L48.1639 74.7182L57.4273 60.561ZM59.0324 62.3642L50.1177 75.9885C49.1569 77.4986 49.7571 79.477 51.3523 80.1723L51.3671 80.1789L51.3813 80.1854C52.6812 80.7948 54.2932 80.265 54.992 78.9906L54.997 78.9816L54.997 78.9816L61.5221 67.3296C61.7282 66.9616 62.117 66.7337 62.5388 66.7337H66.2674C68.9415 66.7337 70.9031 69.4355 69.7883 71.906L58.2069 101.762C58.0342 102.207 57.6073 102.502 57.1298 102.505L42.3995 102.622C40.5156 102.67 39.0599 104.147 39.0599 106.001C39.0599 107.856 40.5173 109.334 42.4027 109.38L42.4079 109.38L59.0594 109.613L59.0679 109.613C61.3354 109.662 63.3572 108.362 64.2736 106.337L64.2737 106.336L67.3028 99.6372C68.437 97.1258 71.669 96.3995 73.7731 98.1742L81.5168 104.579C81.6669 104.703 81.7834 104.863 81.8558 105.043L88.6722 122.055L88.6782 122.07C89.0599 123.063 90.0568 123.666 91.1952 123.544L91.2004 123.543C92.7113 123.388 93.6721 121.923 93.2334 120.437L93.2319 120.432L87.6633 102.349L76.3705 90.3106C76.0827 90.0038 75.9826 89.5656 76.1086 89.1643L80.5364 75.0653L80.5427 75.046C81.1238 73.3027 83.324 72.886 84.5462 74.2193L84.5538 74.2278L84.5645 74.2398L91.0014 81.604L104.024 79.1657L104.031 79.1644C105.495 78.8684 106.461 77.5423 106.3 76.1294L106.299 76.119C106.136 74.5743 104.706 73.4512 103.128 73.656L103.123 73.6567L92.0067 75.2282C91.5667 75.2904 91.1295 75.0968 90.8798 74.7292L84.5935 65.4744L84.5908 65.4705C83.2346 63.5143 81.0301 62.3642 78.6768 62.3642H59.0324Z" fill="url(#paint2_radial_1829_2457)"/>
<path fill-rule="evenodd" clip-rule="evenodd" d="M69.9382 46.8668C69.9382 42.5552 73.4334 39.0599 77.7451 39.0599C82.0567 39.0599 85.5519 42.5552 85.5519 46.8668C85.5519 51.1784 82.0567 54.6736 77.7451 54.6736C73.4334 54.6736 69.9382 51.1784 69.9382 46.8668ZM77.7451 36.7295C72.1464 36.7295 67.6078 41.2681 67.6078 46.8668C67.6078 52.4654 72.1464 57.0041 77.7451 57.0041C83.3437 57.0041 87.8823 52.4654 87.8823 46.8668C87.8823 41.2681 83.3437 36.7295 77.7451 36.7295ZM129.131 48.3807V68.5387H151.815L143.248 59.2497C142.836 58.8034 142.836 58.116 143.248 57.6697L151.815 48.3807H129.131ZM126.801 69.7039V47.2155C126.801 46.5719 127.323 46.0503 127.966 46.0503H154.475C154.937 46.0503 155.356 46.3241 155.542 46.7479C155.728 47.1717 155.645 47.6653 155.331 48.0054L145.689 58.4597L155.331 68.9139C155.645 69.254 155.728 69.7476 155.542 70.1714C155.356 70.5953 154.937 70.8691 154.475 70.8691H129.131V107.923H140.782C141.426 107.923 141.948 108.444 141.948 109.088C141.948 109.732 141.426 110.253 140.782 110.253H108.681V130.936C108.681 131.579 108.159 132.101 107.516 132.101H75.4145V152.841C75.4145 153.485 74.8928 154.007 74.2493 154.007H42.148C41.5045 154.007 40.9828 153.485 40.9828 152.841C40.9828 152.198 41.5045 151.676 42.148 151.676H73.0841V130.936C73.0841 130.292 73.6058 129.77 74.2493 129.77H75.4145H106.351V109.088C106.351 108.444 106.872 107.923 107.516 107.923H108.681H126.801V69.7039ZM57.4273 60.561C57.6425 60.232 58.0092 60.0338 58.4023 60.0338H78.6768C81.7984 60.0338 84.7195 61.5622 86.5095 64.1479L86.5154 64.1564L86.5154 64.1564L92.3995 72.8191L102.808 71.3477L102.819 71.3462C105.666 70.9717 108.31 72.9915 108.616 75.8704C108.917 78.5314 107.091 80.9291 104.482 81.4509L104.467 81.4536L90.7763 84.0171C90.3711 84.093 89.9559 83.949 89.6846 83.6386L82.8229 75.7884C82.8131 75.7785 82.8055 75.7729 82.8006 75.7698C82.7977 75.7679 82.7952 75.7666 82.793 75.7655C82.7908 75.7646 82.789 75.7639 82.7876 75.7634C82.7815 75.7615 82.7752 75.7612 82.7691 75.7624C82.7669 75.7629 82.7653 75.7634 82.764 75.7639C82.7632 75.7643 82.7625 75.7646 82.7621 75.7649C82.7619 75.765 82.7618 75.7651 82.7617 75.7651L82.7611 75.766C82.7605 75.7669 82.7581 75.7705 82.7552 75.7783L78.536 89.2128L89.5474 100.951C89.6688 101.08 89.759 101.236 89.8112 101.405L95.4624 119.757L95.4657 119.768C96.3048 122.59 94.4709 125.549 91.4408 125.861C89.3203 126.087 87.2916 124.946 86.5062 122.915L79.803 106.185L72.283 99.966L72.2729 99.9576L72.2729 99.9576C71.3474 99.1744 69.9229 99.4977 69.4267 100.596L69.4265 100.597L66.397 107.297L66.3969 107.297C65.1 110.164 62.2302 112.01 59.0232 111.943L59.0184 111.943L42.3645 111.71L42.3537 111.71C39.2313 111.638 36.7295 109.155 36.7295 106.001C36.7295 102.847 39.2313 100.364 42.3537 100.292L42.3716 100.292L56.3203 100.181L67.628 71.0313C67.6371 71.0079 67.6469 70.9848 67.6575 70.9621C68.0205 70.1801 67.4251 69.0641 66.2674 69.0641H63.2217L57.0327 80.116C55.7518 82.4457 52.8309 83.4293 50.4067 82.3023C47.4704 81.012 46.4451 77.4084 48.157 74.7289L48.1638 74.7182L48.1639 74.7182L57.4273 60.561ZM59.0324 62.3642L50.1177 75.9885C49.1569 77.4986 49.7571 79.477 51.3523 80.1723L51.3671 80.1789L51.3813 80.1854C52.6812 80.7948 54.2932 80.265 54.992 78.9906L54.997 78.9816L54.997 78.9816L61.5221 67.3296C61.7282 66.9616 62.117 66.7337 62.5388 66.7337H66.2674C68.9415 66.7337 70.9031 69.4355 69.7883 71.906L58.2069 101.762C58.0342 102.207 57.6073 102.502 57.1298 102.505L42.3995 102.622C40.5156 102.67 39.0599 104.147 39.0599 106.001C39.0599 107.856 40.5173 109.334 42.4027 109.38L42.4079 109.38L59.0594 109.613L59.0679 109.613C61.3354 109.662 63.3572 108.362 64.2736 106.337L64.2737 106.336L67.3028 99.6372C68.437 97.1258 71.669 96.3995 73.7731 98.1742L81.5168 104.579C81.6669 104.703 81.7834 104.863 81.8558 105.043L88.6722 122.055L88.6782 122.07C89.0599 123.063 90.0568 123.666 91.1952 123.544L91.2004 123.543C92.7113 123.388 93.6721 121.923 93.2334 120.437L93.2319 120.432L87.6633 102.349L76.3705 90.3106C76.0827 90.0038 75.9826 89.5656 76.1086 89.1643L80.5364 75.0653L80.5427 75.046C81.1238 73.3027 83.324 72.886 84.5462 74.2193L84.5538 74.2278L84.5645 74.2398L91.0014 81.604L104.024 79.1657L104.031 79.1644C105.495 78.8684 106.461 77.5423 106.3 76.1294L106.299 76.119C106.136 74.5743 104.706 73.4512 103.128 73.656L103.123 73.6567L92.0067 75.2282C91.5667 75.2904 91.1295 75.0968 90.8798 74.7292L84.5935 65.4744L84.5908 65.4705C83.2346 63.5143 81.0301 62.3642 78.6768 62.3642H59.0324Z" fill="url(#paint3_radial_1829_2457)"/>
<defs>
<radialGradient id="paint0_radial_1829_2457" cx="0" cy="0" r="1" gradientUnits="userSpaceOnUse" gradientTransform="translate(36.7295 154.007) rotate(-36.2655) scale(171.066 170.372)">
<stop stop-color="#66D2FD"/>
<stop offset="0.25" stop-color="#91DDFF"/>
<stop offset="0.5" stop-color="#ED50B9"/>
<stop offset="0.75" stop-color="#F8086E"/>
<stop offset="0.940085" stop-color="#FF5546"/>
</radialGradient>
<radialGradient id="paint1_radial_1829_2457" cx="0" cy="0" r="1" gradientUnits="userSpaceOnUse" gradientTransform="translate(44.7498 77.6561) rotate(43.0837) scale(138.461 77.382)">
<stop offset="0.0149216" stop-color="#6843E7"/>
<stop offset="0.860954" stop-color="#6843E7" stop-opacity="0"/>
</radialGradient>
<radialGradient id="paint2_radial_1829_2457" cx="0" cy="0" r="1" gradientUnits="userSpaceOnUse" gradientTransform="translate(155.64 149.192) rotate(-102.49) scale(88.6809 89.8012)">
<stop stop-color="#FADAC7"/>
<stop offset="0.924249" stop-color="#FADAC7" stop-opacity="0"/>
</radialGradient>
<radialGradient id="paint3_radial_1829_2457" cx="0" cy="0" r="1" gradientUnits="userSpaceOnUse" gradientTransform="translate(68.2878 154.007) scale(68.1729 58.7144)">
<stop stop-color="#65CDFC"/>
<stop offset="1" stop-color="#65CDFC" stop-opacity="0"/>
</radialGradient>
</defs>
</svg>
