<svg width="192" height="192" viewBox="0 0 192 192" fill="none" xmlns="http://www.w3.org/2000/svg">
<path fill-rule="evenodd" clip-rule="evenodd" d="M140.714 52.5309C140.983 52.9955 140.823 53.5896 140.359 53.8579L127.702 61.164L149.347 98.6065C149.499 98.7382 149.611 98.9179 149.658 99.1292L149.661 99.1406L149.664 99.1537L152.622 104.271L165.279 96.9643C165.744 96.6961 166.338 96.8553 166.606 97.3199C166.874 97.7846 166.715 98.3787 166.25 98.6469L152.752 106.439C152.288 106.707 151.694 106.548 151.426 106.084L148.276 100.635C148.076 100.755 147.846 100.9 147.59 101.068C146.827 101.568 145.872 102.242 144.849 102.986C142.805 104.473 140.528 106.215 139.057 107.349C139.047 107.356 139.038 107.363 139.028 107.37C138.725 107.587 138.389 107.751 138.038 107.857C139.677 110.392 139.917 113.702 138.254 116.462C137.512 117.731 136.355 118.832 134.658 119.16C133.654 119.353 132.535 119.262 131.293 118.853C131.271 119.013 131.246 119.184 131.215 119.363C131.033 120.419 130.664 121.826 129.898 123.113C129.123 124.415 127.923 125.621 126.101 126.17C125.262 126.423 124.321 126.528 123.268 126.456L123.267 126.458L123.265 126.467L123.258 126.495L123.25 126.524L123.238 126.566L123.23 126.594C123.206 126.678 123.171 126.798 123.125 126.947C123.031 127.246 122.891 127.663 122.7 128.147C122.32 129.109 121.727 130.373 120.881 131.504C120.04 132.627 118.886 133.704 117.364 134.136C116.083 134.499 114.666 134.372 113.136 133.627C112.887 134.215 112.521 134.988 112.031 135.802C111.018 137.484 109.371 139.518 106.972 140.27C105.717 140.663 104.027 140.578 102.336 140.319C100.605 140.054 98.7167 139.579 96.9821 139.071C95.2436 138.561 93.6384 138.012 92.4691 137.591C91.8839 137.38 91.4065 137.2 91.0746 137.073C90.9551 137.028 90.8544 136.989 90.7743 136.958L89.3449 138.777L89.3441 138.778C87.4237 141.215 83.9325 141.671 81.4787 139.739L80.3766 138.882L80.3717 138.878C78.7829 137.627 78.0364 135.707 78.244 133.843C76.2552 135.584 73.2775 135.741 71.1094 134.034L71.1069 134.032L70.0073 133.177L70.0025 133.173C68.1956 131.75 67.4781 129.463 68.0144 127.375C65.7429 129.045 62.5213 129.072 60.1897 127.225L58.9088 126.249L58.9052 126.246C56.9702 124.758 56.1259 122.358 56.504 120.09C54.9695 120.613 53.2066 120.379 51.8429 119.308L51.8362 119.303L51.8362 119.303L50.9191 118.569C48.7843 116.888 48.4025 113.765 50.0835 111.625L50.0841 111.624L52.9476 107.965C52.7377 107.928 52.5385 107.822 52.387 107.649L45.0013 99.2239L40.8286 106.452C40.5604 106.917 39.9662 107.076 39.5016 106.808L26.0035 99.0155C25.5389 98.7472 25.3796 98.1531 25.6479 97.6885C25.9161 97.2238 26.5102 97.0646 26.9749 97.3328L39.6316 104.639L43.9483 97.1618C43.9748 97.1026 44.0075 97.0457 44.0463 96.992L64.5512 61.4731L51.8356 54.166C51.3705 53.8987 51.2101 53.3048 51.4774 52.8397C51.7447 52.3745 52.3385 52.2141 52.8037 52.4814L66.3632 60.2735C66.5869 60.402 66.7502 60.6142 66.8173 60.8634C66.8843 61.1125 66.8495 61.378 66.7205 61.6015L63.4285 67.304C63.6093 67.4182 63.8216 67.5498 64.0628 67.695C64.9495 68.2291 66.2244 68.9473 67.7696 69.6786C70.7646 71.0961 74.7169 72.5353 78.7975 72.8195C80.2922 71.2932 81.907 69.982 83.5633 69.0442C83.6134 69.0159 83.6658 68.992 83.7201 68.973C89.0359 67.1061 96.1512 66.5401 102.701 66.6404C109.259 66.7408 115.386 67.5122 118.769 68.3976L118.778 68.3997C121.856 69.2342 124.688 68.9348 126.763 68.4177C127.783 68.1636 128.613 67.8587 129.188 67.6168L125.534 61.2948C125.405 61.0717 125.37 60.8064 125.436 60.5574C125.503 60.3084 125.666 60.0961 125.889 59.9673L139.387 52.1752C139.852 51.907 140.446 52.0662 140.714 52.5309ZM78.5849 114.132C80.4175 113.302 82.6258 113.491 84.3323 114.834L84.3348 114.836L85.4344 115.691L85.4392 115.695C87.7464 117.513 88.2775 120.738 86.69 123.158C88.4288 122.541 90.4286 122.798 92.002 124.036L93.1041 124.893L93.1089 124.897C95.5469 126.818 96.0018 130.31 94.0691 132.764L94.0684 132.765L92.0309 135.358C92.3252 135.47 92.6962 135.607 93.1278 135.763C94.2728 136.175 95.8389 136.711 97.5285 137.206C99.2222 137.703 101.019 138.152 102.63 138.399C104.281 138.652 105.59 138.667 106.391 138.416C108.101 137.88 109.431 136.354 110.366 134.8C110.823 134.041 111.161 133.317 111.384 132.782L111.404 132.735L96.8306 126.116C96.3421 125.894 96.1259 125.318 96.3478 124.829C96.5697 124.341 97.1455 124.125 97.634 124.347L113.008 131.329C113.061 131.351 113.112 131.379 113.162 131.411C114.731 132.429 115.924 132.525 116.833 132.267C117.784 131.997 118.617 131.287 119.325 130.34C120.028 129.4 120.547 128.31 120.892 127.434C121.008 127.14 121.103 126.875 121.178 126.653L119.299 125.517C119.251 125.499 119.204 125.481 119.156 125.462C119.008 125.405 118.883 125.316 118.784 125.206L102.743 115.509C102.284 115.232 102.137 114.635 102.414 114.176C102.692 113.716 103.289 113.569 103.748 113.847L120.149 123.761C122.596 124.661 124.324 124.677 125.54 124.31C126.79 123.933 127.638 123.111 128.228 122.119C128.827 121.113 129.14 119.963 129.3 119.034C129.367 118.647 129.405 118.307 129.427 118.045C129.167 117.908 128.903 117.758 128.634 117.596C128.552 117.546 128.479 117.486 128.418 117.419L108.757 105.509C108.298 105.231 108.152 104.633 108.43 104.174C108.708 103.715 109.305 103.569 109.764 103.847L130.551 116.44C132.203 117.275 133.418 117.42 134.289 117.252C135.289 117.059 136.032 116.414 136.579 115.477L136.587 115.464C138.266 112.683 137.397 109.062 134.704 107.122L134.703 107.122L119.181 95.9556C119.069 95.8747 118.978 95.7743 118.912 95.6622C117.173 94.5301 115.4 93.3948 113.641 92.285C109.304 89.5482 105.083 86.9833 101.72 85.028C100.037 84.05 98.5749 83.2274 97.4225 82.6131C96.2498 81.9879 95.4626 81.6137 95.0906 81.4886C94.9222 81.4358 94.5552 81.4368 93.8831 81.7097C93.2356 81.9727 92.455 82.4259 91.5563 83.0361C90.1494 83.9914 88.5684 85.2497 86.8941 86.5823L86.894 86.5823L86.894 86.5824C86.4241 86.9563 85.9468 87.3362 85.464 87.7168C83.2937 89.4278 81.0177 91.1487 78.9321 92.2669C77.8878 92.8269 76.8447 93.2617 75.8506 93.4562C74.853 93.6514 73.8397 93.6161 72.928 93.1511C71.1027 92.2361 70.5544 90.3002 70.6649 88.2831C70.7764 86.249 71.5511 83.8424 72.7234 81.4427C73.8531 79.1303 75.3937 76.7413 77.1796 74.6086C73.3103 74.1026 69.6917 72.7379 66.9385 71.4348C65.3239 70.6706 63.9913 69.9201 63.0603 69.3594C62.8351 69.2237 62.6332 69.0991 62.4563 68.9879L46.0272 97.4468L53.848 106.368C53.9142 106.444 53.9665 106.527 54.0053 106.614L55.6049 104.57L55.6192 104.552C57.3507 102.444 60.4016 102.039 62.5533 103.73L62.56 103.735L62.56 103.735L63.4772 104.469C64.4876 105.264 65.1054 106.383 65.2975 107.568L66.5855 105.919L66.5983 105.903C68.8265 103.172 72.8558 102.661 75.6722 104.826L75.6741 104.827L76.9589 105.806L76.9625 105.809C79.5362 107.789 80.1804 111.38 78.5849 114.132ZM79.8169 74.5629C79.8754 74.5143 79.9281 74.4588 79.9738 74.3977C81.3903 72.9186 82.9117 71.6587 84.446 70.7774C89.4306 69.0469 96.2341 68.4845 102.671 68.5831C109.133 68.6821 115.091 69.444 118.273 70.2762C121.758 71.2195 124.938 70.8748 127.233 70.303C128.383 70.0166 129.319 69.6712 129.971 69.3952C130.04 69.3663 130.105 69.338 130.168 69.3107L147.303 98.9524C147.065 99.0946 146.803 99.2603 146.525 99.443C145.723 99.9688 144.738 100.664 143.706 101.415C141.646 102.914 139.361 104.662 137.886 105.798C137.36 106.166 136.718 106.129 136.3 105.743L136.298 105.741C132.571 102.327 123.35 96.1146 114.678 90.6419C110.325 87.8952 106.084 85.3177 102.696 83.3483C101.003 82.3639 99.5179 81.5284 98.3365 80.8986C97.1811 80.2826 96.2502 79.8272 95.6998 79.6437L95.6998 79.6437L95.6913 79.6409C94.8611 79.3727 93.9573 79.5826 93.1521 79.9096C92.3177 80.2484 91.4058 80.7898 90.4648 81.4288C88.9907 82.4297 87.3297 83.7519 85.6456 85.0925C85.1847 85.4594 84.7221 85.8276 84.2612 86.191C82.0831 87.9082 79.93 89.5273 78.014 90.5546C77.0576 91.0674 76.2069 91.4067 75.4775 91.5494C74.7532 91.6912 74.2151 91.6272 73.8087 91.4193L73.8088 91.4192L73.8007 91.4152C72.9908 91.0103 72.5123 90.0792 72.6049 88.3895C72.6966 86.7155 73.356 84.5741 74.4692 82.2955C75.7866 79.5987 77.6767 76.8347 79.8169 74.5629ZM57.1274 105.777L51.613 112.823L51.6118 112.825C50.5948 114.119 50.8252 116.024 52.123 117.044L52.1296 117.049L52.1296 117.049L53.0464 117.783C54.3405 118.797 56.2431 118.566 57.2621 117.27L57.2626 117.269L62.7834 110.215L62.7845 110.213C63.8015 108.919 63.571 107.014 62.2732 105.994L62.2665 105.989L62.2666 105.989L61.3498 105.255C60.0684 104.251 58.2183 104.457 57.1274 105.777ZM85.6628 126.2L85.6632 126.2C86.9327 124.589 89.2068 124.308 90.8021 125.564L90.8069 125.568L91.9088 126.425C93.5179 127.695 93.7987 129.968 92.5423 131.563L92.5415 131.564L87.818 137.576L87.8174 137.576C86.5479 139.187 84.2738 139.468 82.6786 138.211L82.6738 138.208L81.5719 137.351C79.9627 136.081 79.682 133.808 80.9384 132.213L80.9392 132.212L85.6628 126.2ZM68.1099 107.124L59.3427 118.344L59.3377 118.35L59.3377 118.35C57.7714 120.32 58.1299 123.197 60.088 124.705L60.0898 124.706L61.3748 125.685L61.3905 125.697C63.3617 127.264 66.2392 126.905 67.7467 124.945L67.7512 124.939L76.525 113.711L76.53 113.705L76.53 113.705C78.0964 111.734 77.7377 108.858 75.7794 107.35L75.7778 107.349L74.493 106.37L74.4895 106.367C72.5229 104.854 69.6864 105.2 68.1099 107.124ZM77.9931 116.998L77.9944 116.996C79.2641 115.387 81.5375 115.106 83.1324 116.362L83.1372 116.366L84.2391 117.223C85.8482 118.493 86.129 120.766 84.8726 122.36L84.8699 122.364L77.4486 131.87L77.4474 131.872C76.1778 133.482 73.9043 133.763 72.3093 132.506L72.3045 132.502L71.2049 131.647L71.2027 131.645C69.5935 130.376 69.3127 128.103 70.5691 126.508L70.5718 126.504L77.9931 116.998Z" fill="url(#paint0_radial_1829_167)"/>
<path fill-rule="evenodd" clip-rule="evenodd" d="M140.714 52.5309C140.983 52.9955 140.823 53.5896 140.359 53.8579L127.702 61.164L149.347 98.6065C149.499 98.7382 149.611 98.9179 149.658 99.1292L149.661 99.1406L149.664 99.1537L152.622 104.271L165.279 96.9643C165.744 96.6961 166.338 96.8553 166.606 97.3199C166.874 97.7846 166.715 98.3787 166.25 98.6469L152.752 106.439C152.288 106.707 151.694 106.548 151.426 106.084L148.276 100.635C148.076 100.755 147.846 100.9 147.59 101.068C146.827 101.568 145.872 102.242 144.849 102.986C142.805 104.473 140.528 106.215 139.057 107.349C139.047 107.356 139.038 107.363 139.028 107.37C138.725 107.587 138.389 107.751 138.038 107.857C139.677 110.392 139.917 113.702 138.254 116.462C137.512 117.731 136.355 118.832 134.658 119.16C133.654 119.353 132.535 119.262 131.293 118.853C131.271 119.013 131.246 119.184 131.215 119.363C131.033 120.419 130.664 121.826 129.898 123.113C129.123 124.415 127.923 125.621 126.101 126.17C125.262 126.423 124.321 126.528 123.268 126.456L123.267 126.458L123.265 126.467L123.258 126.495L123.25 126.524L123.238 126.566L123.23 126.594C123.206 126.678 123.171 126.798 123.125 126.947C123.031 127.246 122.891 127.663 122.7 128.147C122.32 129.109 121.727 130.373 120.881 131.504C120.04 132.627 118.886 133.704 117.364 134.136C116.083 134.499 114.666 134.372 113.136 133.627C112.887 134.215 112.521 134.988 112.031 135.802C111.018 137.484 109.371 139.518 106.972 140.27C105.717 140.663 104.027 140.578 102.336 140.319C100.605 140.054 98.7167 139.579 96.9821 139.071C95.2436 138.561 93.6384 138.012 92.4691 137.591C91.8839 137.38 91.4065 137.2 91.0746 137.073C90.9551 137.028 90.8544 136.989 90.7743 136.958L89.3449 138.777L89.3441 138.778C87.4237 141.215 83.9325 141.671 81.4787 139.739L80.3766 138.882L80.3717 138.878C78.7829 137.627 78.0364 135.707 78.244 133.843C76.2552 135.584 73.2775 135.741 71.1094 134.034L71.1069 134.032L70.0073 133.177L70.0025 133.173C68.1956 131.75 67.4781 129.463 68.0144 127.375C65.7429 129.045 62.5213 129.072 60.1897 127.225L58.9088 126.249L58.9052 126.246C56.9702 124.758 56.1259 122.358 56.504 120.09C54.9695 120.613 53.2066 120.379 51.8429 119.308L51.8362 119.303L51.8362 119.303L50.9191 118.569C48.7843 116.888 48.4025 113.765 50.0835 111.625L50.0841 111.624L52.9476 107.965C52.7377 107.928 52.5385 107.822 52.387 107.649L45.0013 99.2239L40.8286 106.452C40.5604 106.917 39.9662 107.076 39.5016 106.808L26.0035 99.0155C25.5389 98.7472 25.3796 98.1531 25.6479 97.6885C25.9161 97.2238 26.5102 97.0646 26.9749 97.3328L39.6316 104.639L43.9483 97.1618C43.9748 97.1026 44.0075 97.0457 44.0463 96.992L64.5512 61.4731L51.8356 54.166C51.3705 53.8987 51.2101 53.3048 51.4774 52.8397C51.7447 52.3745 52.3385 52.2141 52.8037 52.4814L66.3632 60.2735C66.5869 60.402 66.7502 60.6142 66.8173 60.8634C66.8843 61.1125 66.8495 61.378 66.7205 61.6015L63.4285 67.304C63.6093 67.4182 63.8216 67.5498 64.0628 67.695C64.9495 68.2291 66.2244 68.9473 67.7696 69.6786C70.7646 71.0961 74.7169 72.5353 78.7975 72.8195C80.2922 71.2932 81.907 69.982 83.5633 69.0442C83.6134 69.0159 83.6658 68.992 83.7201 68.973C89.0359 67.1061 96.1512 66.5401 102.701 66.6404C109.259 66.7408 115.386 67.5122 118.769 68.3976L118.778 68.3997C121.856 69.2342 124.688 68.9348 126.763 68.4177C127.783 68.1636 128.613 67.8587 129.188 67.6168L125.534 61.2948C125.405 61.0717 125.37 60.8064 125.436 60.5574C125.503 60.3084 125.666 60.0961 125.889 59.9673L139.387 52.1752C139.852 51.907 140.446 52.0662 140.714 52.5309ZM78.5849 114.132C80.4175 113.302 82.6258 113.491 84.3323 114.834L84.3348 114.836L85.4344 115.691L85.4392 115.695C87.7464 117.513 88.2775 120.738 86.69 123.158C88.4288 122.541 90.4286 122.798 92.002 124.036L93.1041 124.893L93.1089 124.897C95.5469 126.818 96.0018 130.31 94.0691 132.764L94.0684 132.765L92.0309 135.358C92.3252 135.47 92.6962 135.607 93.1278 135.763C94.2728 136.175 95.8389 136.711 97.5285 137.206C99.2222 137.703 101.019 138.152 102.63 138.399C104.281 138.652 105.59 138.667 106.391 138.416C108.101 137.88 109.431 136.354 110.366 134.8C110.823 134.041 111.161 133.317 111.384 132.782L111.404 132.735L96.8306 126.116C96.3421 125.894 96.1259 125.318 96.3478 124.829C96.5697 124.341 97.1455 124.125 97.634 124.347L113.008 131.329C113.061 131.351 113.112 131.379 113.162 131.411C114.731 132.429 115.924 132.525 116.833 132.267C117.784 131.997 118.617 131.287 119.325 130.34C120.028 129.4 120.547 128.31 120.892 127.434C121.008 127.14 121.103 126.875 121.178 126.653L119.299 125.517C119.251 125.499 119.204 125.481 119.156 125.462C119.008 125.405 118.883 125.316 118.784 125.206L102.743 115.509C102.284 115.232 102.137 114.635 102.414 114.176C102.692 113.716 103.289 113.569 103.748 113.847L120.149 123.761C122.596 124.661 124.324 124.677 125.54 124.31C126.79 123.933 127.638 123.111 128.228 122.119C128.827 121.113 129.14 119.963 129.3 119.034C129.367 118.647 129.405 118.307 129.427 118.045C129.167 117.908 128.903 117.758 128.634 117.596C128.552 117.546 128.479 117.486 128.418 117.419L108.757 105.509C108.298 105.231 108.152 104.633 108.43 104.174C108.708 103.715 109.305 103.569 109.764 103.847L130.551 116.44C132.203 117.275 133.418 117.42 134.289 117.252C135.289 117.059 136.032 116.414 136.579 115.477L136.587 115.464C138.266 112.683 137.397 109.062 134.704 107.122L134.703 107.122L119.181 95.9556C119.069 95.8747 118.978 95.7743 118.912 95.6622C117.173 94.5301 115.4 93.3948 113.641 92.285C109.304 89.5482 105.083 86.9833 101.72 85.028C100.037 84.05 98.5749 83.2274 97.4225 82.6131C96.2498 81.9879 95.4626 81.6137 95.0906 81.4886C94.9222 81.4358 94.5552 81.4368 93.8831 81.7097C93.2356 81.9727 92.455 82.4259 91.5563 83.0361C90.1494 83.9914 88.5684 85.2497 86.8941 86.5823L86.894 86.5823L86.894 86.5824C86.4241 86.9563 85.9468 87.3362 85.464 87.7168C83.2937 89.4278 81.0177 91.1487 78.9321 92.2669C77.8878 92.8269 76.8447 93.2617 75.8506 93.4562C74.853 93.6514 73.8397 93.6161 72.928 93.1511C71.1027 92.2361 70.5544 90.3002 70.6649 88.2831C70.7764 86.249 71.5511 83.8424 72.7234 81.4427C73.8531 79.1303 75.3937 76.7413 77.1796 74.6086C73.3103 74.1026 69.6917 72.7379 66.9385 71.4348C65.3239 70.6706 63.9913 69.9201 63.0603 69.3594C62.8351 69.2237 62.6332 69.0991 62.4563 68.9879L46.0272 97.4468L53.848 106.368C53.9142 106.444 53.9665 106.527 54.0053 106.614L55.6049 104.57L55.6192 104.552C57.3507 102.444 60.4016 102.039 62.5533 103.73L62.56 103.735L62.56 103.735L63.4772 104.469C64.4876 105.264 65.1054 106.383 65.2975 107.568L66.5855 105.919L66.5983 105.903C68.8265 103.172 72.8558 102.661 75.6722 104.826L75.6741 104.827L76.9589 105.806L76.9625 105.809C79.5362 107.789 80.1804 111.38 78.5849 114.132ZM79.8169 74.5629C79.8754 74.5143 79.9281 74.4588 79.9738 74.3977C81.3903 72.9186 82.9117 71.6587 84.446 70.7774C89.4306 69.0469 96.2341 68.4845 102.671 68.5831C109.133 68.6821 115.091 69.444 118.273 70.2762C121.758 71.2195 124.938 70.8748 127.233 70.303C128.383 70.0166 129.319 69.6712 129.971 69.3952C130.04 69.3663 130.105 69.338 130.168 69.3107L147.303 98.9524C147.065 99.0946 146.803 99.2603 146.525 99.443C145.723 99.9688 144.738 100.664 143.706 101.415C141.646 102.914 139.361 104.662 137.886 105.798C137.36 106.166 136.718 106.129 136.3 105.743L136.298 105.741C132.571 102.327 123.35 96.1146 114.678 90.6419C110.325 87.8952 106.084 85.3177 102.696 83.3483C101.003 82.3639 99.5179 81.5284 98.3365 80.8986C97.1811 80.2826 96.2502 79.8272 95.6998 79.6437L95.6998 79.6437L95.6913 79.6409C94.8611 79.3727 93.9573 79.5826 93.1521 79.9096C92.3177 80.2484 91.4058 80.7898 90.4648 81.4288C88.9907 82.4297 87.3297 83.7519 85.6456 85.0925C85.1847 85.4594 84.7221 85.8276 84.2612 86.191C82.0831 87.9082 79.93 89.5273 78.014 90.5546C77.0576 91.0674 76.2069 91.4067 75.4775 91.5494C74.7532 91.6912 74.2151 91.6272 73.8087 91.4193L73.8088 91.4192L73.8007 91.4152C72.9908 91.0103 72.5123 90.0792 72.6049 88.3895C72.6966 86.7155 73.356 84.5741 74.4692 82.2955C75.7866 79.5987 77.6767 76.8347 79.8169 74.5629ZM57.1274 105.777L51.613 112.823L51.6118 112.825C50.5948 114.119 50.8252 116.024 52.123 117.044L52.1296 117.049L52.1296 117.049L53.0464 117.783C54.3405 118.797 56.2431 118.566 57.2621 117.27L57.2626 117.269L62.7834 110.215L62.7845 110.213C63.8015 108.919 63.571 107.014 62.2732 105.994L62.2665 105.989L62.2666 105.989L61.3498 105.255C60.0684 104.251 58.2183 104.457 57.1274 105.777ZM85.6628 126.2L85.6632 126.2C86.9327 124.589 89.2068 124.308 90.8021 125.564L90.8069 125.568L91.9088 126.425C93.5179 127.695 93.7987 129.968 92.5423 131.563L92.5415 131.564L87.818 137.576L87.8174 137.576C86.5479 139.187 84.2738 139.468 82.6786 138.211L82.6738 138.208L81.5719 137.351C79.9627 136.081 79.682 133.808 80.9384 132.213L80.9392 132.212L85.6628 126.2ZM68.1099 107.124L59.3427 118.344L59.3377 118.35L59.3377 118.35C57.7714 120.32 58.1299 123.197 60.088 124.705L60.0898 124.706L61.3748 125.685L61.3905 125.697C63.3617 127.264 66.2392 126.905 67.7467 124.945L67.7512 124.939L76.525 113.711L76.53 113.705L76.53 113.705C78.0964 111.734 77.7377 108.858 75.7794 107.35L75.7778 107.349L74.493 106.37L74.4895 106.367C72.5229 104.854 69.6864 105.2 68.1099 107.124ZM77.9931 116.998L77.9944 116.996C79.2641 115.387 81.5375 115.106 83.1324 116.362L83.1372 116.366L84.2391 117.223C85.8482 118.493 86.129 120.766 84.8726 122.36L84.8699 122.364L77.4486 131.87L77.4474 131.872C76.1778 133.482 73.9043 133.763 72.3093 132.506L72.3045 132.502L71.2049 131.647L71.2027 131.645C69.5935 130.376 69.3127 128.103 70.5691 126.508L70.5718 126.504L77.9931 116.998Z" fill="url(#paint1_radial_1829_167)"/>
<path fill-rule="evenodd" clip-rule="evenodd" d="M140.714 52.5309C140.983 52.9955 140.823 53.5896 140.359 53.8579L127.702 61.164L149.347 98.6065C149.499 98.7382 149.611 98.9179 149.658 99.1292L149.661 99.1406L149.664 99.1537L152.622 104.271L165.279 96.9643C165.744 96.6961 166.338 96.8553 166.606 97.3199C166.874 97.7846 166.715 98.3787 166.25 98.6469L152.752 106.439C152.288 106.707 151.694 106.548 151.426 106.084L148.276 100.635C148.076 100.755 147.846 100.9 147.59 101.068C146.827 101.568 145.872 102.242 144.849 102.986C142.805 104.473 140.528 106.215 139.057 107.349C139.047 107.356 139.038 107.363 139.028 107.37C138.725 107.587 138.389 107.751 138.038 107.857C139.677 110.392 139.917 113.702 138.254 116.462C137.512 117.731 136.355 118.832 134.658 119.16C133.654 119.353 132.535 119.262 131.293 118.853C131.271 119.013 131.246 119.184 131.215 119.363C131.033 120.419 130.664 121.826 129.898 123.113C129.123 124.415 127.923 125.621 126.101 126.17C125.262 126.423 124.321 126.528 123.268 126.456L123.267 126.458L123.265 126.467L123.258 126.495L123.25 126.524L123.238 126.566L123.23 126.594C123.206 126.678 123.171 126.798 123.125 126.947C123.031 127.246 122.891 127.663 122.7 128.147C122.32 129.109 121.727 130.373 120.881 131.504C120.04 132.627 118.886 133.704 117.364 134.136C116.083 134.499 114.666 134.372 113.136 133.627C112.887 134.215 112.521 134.988 112.031 135.802C111.018 137.484 109.371 139.518 106.972 140.27C105.717 140.663 104.027 140.578 102.336 140.319C100.605 140.054 98.7167 139.579 96.9821 139.071C95.2436 138.561 93.6384 138.012 92.4691 137.591C91.8839 137.38 91.4065 137.2 91.0746 137.073C90.9551 137.028 90.8544 136.989 90.7743 136.958L89.3449 138.777L89.3441 138.778C87.4237 141.215 83.9325 141.671 81.4787 139.739L80.3766 138.882L80.3717 138.878C78.7829 137.627 78.0364 135.707 78.244 133.843C76.2552 135.584 73.2775 135.741 71.1094 134.034L71.1069 134.032L70.0073 133.177L70.0025 133.173C68.1956 131.75 67.4781 129.463 68.0144 127.375C65.7429 129.045 62.5213 129.072 60.1897 127.225L58.9088 126.249L58.9052 126.246C56.9702 124.758 56.1259 122.358 56.504 120.09C54.9695 120.613 53.2066 120.379 51.8429 119.308L51.8362 119.303L51.8362 119.303L50.9191 118.569C48.7843 116.888 48.4025 113.765 50.0835 111.625L50.0841 111.624L52.9476 107.965C52.7377 107.928 52.5385 107.822 52.387 107.649L45.0013 99.2239L40.8286 106.452C40.5604 106.917 39.9662 107.076 39.5016 106.808L26.0035 99.0155C25.5389 98.7472 25.3796 98.1531 25.6479 97.6885C25.9161 97.2238 26.5102 97.0646 26.9749 97.3328L39.6316 104.639L43.9483 97.1618C43.9748 97.1026 44.0075 97.0457 44.0463 96.992L64.5512 61.4731L51.8356 54.166C51.3705 53.8987 51.2101 53.3048 51.4774 52.8397C51.7447 52.3745 52.3385 52.2141 52.8037 52.4814L66.3632 60.2735C66.5869 60.402 66.7502 60.6142 66.8173 60.8634C66.8843 61.1125 66.8495 61.378 66.7205 61.6015L63.4285 67.304C63.6093 67.4182 63.8216 67.5498 64.0628 67.695C64.9495 68.2291 66.2244 68.9473 67.7696 69.6786C70.7646 71.0961 74.7169 72.5353 78.7975 72.8195C80.2922 71.2932 81.907 69.982 83.5633 69.0442C83.6134 69.0159 83.6658 68.992 83.7201 68.973C89.0359 67.1061 96.1512 66.5401 102.701 66.6404C109.259 66.7408 115.386 67.5122 118.769 68.3976L118.778 68.3997C121.856 69.2342 124.688 68.9348 126.763 68.4177C127.783 68.1636 128.613 67.8587 129.188 67.6168L125.534 61.2948C125.405 61.0717 125.37 60.8064 125.436 60.5574C125.503 60.3084 125.666 60.0961 125.889 59.9673L139.387 52.1752C139.852 51.907 140.446 52.0662 140.714 52.5309ZM78.5849 114.132C80.4175 113.302 82.6258 113.491 84.3323 114.834L84.3348 114.836L85.4344 115.691L85.4392 115.695C87.7464 117.513 88.2775 120.738 86.69 123.158C88.4288 122.541 90.4286 122.798 92.002 124.036L93.1041 124.893L93.1089 124.897C95.5469 126.818 96.0018 130.31 94.0691 132.764L94.0684 132.765L92.0309 135.358C92.3252 135.47 92.6962 135.607 93.1278 135.763C94.2728 136.175 95.8389 136.711 97.5285 137.206C99.2222 137.703 101.019 138.152 102.63 138.399C104.281 138.652 105.59 138.667 106.391 138.416C108.101 137.88 109.431 136.354 110.366 134.8C110.823 134.041 111.161 133.317 111.384 132.782L111.404 132.735L96.8306 126.116C96.3421 125.894 96.1259 125.318 96.3478 124.829C96.5697 124.341 97.1455 124.125 97.634 124.347L113.008 131.329C113.061 131.351 113.112 131.379 113.162 131.411C114.731 132.429 115.924 132.525 116.833 132.267C117.784 131.997 118.617 131.287 119.325 130.34C120.028 129.4 120.547 128.31 120.892 127.434C121.008 127.14 121.103 126.875 121.178 126.653L119.299 125.517C119.251 125.499 119.204 125.481 119.156 125.462C119.008 125.405 118.883 125.316 118.784 125.206L102.743 115.509C102.284 115.232 102.137 114.635 102.414 114.176C102.692 113.716 103.289 113.569 103.748 113.847L120.149 123.761C122.596 124.661 124.324 124.677 125.54 124.31C126.79 123.933 127.638 123.111 128.228 122.119C128.827 121.113 129.14 119.963 129.3 119.034C129.367 118.647 129.405 118.307 129.427 118.045C129.167 117.908 128.903 117.758 128.634 117.596C128.552 117.546 128.479 117.486 128.418 117.419L108.757 105.509C108.298 105.231 108.152 104.633 108.43 104.174C108.708 103.715 109.305 103.569 109.764 103.847L130.551 116.44C132.203 117.275 133.418 117.42 134.289 117.252C135.289 117.059 136.032 116.414 136.579 115.477L136.587 115.464C138.266 112.683 137.397 109.062 134.704 107.122L134.703 107.122L119.181 95.9556C119.069 95.8747 118.978 95.7743 118.912 95.6622C117.173 94.5301 115.4 93.3948 113.641 92.285C109.304 89.5482 105.083 86.9833 101.72 85.028C100.037 84.05 98.5749 83.2274 97.4225 82.6131C96.2498 81.9879 95.4626 81.6137 95.0906 81.4886C94.9222 81.4358 94.5552 81.4368 93.8831 81.7097C93.2356 81.9727 92.455 82.4259 91.5563 83.0361C90.1494 83.9914 88.5684 85.2497 86.8941 86.5823L86.894 86.5823L86.894 86.5824C86.4241 86.9563 85.9468 87.3362 85.464 87.7168C83.2937 89.4278 81.0177 91.1487 78.9321 92.2669C77.8878 92.8269 76.8447 93.2617 75.8506 93.4562C74.853 93.6514 73.8397 93.6161 72.928 93.1511C71.1027 92.2361 70.5544 90.3002 70.6649 88.2831C70.7764 86.249 71.5511 83.8424 72.7234 81.4427C73.8531 79.1303 75.3937 76.7413 77.1796 74.6086C73.3103 74.1026 69.6917 72.7379 66.9385 71.4348C65.3239 70.6706 63.9913 69.9201 63.0603 69.3594C62.8351 69.2237 62.6332 69.0991 62.4563 68.9879L46.0272 97.4468L53.848 106.368C53.9142 106.444 53.9665 106.527 54.0053 106.614L55.6049 104.57L55.6192 104.552C57.3507 102.444 60.4016 102.039 62.5533 103.73L62.56 103.735L62.56 103.735L63.4772 104.469C64.4876 105.264 65.1054 106.383 65.2975 107.568L66.5855 105.919L66.5983 105.903C68.8265 103.172 72.8558 102.661 75.6722 104.826L75.6741 104.827L76.9589 105.806L76.9625 105.809C79.5362 107.789 80.1804 111.38 78.5849 114.132ZM79.8169 74.5629C79.8754 74.5143 79.9281 74.4588 79.9738 74.3977C81.3903 72.9186 82.9117 71.6587 84.446 70.7774C89.4306 69.0469 96.2341 68.4845 102.671 68.5831C109.133 68.6821 115.091 69.444 118.273 70.2762C121.758 71.2195 124.938 70.8748 127.233 70.303C128.383 70.0166 129.319 69.6712 129.971 69.3952C130.04 69.3663 130.105 69.338 130.168 69.3107L147.303 98.9524C147.065 99.0946 146.803 99.2603 146.525 99.443C145.723 99.9688 144.738 100.664 143.706 101.415C141.646 102.914 139.361 104.662 137.886 105.798C137.36 106.166 136.718 106.129 136.3 105.743L136.298 105.741C132.571 102.327 123.35 96.1146 114.678 90.6419C110.325 87.8952 106.084 85.3177 102.696 83.3483C101.003 82.3639 99.5179 81.5284 98.3365 80.8986C97.1811 80.2826 96.2502 79.8272 95.6998 79.6437L95.6998 79.6437L95.6913 79.6409C94.8611 79.3727 93.9573 79.5826 93.1521 79.9096C92.3177 80.2484 91.4058 80.7898 90.4648 81.4288C88.9907 82.4297 87.3297 83.7519 85.6456 85.0925C85.1847 85.4594 84.7221 85.8276 84.2612 86.191C82.0831 87.9082 79.93 89.5273 78.014 90.5546C77.0576 91.0674 76.2069 91.4067 75.4775 91.5494C74.7532 91.6912 74.2151 91.6272 73.8087 91.4193L73.8088 91.4192L73.8007 91.4152C72.9908 91.0103 72.5123 90.0792 72.6049 88.3895C72.6966 86.7155 73.356 84.5741 74.4692 82.2955C75.7866 79.5987 77.6767 76.8347 79.8169 74.5629ZM57.1274 105.777L51.613 112.823L51.6118 112.825C50.5948 114.119 50.8252 116.024 52.123 117.044L52.1296 117.049L52.1296 117.049L53.0464 117.783C54.3405 118.797 56.2431 118.566 57.2621 117.27L57.2626 117.269L62.7834 110.215L62.7845 110.213C63.8015 108.919 63.571 107.014 62.2732 105.994L62.2665 105.989L62.2666 105.989L61.3498 105.255C60.0684 104.251 58.2183 104.457 57.1274 105.777ZM85.6628 126.2L85.6632 126.2C86.9327 124.589 89.2068 124.308 90.8021 125.564L90.8069 125.568L91.9088 126.425C93.5179 127.695 93.7987 129.968 92.5423 131.563L92.5415 131.564L87.818 137.576L87.8174 137.576C86.5479 139.187 84.2738 139.468 82.6786 138.211L82.6738 138.208L81.5719 137.351C79.9627 136.081 79.682 133.808 80.9384 132.213L80.9392 132.212L85.6628 126.2ZM68.1099 107.124L59.3427 118.344L59.3377 118.35L59.3377 118.35C57.7714 120.32 58.1299 123.197 60.088 124.705L60.0898 124.706L61.3748 125.685L61.3905 125.697C63.3617 127.264 66.2392 126.905 67.7467 124.945L67.7512 124.939L76.525 113.711L76.53 113.705L76.53 113.705C78.0964 111.734 77.7377 108.858 75.7794 107.35L75.7778 107.349L74.493 106.37L74.4895 106.367C72.5229 104.854 69.6864 105.2 68.1099 107.124ZM77.9931 116.998L77.9944 116.996C79.2641 115.387 81.5375 115.106 83.1324 116.362L83.1372 116.366L84.2391 117.223C85.8482 118.493 86.129 120.766 84.8726 122.36L84.8699 122.364L77.4486 131.87L77.4474 131.872C76.1778 133.482 73.9043 133.763 72.3093 132.506L72.3045 132.502L71.2049 131.647L71.2027 131.645C69.5935 130.376 69.3127 128.103 70.5691 126.508L70.5718 126.504L77.9931 116.998Z" fill="url(#paint2_radial_1829_167)"/>
<path fill-rule="evenodd" clip-rule="evenodd" d="M140.714 52.5309C140.983 52.9955 140.823 53.5896 140.359 53.8579L127.702 61.164L149.347 98.6065C149.499 98.7382 149.611 98.9179 149.658 99.1292L149.661 99.1406L149.664 99.1537L152.622 104.271L165.279 96.9643C165.744 96.6961 166.338 96.8553 166.606 97.3199C166.874 97.7846 166.715 98.3787 166.25 98.6469L152.752 106.439C152.288 106.707 151.694 106.548 151.426 106.084L148.276 100.635C148.076 100.755 147.846 100.9 147.59 101.068C146.827 101.568 145.872 102.242 144.849 102.986C142.805 104.473 140.528 106.215 139.057 107.349C139.047 107.356 139.038 107.363 139.028 107.37C138.725 107.587 138.389 107.751 138.038 107.857C139.677 110.392 139.917 113.702 138.254 116.462C137.512 117.731 136.355 118.832 134.658 119.16C133.654 119.353 132.535 119.262 131.293 118.853C131.271 119.013 131.246 119.184 131.215 119.363C131.033 120.419 130.664 121.826 129.898 123.113C129.123 124.415 127.923 125.621 126.101 126.17C125.262 126.423 124.321 126.528 123.268 126.456L123.267 126.458L123.265 126.467L123.258 126.495L123.25 126.524L123.238 126.566L123.23 126.594C123.206 126.678 123.171 126.798 123.125 126.947C123.031 127.246 122.891 127.663 122.7 128.147C122.32 129.109 121.727 130.373 120.881 131.504C120.04 132.627 118.886 133.704 117.364 134.136C116.083 134.499 114.666 134.372 113.136 133.627C112.887 134.215 112.521 134.988 112.031 135.802C111.018 137.484 109.371 139.518 106.972 140.27C105.717 140.663 104.027 140.578 102.336 140.319C100.605 140.054 98.7167 139.579 96.9821 139.071C95.2436 138.561 93.6384 138.012 92.4691 137.591C91.8839 137.38 91.4065 137.2 91.0746 137.073C90.9551 137.028 90.8544 136.989 90.7743 136.958L89.3449 138.777L89.3441 138.778C87.4237 141.215 83.9325 141.671 81.4787 139.739L80.3766 138.882L80.3717 138.878C78.7829 137.627 78.0364 135.707 78.244 133.843C76.2552 135.584 73.2775 135.741 71.1094 134.034L71.1069 134.032L70.0073 133.177L70.0025 133.173C68.1956 131.75 67.4781 129.463 68.0144 127.375C65.7429 129.045 62.5213 129.072 60.1897 127.225L58.9088 126.249L58.9052 126.246C56.9702 124.758 56.1259 122.358 56.504 120.09C54.9695 120.613 53.2066 120.379 51.8429 119.308L51.8362 119.303L51.8362 119.303L50.9191 118.569C48.7843 116.888 48.4025 113.765 50.0835 111.625L50.0841 111.624L52.9476 107.965C52.7377 107.928 52.5385 107.822 52.387 107.649L45.0013 99.2239L40.8286 106.452C40.5604 106.917 39.9662 107.076 39.5016 106.808L26.0035 99.0155C25.5389 98.7472 25.3796 98.1531 25.6479 97.6885C25.9161 97.2238 26.5102 97.0646 26.9749 97.3328L39.6316 104.639L43.9483 97.1618C43.9748 97.1026 44.0075 97.0457 44.0463 96.992L64.5512 61.4731L51.8356 54.166C51.3705 53.8987 51.2101 53.3048 51.4774 52.8397C51.7447 52.3745 52.3385 52.2141 52.8037 52.4814L66.3632 60.2735C66.5869 60.402 66.7502 60.6142 66.8173 60.8634C66.8843 61.1125 66.8495 61.378 66.7205 61.6015L63.4285 67.304C63.6093 67.4182 63.8216 67.5498 64.0628 67.695C64.9495 68.2291 66.2244 68.9473 67.7696 69.6786C70.7646 71.0961 74.7169 72.5353 78.7975 72.8195C80.2922 71.2932 81.907 69.982 83.5633 69.0442C83.6134 69.0159 83.6658 68.992 83.7201 68.973C89.0359 67.1061 96.1512 66.5401 102.701 66.6404C109.259 66.7408 115.386 67.5122 118.769 68.3976L118.778 68.3997C121.856 69.2342 124.688 68.9348 126.763 68.4177C127.783 68.1636 128.613 67.8587 129.188 67.6168L125.534 61.2948C125.405 61.0717 125.37 60.8064 125.436 60.5574C125.503 60.3084 125.666 60.0961 125.889 59.9673L139.387 52.1752C139.852 51.907 140.446 52.0662 140.714 52.5309ZM78.5849 114.132C80.4175 113.302 82.6258 113.491 84.3323 114.834L84.3348 114.836L85.4344 115.691L85.4392 115.695C87.7464 117.513 88.2775 120.738 86.69 123.158C88.4288 122.541 90.4286 122.798 92.002 124.036L93.1041 124.893L93.1089 124.897C95.5469 126.818 96.0018 130.31 94.0691 132.764L94.0684 132.765L92.0309 135.358C92.3252 135.47 92.6962 135.607 93.1278 135.763C94.2728 136.175 95.8389 136.711 97.5285 137.206C99.2222 137.703 101.019 138.152 102.63 138.399C104.281 138.652 105.59 138.667 106.391 138.416C108.101 137.88 109.431 136.354 110.366 134.8C110.823 134.041 111.161 133.317 111.384 132.782L111.404 132.735L96.8306 126.116C96.3421 125.894 96.1259 125.318 96.3478 124.829C96.5697 124.341 97.1455 124.125 97.634 124.347L113.008 131.329C113.061 131.351 113.112 131.379 113.162 131.411C114.731 132.429 115.924 132.525 116.833 132.267C117.784 131.997 118.617 131.287 119.325 130.34C120.028 129.4 120.547 128.31 120.892 127.434C121.008 127.14 121.103 126.875 121.178 126.653L119.299 125.517C119.251 125.499 119.204 125.481 119.156 125.462C119.008 125.405 118.883 125.316 118.784 125.206L102.743 115.509C102.284 115.232 102.137 114.635 102.414 114.176C102.692 113.716 103.289 113.569 103.748 113.847L120.149 123.761C122.596 124.661 124.324 124.677 125.54 124.31C126.79 123.933 127.638 123.111 128.228 122.119C128.827 121.113 129.14 119.963 129.3 119.034C129.367 118.647 129.405 118.307 129.427 118.045C129.167 117.908 128.903 117.758 128.634 117.596C128.552 117.546 128.479 117.486 128.418 117.419L108.757 105.509C108.298 105.231 108.152 104.633 108.43 104.174C108.708 103.715 109.305 103.569 109.764 103.847L130.551 116.44C132.203 117.275 133.418 117.42 134.289 117.252C135.289 117.059 136.032 116.414 136.579 115.477L136.587 115.464C138.266 112.683 137.397 109.062 134.704 107.122L134.703 107.122L119.181 95.9556C119.069 95.8747 118.978 95.7743 118.912 95.6622C117.173 94.5301 115.4 93.3948 113.641 92.285C109.304 89.5482 105.083 86.9833 101.72 85.028C100.037 84.05 98.5749 83.2274 97.4225 82.6131C96.2498 81.9879 95.4626 81.6137 95.0906 81.4886C94.9222 81.4358 94.5552 81.4368 93.8831 81.7097C93.2356 81.9727 92.455 82.4259 91.5563 83.0361C90.1494 83.9914 88.5684 85.2497 86.8941 86.5823L86.894 86.5823L86.894 86.5824C86.4241 86.9563 85.9468 87.3362 85.464 87.7168C83.2937 89.4278 81.0177 91.1487 78.9321 92.2669C77.8878 92.8269 76.8447 93.2617 75.8506 93.4562C74.853 93.6514 73.8397 93.6161 72.928 93.1511C71.1027 92.2361 70.5544 90.3002 70.6649 88.2831C70.7764 86.249 71.5511 83.8424 72.7234 81.4427C73.8531 79.1303 75.3937 76.7413 77.1796 74.6086C73.3103 74.1026 69.6917 72.7379 66.9385 71.4348C65.3239 70.6706 63.9913 69.9201 63.0603 69.3594C62.8351 69.2237 62.6332 69.0991 62.4563 68.9879L46.0272 97.4468L53.848 106.368C53.9142 106.444 53.9665 106.527 54.0053 106.614L55.6049 104.57L55.6192 104.552C57.3507 102.444 60.4016 102.039 62.5533 103.73L62.56 103.735L62.56 103.735L63.4772 104.469C64.4876 105.264 65.1054 106.383 65.2975 107.568L66.5855 105.919L66.5983 105.903C68.8265 103.172 72.8558 102.661 75.6722 104.826L75.6741 104.827L76.9589 105.806L76.9625 105.809C79.5362 107.789 80.1804 111.38 78.5849 114.132ZM79.8169 74.5629C79.8754 74.5143 79.9281 74.4588 79.9738 74.3977C81.3903 72.9186 82.9117 71.6587 84.446 70.7774C89.4306 69.0469 96.2341 68.4845 102.671 68.5831C109.133 68.6821 115.091 69.444 118.273 70.2762C121.758 71.2195 124.938 70.8748 127.233 70.303C128.383 70.0166 129.319 69.6712 129.971 69.3952C130.04 69.3663 130.105 69.338 130.168 69.3107L147.303 98.9524C147.065 99.0946 146.803 99.2603 146.525 99.443C145.723 99.9688 144.738 100.664 143.706 101.415C141.646 102.914 139.361 104.662 137.886 105.798C137.36 106.166 136.718 106.129 136.3 105.743L136.298 105.741C132.571 102.327 123.35 96.1146 114.678 90.6419C110.325 87.8952 106.084 85.3177 102.696 83.3483C101.003 82.3639 99.5179 81.5284 98.3365 80.8986C97.1811 80.2826 96.2502 79.8272 95.6998 79.6437L95.6998 79.6437L95.6913 79.6409C94.8611 79.3727 93.9573 79.5826 93.1521 79.9096C92.3177 80.2484 91.4058 80.7898 90.4648 81.4288C88.9907 82.4297 87.3297 83.7519 85.6456 85.0925C85.1847 85.4594 84.7221 85.8276 84.2612 86.191C82.0831 87.9082 79.93 89.5273 78.014 90.5546C77.0576 91.0674 76.2069 91.4067 75.4775 91.5494C74.7532 91.6912 74.2151 91.6272 73.8087 91.4193L73.8088 91.4192L73.8007 91.4152C72.9908 91.0103 72.5123 90.0792 72.6049 88.3895C72.6966 86.7155 73.356 84.5741 74.4692 82.2955C75.7866 79.5987 77.6767 76.8347 79.8169 74.5629ZM57.1274 105.777L51.613 112.823L51.6118 112.825C50.5948 114.119 50.8252 116.024 52.123 117.044L52.1296 117.049L52.1296 117.049L53.0464 117.783C54.3405 118.797 56.2431 118.566 57.2621 117.27L57.2626 117.269L62.7834 110.215L62.7845 110.213C63.8015 108.919 63.571 107.014 62.2732 105.994L62.2665 105.989L62.2666 105.989L61.3498 105.255C60.0684 104.251 58.2183 104.457 57.1274 105.777ZM85.6628 126.2L85.6632 126.2C86.9327 124.589 89.2068 124.308 90.8021 125.564L90.8069 125.568L91.9088 126.425C93.5179 127.695 93.7987 129.968 92.5423 131.563L92.5415 131.564L87.818 137.576L87.8174 137.576C86.5479 139.187 84.2738 139.468 82.6786 138.211L82.6738 138.208L81.5719 137.351C79.9627 136.081 79.682 133.808 80.9384 132.213L80.9392 132.212L85.6628 126.2ZM68.1099 107.124L59.3427 118.344L59.3377 118.35L59.3377 118.35C57.7714 120.32 58.1299 123.197 60.088 124.705L60.0898 124.706L61.3748 125.685L61.3905 125.697C63.3617 127.264 66.2392 126.905 67.7467 124.945L67.7512 124.939L76.525 113.711L76.53 113.705L76.53 113.705C78.0964 111.734 77.7377 108.858 75.7794 107.35L75.7778 107.349L74.493 106.37L74.4895 106.367C72.5229 104.854 69.6864 105.2 68.1099 107.124ZM77.9931 116.998L77.9944 116.996C79.2641 115.387 81.5375 115.106 83.1324 116.362L83.1372 116.366L84.2391 117.223C85.8482 118.493 86.129 120.766 84.8726 122.36L84.8699 122.364L77.4486 131.87L77.4474 131.872C76.1778 133.482 73.9043 133.763 72.3093 132.506L72.3045 132.502L71.2049 131.647L71.2027 131.645C69.5935 130.376 69.3127 128.103 70.5691 126.508L70.5718 126.504L77.9931 116.998Z" fill="url(#paint3_radial_1829_167)"/>
<defs>
<radialGradient id="paint0_radial_1829_167" cx="0" cy="0" r="1" gradientUnits="userSpaceOnUse" gradientTransform="translate(25.5176 140.94) rotate(-25.0914) scale(180.872 145.052)">
<stop stop-color="#66D2FD"/>
<stop offset="0.25" stop-color="#91DDFF"/>
<stop offset="0.5" stop-color="#ED50B9"/>
<stop offset="0.75" stop-color="#F8086E"/>
<stop offset="0.940085" stop-color="#FF5546"/>
</radialGradient>
<radialGradient id="paint1_radial_1829_167" cx="0" cy="0" r="1" gradientUnits="userSpaceOnUse" gradientTransform="translate(35.0426 83.0669) rotate(30.834) scale(139.867 68.9585)">
<stop offset="0.0149216" stop-color="#6843E7"/>
<stop offset="0.860954" stop-color="#6843E7" stop-opacity="0"/>
</radialGradient>
<radialGradient id="paint2_radial_1829_167" cx="0" cy="0" r="1" gradientUnits="userSpaceOnUse" gradientTransform="translate(166.736 137.29) rotate(-109.14) scale(69.4686 103.195)">
<stop stop-color="#FADAC7"/>
<stop offset="0.924249" stop-color="#FADAC7" stop-opacity="0"/>
</radialGradient>
<radialGradient id="paint3_radial_1829_167" cx="0" cy="0" r="1" gradientUnits="userSpaceOnUse" gradientTransform="translate(62.9964 140.94) scale(80.9626 44.5049)">
<stop stop-color="#65CDFC"/>
<stop offset="1" stop-color="#65CDFC" stop-opacity="0"/>
</radialGradient>
</defs>
</svg>
