<svg width="192" height="192" viewBox="0 0 192 192" fill="none" xmlns="http://www.w3.org/2000/svg">
<path fill-rule="evenodd" clip-rule="evenodd" d="M42.6081 55.4004C42.6081 48.3088 48.364 42.5528 55.4556 42.5528H95.5703V58.1134C94.1989 57.5418 92.6912 57.2201 91.1179 57.2201L91.0955 57.2204C88.8316 57.2789 86.7185 57.9399 84.9201 59.046C81.2839 61.2094 78.9283 65.2633 79.1668 69.8746L79.1672 69.8808C79.3832 73.5523 81.3228 76.8047 84.1797 78.8326C85.9562 80.1047 88.0931 80.8937 90.3949 81.0023C90.4807 81.0067 90.5667 81.0102 90.6529 81.0127L90.6554 81.0128C90.7568 81.0154 90.858 81.0168 90.9589 81.0168C92.5856 81.0252 94.1456 80.6943 95.5703 80.0933V95.7354H78.6087C78.2979 95.7354 78.0109 95.9013 77.8558 96.1706C77.7721 96.316 77.7338 96.4796 77.7408 96.6416C77.7378 96.795 77.7754 96.9489 77.8535 97.0869C78.7193 98.6146 79.222 100.334 79.222 102.145C79.222 102.258 79.2201 102.37 79.2165 102.482C78.9936 107.617 74.8261 111.84 69.727 112.141C63.8622 112.443 59.0676 107.848 59.0676 102.036C59.0676 100.79 59.3054 99.5877 59.7355 98.4614C59.9183 98.0082 60.1332 97.5701 60.3773 97.1497C60.4227 97.0715 60.4549 96.988 60.474 96.9022C60.5868 96.6487 60.5722 96.3545 60.4308 96.1118C60.2752 95.8448 59.9893 95.6805 59.6802 95.6805H42.6081V55.4004ZM40.8707 96.4106V55.4004C40.8707 47.3492 47.4045 40.8154 55.4556 40.8154H96.5495C96.7395 40.8154 96.9152 40.8764 97.0582 40.9799H137.585C145.746 40.9233 152.283 47.4565 152.283 55.51V96.6588L152.282 96.676V137.808C152.282 145.859 145.749 152.393 137.697 152.393H96.7994C96.7048 152.428 96.6023 152.447 96.4953 152.447H55.4014C47.3502 152.447 40.8164 145.913 40.8164 137.862V96.7135C40.8164 96.6069 40.8356 96.5049 40.8707 96.4106ZM58.215 97.5822H42.5538V137.862C42.5538 144.954 48.3098 150.71 55.4014 150.71H95.6266V133.583C95.6266 133.34 95.7278 133.112 95.9002 132.95C95.9625 132.88 96.0366 132.82 96.1206 132.772C96.3929 132.618 96.7272 132.622 96.9955 132.783C98.5012 133.687 100.314 134.192 102.232 134.141L102.238 134.141C104.959 134.088 107.447 132.927 109.252 131.087C110.866 129.417 111.921 127.199 112.088 124.746L112.088 124.745C112.492 118.893 107.799 113.987 101.982 113.987C100.164 113.987 98.395 114.493 96.9347 115.349C96.666 115.506 96.3337 115.508 96.0635 115.353C95.7933 115.198 95.6266 114.911 95.6266 114.6V97.5273H80.0383C80.6701 99.0246 81.0036 100.671 80.9584 102.388L80.9583 102.39C80.9568 102.442 80.955 102.494 80.9528 102.546C80.7346 109.162 75.1414 114.391 68.4077 113.985C62.3045 113.629 57.4539 108.598 57.2763 102.5L57.2762 102.497C57.233 100.853 57.5373 99.2722 58.1186 97.8258C58.1498 97.7442 58.182 97.663 58.215 97.5822ZM97.4173 135.025V150.655H137.697C144.789 150.655 150.545 144.899 150.545 137.808V97.5275H134.57C134.298 97.5275 134.041 97.3995 133.877 97.1819C133.713 96.9643 133.66 96.6822 133.735 96.4201C133.93 95.7369 134.031 94.9949 134.031 94.1899C134.031 94.1817 134.031 94.1735 134.031 94.1653C134.182 88.8182 129.988 84.2145 124.687 83.8089C124.24 83.7786 123.799 83.777 123.366 83.8024C123.337 83.8044 123.308 83.8065 123.28 83.8087L123.278 83.8088C117.925 84.2128 113.78 88.8139 113.931 94.1653C113.932 94.1735 113.932 94.1817 113.932 94.1899C113.932 94.9373 114.032 95.6796 114.227 96.3653C114.302 96.6274 114.25 96.9094 114.086 97.127C113.922 97.3447 113.665 97.4726 113.392 97.4726L113.283 97.4726L97.4173 97.4726V113.135C98.8219 112.534 100.379 112.195 102.035 112.195C108.835 112.195 114.349 117.875 113.875 124.809C113.677 127.714 112.42 130.336 110.497 132.299C108.381 134.487 105.442 135.869 102.221 135.933C100.521 135.977 98.8853 135.65 97.4173 135.025ZM150.545 55.51V95.7872L135.737 95.7387C135.831 95.1205 135.878 94.4897 135.878 93.8607C135.878 87.0931 130.147 81.6108 123.274 82.0673C117.053 82.4265 112.085 87.5553 112.085 93.8606C112.085 94.4885 112.131 95.1181 112.224 95.7352H97.3634V78.6632C97.3634 78.3525 97.1974 78.0654 96.9281 77.9104C96.7864 77.8288 96.6274 77.7903 96.4694 77.7949C96.3086 77.7893 96.1467 77.8283 96.0028 77.9118C94.5057 78.7811 92.7823 79.2796 90.9626 79.2794C90.8941 79.279 90.8255 79.2779 90.7567 79.2761L90.7507 79.276C90.6589 79.2742 90.5673 79.2712 90.476 79.2668C88.5449 79.1664 86.7458 78.5083 85.2395 77.4539C82.8012 75.7303 81.1415 72.9423 80.9572 69.7794L80.9571 69.7771C80.7236 65.9415 82.6774 62.5091 85.7361 60.5829C87.2669 59.6549 89.0695 59.1219 91.0074 59.1219C92.8207 59.1219 94.5354 59.6256 95.9997 60.484C96.2684 60.6415 96.6007 60.6431 96.8709 60.4883C97.0185 60.4038 97.1351 60.2797 97.2106 60.1337C97.3426 59.9789 97.4182 59.7799 97.4182 59.5701V42.7173H137.588L137.594 42.7172C144.794 42.6658 150.545 48.4217 150.545 55.51Z" fill="url(#paint0_radial_1829_1146)"/>
<path fill-rule="evenodd" clip-rule="evenodd" d="M42.6081 55.4004C42.6081 48.3088 48.364 42.5528 55.4556 42.5528H95.5703V58.1134C94.1989 57.5418 92.6912 57.2201 91.1179 57.2201L91.0955 57.2204C88.8316 57.2789 86.7185 57.9399 84.9201 59.046C81.2839 61.2094 78.9283 65.2633 79.1668 69.8746L79.1672 69.8808C79.3832 73.5523 81.3228 76.8047 84.1797 78.8326C85.9562 80.1047 88.0931 80.8937 90.3949 81.0023C90.4807 81.0067 90.5667 81.0102 90.6529 81.0127L90.6554 81.0128C90.7568 81.0154 90.858 81.0168 90.9589 81.0168C92.5856 81.0252 94.1456 80.6943 95.5703 80.0933V95.7354H78.6087C78.2979 95.7354 78.0109 95.9013 77.8558 96.1706C77.7721 96.316 77.7338 96.4796 77.7408 96.6416C77.7378 96.795 77.7754 96.9489 77.8535 97.0869C78.7193 98.6146 79.222 100.334 79.222 102.145C79.222 102.258 79.2201 102.37 79.2165 102.482C78.9936 107.617 74.8261 111.84 69.727 112.141C63.8622 112.443 59.0676 107.848 59.0676 102.036C59.0676 100.79 59.3054 99.5877 59.7355 98.4614C59.9183 98.0082 60.1332 97.5701 60.3773 97.1497C60.4227 97.0715 60.4549 96.988 60.474 96.9022C60.5868 96.6487 60.5722 96.3545 60.4308 96.1118C60.2752 95.8448 59.9893 95.6805 59.6802 95.6805H42.6081V55.4004ZM40.8707 96.4106V55.4004C40.8707 47.3492 47.4045 40.8154 55.4556 40.8154H96.5495C96.7395 40.8154 96.9152 40.8764 97.0582 40.9799H137.585C145.746 40.9233 152.283 47.4565 152.283 55.51V96.6588L152.282 96.676V137.808C152.282 145.859 145.749 152.393 137.697 152.393H96.7994C96.7048 152.428 96.6023 152.447 96.4953 152.447H55.4014C47.3502 152.447 40.8164 145.913 40.8164 137.862V96.7135C40.8164 96.6069 40.8356 96.5049 40.8707 96.4106ZM58.215 97.5822H42.5538V137.862C42.5538 144.954 48.3098 150.71 55.4014 150.71H95.6266V133.583C95.6266 133.34 95.7278 133.112 95.9002 132.95C95.9625 132.88 96.0366 132.82 96.1206 132.772C96.3929 132.618 96.7272 132.622 96.9955 132.783C98.5012 133.687 100.314 134.192 102.232 134.141L102.238 134.141C104.959 134.088 107.447 132.927 109.252 131.087C110.866 129.417 111.921 127.199 112.088 124.746L112.088 124.745C112.492 118.893 107.799 113.987 101.982 113.987C100.164 113.987 98.395 114.493 96.9347 115.349C96.666 115.506 96.3337 115.508 96.0635 115.353C95.7933 115.198 95.6266 114.911 95.6266 114.6V97.5273H80.0383C80.6701 99.0246 81.0036 100.671 80.9584 102.388L80.9583 102.39C80.9568 102.442 80.955 102.494 80.9528 102.546C80.7346 109.162 75.1414 114.391 68.4077 113.985C62.3045 113.629 57.4539 108.598 57.2763 102.5L57.2762 102.497C57.233 100.853 57.5373 99.2722 58.1186 97.8258C58.1498 97.7442 58.182 97.663 58.215 97.5822ZM97.4173 135.025V150.655H137.697C144.789 150.655 150.545 144.899 150.545 137.808V97.5275H134.57C134.298 97.5275 134.041 97.3995 133.877 97.1819C133.713 96.9643 133.66 96.6822 133.735 96.4201C133.93 95.7369 134.031 94.9949 134.031 94.1899C134.031 94.1817 134.031 94.1735 134.031 94.1653C134.182 88.8182 129.988 84.2145 124.687 83.8089C124.24 83.7786 123.799 83.777 123.366 83.8024C123.337 83.8044 123.308 83.8065 123.28 83.8087L123.278 83.8088C117.925 84.2128 113.78 88.8139 113.931 94.1653C113.932 94.1735 113.932 94.1817 113.932 94.1899C113.932 94.9373 114.032 95.6796 114.227 96.3653C114.302 96.6274 114.25 96.9094 114.086 97.127C113.922 97.3447 113.665 97.4726 113.392 97.4726L113.283 97.4726L97.4173 97.4726V113.135C98.8219 112.534 100.379 112.195 102.035 112.195C108.835 112.195 114.349 117.875 113.875 124.809C113.677 127.714 112.42 130.336 110.497 132.299C108.381 134.487 105.442 135.869 102.221 135.933C100.521 135.977 98.8853 135.65 97.4173 135.025ZM150.545 55.51V95.7872L135.737 95.7387C135.831 95.1205 135.878 94.4897 135.878 93.8607C135.878 87.0931 130.147 81.6108 123.274 82.0673C117.053 82.4265 112.085 87.5553 112.085 93.8606C112.085 94.4885 112.131 95.1181 112.224 95.7352H97.3634V78.6632C97.3634 78.3525 97.1974 78.0654 96.9281 77.9104C96.7864 77.8288 96.6274 77.7903 96.4694 77.7949C96.3086 77.7893 96.1467 77.8283 96.0028 77.9118C94.5057 78.7811 92.7823 79.2796 90.9626 79.2794C90.8941 79.279 90.8255 79.2779 90.7567 79.2761L90.7507 79.276C90.6589 79.2742 90.5673 79.2712 90.476 79.2668C88.5449 79.1664 86.7458 78.5083 85.2395 77.4539C82.8012 75.7303 81.1415 72.9423 80.9572 69.7794L80.9571 69.7771C80.7236 65.9415 82.6774 62.5091 85.7361 60.5829C87.2669 59.6549 89.0695 59.1219 91.0074 59.1219C92.8207 59.1219 94.5354 59.6256 95.9997 60.484C96.2684 60.6415 96.6007 60.6431 96.8709 60.4883C97.0185 60.4038 97.1351 60.2797 97.2106 60.1337C97.3426 59.9789 97.4182 59.7799 97.4182 59.5701V42.7173H137.588L137.594 42.7172C144.794 42.6658 150.545 48.4217 150.545 55.51Z" fill="url(#paint1_radial_1829_1146)"/>
<path fill-rule="evenodd" clip-rule="evenodd" d="M42.6081 55.4004C42.6081 48.3088 48.364 42.5528 55.4556 42.5528H95.5703V58.1134C94.1989 57.5418 92.6912 57.2201 91.1179 57.2201L91.0955 57.2204C88.8316 57.2789 86.7185 57.9399 84.9201 59.046C81.2839 61.2094 78.9283 65.2633 79.1668 69.8746L79.1672 69.8808C79.3832 73.5523 81.3228 76.8047 84.1797 78.8326C85.9562 80.1047 88.0931 80.8937 90.3949 81.0023C90.4807 81.0067 90.5667 81.0102 90.6529 81.0127L90.6554 81.0128C90.7568 81.0154 90.858 81.0168 90.9589 81.0168C92.5856 81.0252 94.1456 80.6943 95.5703 80.0933V95.7354H78.6087C78.2979 95.7354 78.0109 95.9013 77.8558 96.1706C77.7721 96.316 77.7338 96.4796 77.7408 96.6416C77.7378 96.795 77.7754 96.9489 77.8535 97.0869C78.7193 98.6146 79.222 100.334 79.222 102.145C79.222 102.258 79.2201 102.37 79.2165 102.482C78.9936 107.617 74.8261 111.84 69.727 112.141C63.8622 112.443 59.0676 107.848 59.0676 102.036C59.0676 100.79 59.3054 99.5877 59.7355 98.4614C59.9183 98.0082 60.1332 97.5701 60.3773 97.1497C60.4227 97.0715 60.4549 96.988 60.474 96.9022C60.5868 96.6487 60.5722 96.3545 60.4308 96.1118C60.2752 95.8448 59.9893 95.6805 59.6802 95.6805H42.6081V55.4004ZM40.8707 96.4106V55.4004C40.8707 47.3492 47.4045 40.8154 55.4556 40.8154H96.5495C96.7395 40.8154 96.9152 40.8764 97.0582 40.9799H137.585C145.746 40.9233 152.283 47.4565 152.283 55.51V96.6588L152.282 96.676V137.808C152.282 145.859 145.749 152.393 137.697 152.393H96.7994C96.7048 152.428 96.6023 152.447 96.4953 152.447H55.4014C47.3502 152.447 40.8164 145.913 40.8164 137.862V96.7135C40.8164 96.6069 40.8356 96.5049 40.8707 96.4106ZM58.215 97.5822H42.5538V137.862C42.5538 144.954 48.3098 150.71 55.4014 150.71H95.6266V133.583C95.6266 133.34 95.7278 133.112 95.9002 132.95C95.9625 132.88 96.0366 132.82 96.1206 132.772C96.3929 132.618 96.7272 132.622 96.9955 132.783C98.5012 133.687 100.314 134.192 102.232 134.141L102.238 134.141C104.959 134.088 107.447 132.927 109.252 131.087C110.866 129.417 111.921 127.199 112.088 124.746L112.088 124.745C112.492 118.893 107.799 113.987 101.982 113.987C100.164 113.987 98.395 114.493 96.9347 115.349C96.666 115.506 96.3337 115.508 96.0635 115.353C95.7933 115.198 95.6266 114.911 95.6266 114.6V97.5273H80.0383C80.6701 99.0246 81.0036 100.671 80.9584 102.388L80.9583 102.39C80.9568 102.442 80.955 102.494 80.9528 102.546C80.7346 109.162 75.1414 114.391 68.4077 113.985C62.3045 113.629 57.4539 108.598 57.2763 102.5L57.2762 102.497C57.233 100.853 57.5373 99.2722 58.1186 97.8258C58.1498 97.7442 58.182 97.663 58.215 97.5822ZM97.4173 135.025V150.655H137.697C144.789 150.655 150.545 144.899 150.545 137.808V97.5275H134.57C134.298 97.5275 134.041 97.3995 133.877 97.1819C133.713 96.9643 133.66 96.6822 133.735 96.4201C133.93 95.7369 134.031 94.9949 134.031 94.1899C134.031 94.1817 134.031 94.1735 134.031 94.1653C134.182 88.8182 129.988 84.2145 124.687 83.8089C124.24 83.7786 123.799 83.777 123.366 83.8024C123.337 83.8044 123.308 83.8065 123.28 83.8087L123.278 83.8088C117.925 84.2128 113.78 88.8139 113.931 94.1653C113.932 94.1735 113.932 94.1817 113.932 94.1899C113.932 94.9373 114.032 95.6796 114.227 96.3653C114.302 96.6274 114.25 96.9094 114.086 97.127C113.922 97.3447 113.665 97.4726 113.392 97.4726L113.283 97.4726L97.4173 97.4726V113.135C98.8219 112.534 100.379 112.195 102.035 112.195C108.835 112.195 114.349 117.875 113.875 124.809C113.677 127.714 112.42 130.336 110.497 132.299C108.381 134.487 105.442 135.869 102.221 135.933C100.521 135.977 98.8853 135.65 97.4173 135.025ZM150.545 55.51V95.7872L135.737 95.7387C135.831 95.1205 135.878 94.4897 135.878 93.8607C135.878 87.0931 130.147 81.6108 123.274 82.0673C117.053 82.4265 112.085 87.5553 112.085 93.8606C112.085 94.4885 112.131 95.1181 112.224 95.7352H97.3634V78.6632C97.3634 78.3525 97.1974 78.0654 96.9281 77.9104C96.7864 77.8288 96.6274 77.7903 96.4694 77.7949C96.3086 77.7893 96.1467 77.8283 96.0028 77.9118C94.5057 78.7811 92.7823 79.2796 90.9626 79.2794C90.8941 79.279 90.8255 79.2779 90.7567 79.2761L90.7507 79.276C90.6589 79.2742 90.5673 79.2712 90.476 79.2668C88.5449 79.1664 86.7458 78.5083 85.2395 77.4539C82.8012 75.7303 81.1415 72.9423 80.9572 69.7794L80.9571 69.7771C80.7236 65.9415 82.6774 62.5091 85.7361 60.5829C87.2669 59.6549 89.0695 59.1219 91.0074 59.1219C92.8207 59.1219 94.5354 59.6256 95.9997 60.484C96.2684 60.6415 96.6007 60.6431 96.8709 60.4883C97.0185 60.4038 97.1351 60.2797 97.2106 60.1337C97.3426 59.9789 97.4182 59.7799 97.4182 59.5701V42.7173H137.588L137.594 42.7172C144.794 42.6658 150.545 48.4217 150.545 55.51Z" fill="url(#paint2_radial_1829_1146)"/>
<path fill-rule="evenodd" clip-rule="evenodd" d="M42.6081 55.4004C42.6081 48.3088 48.364 42.5528 55.4556 42.5528H95.5703V58.1134C94.1989 57.5418 92.6912 57.2201 91.1179 57.2201L91.0955 57.2204C88.8316 57.2789 86.7185 57.9399 84.9201 59.046C81.2839 61.2094 78.9283 65.2633 79.1668 69.8746L79.1672 69.8808C79.3832 73.5523 81.3228 76.8047 84.1797 78.8326C85.9562 80.1047 88.0931 80.8937 90.3949 81.0023C90.4807 81.0067 90.5667 81.0102 90.6529 81.0127L90.6554 81.0128C90.7568 81.0154 90.858 81.0168 90.9589 81.0168C92.5856 81.0252 94.1456 80.6943 95.5703 80.0933V95.7354H78.6087C78.2979 95.7354 78.0109 95.9013 77.8558 96.1706C77.7721 96.316 77.7338 96.4796 77.7408 96.6416C77.7378 96.795 77.7754 96.9489 77.8535 97.0869C78.7193 98.6146 79.222 100.334 79.222 102.145C79.222 102.258 79.2201 102.37 79.2165 102.482C78.9936 107.617 74.8261 111.84 69.727 112.141C63.8622 112.443 59.0676 107.848 59.0676 102.036C59.0676 100.79 59.3054 99.5877 59.7355 98.4614C59.9183 98.0082 60.1332 97.5701 60.3773 97.1497C60.4227 97.0715 60.4549 96.988 60.474 96.9022C60.5868 96.6487 60.5722 96.3545 60.4308 96.1118C60.2752 95.8448 59.9893 95.6805 59.6802 95.6805H42.6081V55.4004ZM40.8707 96.4106V55.4004C40.8707 47.3492 47.4045 40.8154 55.4556 40.8154H96.5495C96.7395 40.8154 96.9152 40.8764 97.0582 40.9799H137.585C145.746 40.9233 152.283 47.4565 152.283 55.51V96.6588L152.282 96.676V137.808C152.282 145.859 145.749 152.393 137.697 152.393H96.7994C96.7048 152.428 96.6023 152.447 96.4953 152.447H55.4014C47.3502 152.447 40.8164 145.913 40.8164 137.862V96.7135C40.8164 96.6069 40.8356 96.5049 40.8707 96.4106ZM58.215 97.5822H42.5538V137.862C42.5538 144.954 48.3098 150.71 55.4014 150.71H95.6266V133.583C95.6266 133.34 95.7278 133.112 95.9002 132.95C95.9625 132.88 96.0366 132.82 96.1206 132.772C96.3929 132.618 96.7272 132.622 96.9955 132.783C98.5012 133.687 100.314 134.192 102.232 134.141L102.238 134.141C104.959 134.088 107.447 132.927 109.252 131.087C110.866 129.417 111.921 127.199 112.088 124.746L112.088 124.745C112.492 118.893 107.799 113.987 101.982 113.987C100.164 113.987 98.395 114.493 96.9347 115.349C96.666 115.506 96.3337 115.508 96.0635 115.353C95.7933 115.198 95.6266 114.911 95.6266 114.6V97.5273H80.0383C80.6701 99.0246 81.0036 100.671 80.9584 102.388L80.9583 102.39C80.9568 102.442 80.955 102.494 80.9528 102.546C80.7346 109.162 75.1414 114.391 68.4077 113.985C62.3045 113.629 57.4539 108.598 57.2763 102.5L57.2762 102.497C57.233 100.853 57.5373 99.2722 58.1186 97.8258C58.1498 97.7442 58.182 97.663 58.215 97.5822ZM97.4173 135.025V150.655H137.697C144.789 150.655 150.545 144.899 150.545 137.808V97.5275H134.57C134.298 97.5275 134.041 97.3995 133.877 97.1819C133.713 96.9643 133.66 96.6822 133.735 96.4201C133.93 95.7369 134.031 94.9949 134.031 94.1899C134.031 94.1817 134.031 94.1735 134.031 94.1653C134.182 88.8182 129.988 84.2145 124.687 83.8089C124.24 83.7786 123.799 83.777 123.366 83.8024C123.337 83.8044 123.308 83.8065 123.28 83.8087L123.278 83.8088C117.925 84.2128 113.78 88.8139 113.931 94.1653C113.932 94.1735 113.932 94.1817 113.932 94.1899C113.932 94.9373 114.032 95.6796 114.227 96.3653C114.302 96.6274 114.25 96.9094 114.086 97.127C113.922 97.3447 113.665 97.4726 113.392 97.4726L113.283 97.4726L97.4173 97.4726V113.135C98.8219 112.534 100.379 112.195 102.035 112.195C108.835 112.195 114.349 117.875 113.875 124.809C113.677 127.714 112.42 130.336 110.497 132.299C108.381 134.487 105.442 135.869 102.221 135.933C100.521 135.977 98.8853 135.65 97.4173 135.025ZM150.545 55.51V95.7872L135.737 95.7387C135.831 95.1205 135.878 94.4897 135.878 93.8607C135.878 87.0931 130.147 81.6108 123.274 82.0673C117.053 82.4265 112.085 87.5553 112.085 93.8606C112.085 94.4885 112.131 95.1181 112.224 95.7352H97.3634V78.6632C97.3634 78.3525 97.1974 78.0654 96.9281 77.9104C96.7864 77.8288 96.6274 77.7903 96.4694 77.7949C96.3086 77.7893 96.1467 77.8283 96.0028 77.9118C94.5057 78.7811 92.7823 79.2796 90.9626 79.2794C90.8941 79.279 90.8255 79.2779 90.7567 79.2761L90.7507 79.276C90.6589 79.2742 90.5673 79.2712 90.476 79.2668C88.5449 79.1664 86.7458 78.5083 85.2395 77.4539C82.8012 75.7303 81.1415 72.9423 80.9572 69.7794L80.9571 69.7771C80.7236 65.9415 82.6774 62.5091 85.7361 60.5829C87.2669 59.6549 89.0695 59.1219 91.0074 59.1219C92.8207 59.1219 94.5354 59.6256 95.9997 60.484C96.2684 60.6415 96.6007 60.6431 96.8709 60.4883C97.0185 60.4038 97.1351 60.2797 97.2106 60.1337C97.3426 59.9789 97.4182 59.7799 97.4182 59.5701V42.7173H137.588L137.594 42.7172C144.794 42.6658 150.545 48.4217 150.545 55.51Z" fill="url(#paint3_radial_1829_1146)"/>
<defs>
<radialGradient id="paint0_radial_1829_1146" cx="0" cy="0" r="1" gradientUnits="userSpaceOnUse" gradientTransform="translate(40.8164 152.447) rotate(-36.685) scale(161.227 161.295)">
<stop stop-color="#66D2FD"/>
<stop offset="0.25" stop-color="#91DDFF"/>
<stop offset="0.5" stop-color="#ED50B9"/>
<stop offset="0.75" stop-color="#F8086E"/>
<stop offset="0.940085" stop-color="#FF5546"/>
</radialGradient>
<radialGradient id="paint1_radial_1829_1146" cx="0" cy="0" r="1" gradientUnits="userSpaceOnUse" gradientTransform="translate(48.3346 79.772) rotate(43.5217) scale(130.732 73.1284)">
<stop offset="0.0149216" stop-color="#6843E7"/>
<stop offset="0.860954" stop-color="#6843E7" stop-opacity="0"/>
</radialGradient>
<radialGradient id="paint2_radial_1829_1146" cx="0" cy="0" r="1" gradientUnits="userSpaceOnUse" gradientTransform="translate(152.283 147.864) rotate(-102.306) scale(84.3526 84.2387)">
<stop stop-color="#FADAC7"/>
<stop offset="0.924249" stop-color="#FADAC7" stop-opacity="0"/>
</radialGradient>
<radialGradient id="paint3_radial_1829_1146" cx="0" cy="0" r="1" gradientUnits="userSpaceOnUse" gradientTransform="translate(70.3991 152.447) scale(63.9051 55.8881)">
<stop stop-color="#65CDFC"/>
<stop offset="1" stop-color="#65CDFC" stop-opacity="0"/>
</radialGradient>
</defs>
</svg>
