<svg width="40" height="40" viewBox="0 0 40 40" fill="none" xmlns="http://www.w3.org/2000/svg">
<path d="M6.66797 35.1416H33.3332" stroke="white" stroke-width="0.9" stroke-miterlimit="10" stroke-linecap="round" stroke-linejoin="round"/>
<path d="M9.37945 34.5629C7.65764 34.5629 6.36247 32.7496 6.72816 30.8145L8.60235 20.8493C8.60235 20.8493 10.1108 18.259 13.1888 18.2285L16.2362 18.838" stroke="white" stroke-width="0.9" stroke-miterlimit="10" stroke-linecap="round" stroke-linejoin="round"/>
<path d="M23.4141 18.9441L26.7358 18.2432C29.8594 18.2432 31.3832 20.864 31.3832 20.864L33.2574 30.8292C33.623 32.7491 32.3431 34.5775 30.6061 34.5775" stroke="white" stroke-width="0.9" stroke-miterlimit="10" stroke-linecap="round" stroke-linejoin="round"/>
<path d="M28.6391 35.0962H10.8419L10.1562 23.1045H29.3248L28.6391 35.0962Z" stroke="white" stroke-width="0.9" stroke-miterlimit="10" stroke-linecap="round" stroke-linejoin="round"/>
<path d="M19.7393 4.66699C26.8551 4.66699 23.7163 11.9199 23.7163 11.9199C23.7163 11.9199 23.2744 7.68397 22.9696 7.98872C21.6897 9.25341 19.7393 7.60779 19.7393 7.60779C19.7393 7.60779 18.1394 9.14675 16.509 7.98872C16.1586 7.74492 15.7472 11.8285 15.7472 11.8285C15.7472 11.8285 12.6235 4.66699 19.7393 4.66699Z" stroke="white" stroke-width="0.9" stroke-miterlimit="10" stroke-linecap="round" stroke-linejoin="round"/>
<path d="M23.7171 13.459C23.7171 13.459 23.3362 17.6035 19.664 17.6035C15.9766 17.6035 15.748 13.459 15.748 13.459" stroke="white" stroke-width="0.9" stroke-miterlimit="10" stroke-linecap="round" stroke-linejoin="round"/>
<path d="M15.382 11.5693C15.382 11.5693 14.7573 11.7979 14.9858 12.4074C15.2144 13.0321 15.7477 13.4435 15.7477 13.4435" stroke="white" stroke-width="0.9" stroke-miterlimit="10" stroke-linecap="round" stroke-linejoin="round"/>
<path d="M24.0981 11.5693C24.0981 11.5693 24.7228 11.7979 24.4943 12.4074C24.2657 13.0321 23.7324 13.4435 23.7324 13.4435" stroke="white" stroke-width="0.9" stroke-miterlimit="10" stroke-linecap="round" stroke-linejoin="round"/>
<path d="M17.1494 16.6592L16.2656 18.8534" stroke="white" stroke-width="0.9" stroke-miterlimit="10" stroke-linecap="round" stroke-linejoin="round"/>
<path d="M23.4119 18.9446L22.3301 16.5371" stroke="white" stroke-width="0.9" stroke-miterlimit="10" stroke-linecap="round" stroke-linejoin="round"/>
<path d="M6.66797 35.1416H33.3332" stroke="white" stroke-width="0.9" stroke-miterlimit="10" stroke-linecap="round" stroke-linejoin="round"/>
<path d="M9.37945 34.5629C7.65764 34.5629 6.36247 32.7496 6.72816 30.8145L8.60235 20.8493C8.60235 20.8493 10.1108 18.259 13.1888 18.2285L16.2362 18.838" stroke="white" stroke-width="0.9" stroke-miterlimit="10" stroke-linecap="round" stroke-linejoin="round"/>
<path d="M23.4141 18.9441L26.7358 18.2432C29.8594 18.2432 31.3832 20.864 31.3832 20.864L33.2574 30.8292C33.623 32.7491 32.3431 34.5775 30.6061 34.5775" stroke="white" stroke-width="0.9" stroke-miterlimit="10" stroke-linecap="round" stroke-linejoin="round"/>
<path d="M28.6391 35.0962H10.8419L10.1562 23.1045H29.3248L28.6391 35.0962Z" stroke="white" stroke-width="0.9" stroke-miterlimit="10" stroke-linecap="round" stroke-linejoin="round"/>
<path d="M19.7393 4.66699C26.8551 4.66699 23.7163 11.9199 23.7163 11.9199C23.7163 11.9199 23.2744 7.68397 22.9696 7.98872C21.6897 9.25341 19.7393 7.60779 19.7393 7.60779C19.7393 7.60779 18.1394 9.14675 16.509 7.98872C16.1586 7.74492 15.7472 11.8285 15.7472 11.8285C15.7472 11.8285 12.6235 4.66699 19.7393 4.66699Z" stroke="white" stroke-width="0.9" stroke-miterlimit="10" stroke-linecap="round" stroke-linejoin="round"/>
<path d="M23.7171 13.459C23.7171 13.459 23.3362 17.6035 19.664 17.6035C15.9766 17.6035 15.748 13.459 15.748 13.459" stroke="white" stroke-width="0.9" stroke-miterlimit="10" stroke-linecap="round" stroke-linejoin="round"/>
<path d="M15.382 11.5693C15.382 11.5693 14.7573 11.7979 14.9858 12.4074C15.2144 13.0321 15.7477 13.4435 15.7477 13.4435" stroke="white" stroke-width="0.9" stroke-miterlimit="10" stroke-linecap="round" stroke-linejoin="round"/>
<path d="M24.0981 11.5693C24.0981 11.5693 24.7228 11.7979 24.4943 12.4074C24.2657 13.0321 23.7324 13.4435 23.7324 13.4435" stroke="white" stroke-width="0.9" stroke-miterlimit="10" stroke-linecap="round" stroke-linejoin="round"/>
<path d="M17.1494 16.6592L16.2656 18.8534" stroke="white" stroke-width="0.9" stroke-miterlimit="10" stroke-linecap="round" stroke-linejoin="round"/>
<path d="M23.4119 18.9446L22.3301 16.5371" stroke="white" stroke-width="0.9" stroke-miterlimit="10" stroke-linecap="round" stroke-linejoin="round"/>
<path d="M6.66797 35.1406H33.3332" stroke="white" stroke-width="0.9" stroke-miterlimit="10" stroke-linecap="round" stroke-linejoin="round"/>
<path d="M9.37945 34.5619C7.65764 34.5619 6.36247 32.7487 6.72816 30.8135L8.60235 20.8483C8.60235 20.8483 10.1108 18.258 13.1888 18.2275L16.2362 18.837" stroke="white" stroke-width="0.9" stroke-miterlimit="10" stroke-linecap="round" stroke-linejoin="round"/>
<path d="M23.4141 18.9441L26.7358 18.2432C29.8594 18.2432 31.3832 20.864 31.3832 20.864L33.2574 30.8292C33.623 32.7491 32.3431 34.5775 30.6061 34.5775" stroke="white" stroke-width="0.9" stroke-miterlimit="10" stroke-linecap="round" stroke-linejoin="round"/>
<path d="M28.6391 35.0953H10.8419L10.1562 23.1035H29.3248L28.6391 35.0953Z" stroke="white" stroke-width="0.9" stroke-miterlimit="10" stroke-linecap="round" stroke-linejoin="round"/>
<path d="M17.1494 16.6582L16.2656 18.8524" stroke="white" stroke-width="0.9" stroke-miterlimit="10" stroke-linecap="round" stroke-linejoin="round"/>
<path d="M23.4119 18.9436L22.3301 16.5361" stroke="white" stroke-width="0.9" stroke-miterlimit="10" stroke-linecap="round" stroke-linejoin="round"/>
</svg>
