<svg width="40" height="40" viewBox="0 0 40 40" fill="none" xmlns="http://www.w3.org/2000/svg">
<path d="M34.3391 33.3337H6.23188C5.37065 33.3337 4.66602 32.629 4.66602 31.7678V8.23286C4.66602 7.37163 5.37065 6.66699 6.23188 6.66699H34.3391C35.2004 6.66699 35.905 7.37163 35.905 8.23286V31.7678C35.8893 32.629 35.2004 33.3337 34.3391 33.3337Z" stroke="white" stroke-width="0.939519" stroke-miterlimit="10" stroke-linecap="round" stroke-linejoin="round"/>
<path d="M4.68164 11.1299H35.8893" stroke="white" stroke-width="0.939519" stroke-miterlimit="10" stroke-linecap="round" stroke-linejoin="round"/>
<path d="M8.12695 9.09375H12.527" stroke="white" stroke-width="0.939519" stroke-miterlimit="10" stroke-linecap="round" stroke-linejoin="round"/>
<path d="M14.4219 9.09375H16.5045" stroke="white" stroke-width="0.939519" stroke-miterlimit="10" stroke-linecap="round" stroke-linejoin="round"/>
<path d="M18.5098 9.09375H20.5924" stroke="white" stroke-width="0.939519" stroke-miterlimit="10" stroke-linecap="round" stroke-linejoin="round"/>
<path d="M14.1719 31.9243C14.1719 28.542 16.9121 25.8018 20.2944 25.8018C23.6767 25.8018 26.4169 28.542 26.4169 31.9243" stroke="white" stroke-width="0.939519" stroke-miterlimit="10" stroke-linecap="round" stroke-linejoin="round"/>
<path d="M33.3529 31.9245V30.6718C33.3529 30.2177 32.9928 29.8576 32.5387 29.8576H30.3778C30.1116 28.5579 29.5949 27.3365 28.8902 26.2717L30.4091 24.7529C30.7223 24.4397 30.7223 23.9073 30.4091 23.5941L28.624 21.8247C28.3109 21.5115 27.7785 21.5115 27.4653 21.8247L25.9464 23.3436C24.866 22.6389 23.6603 22.1222 22.3606 21.856V19.6951C22.3606 19.241 22.0004 18.8809 21.5463 18.8809H19.0409C18.5868 18.8809 18.2267 19.241 18.2267 19.6951V21.856C16.927 22.1222 15.7057 22.6389 14.6409 23.3436L13.122 21.8247C12.8088 21.5115 12.2764 21.5115 11.9632 21.8247L10.1938 23.6098C9.88064 23.9229 9.88064 24.4553 10.1938 24.7685L11.7127 26.3031C11.0081 27.3835 10.4913 28.5892 10.2251 29.8889H8.06424C7.61014 29.8889 7.25 30.249 7.25 30.7031V31.9558" stroke="white" stroke-width="0.939519" stroke-miterlimit="10" stroke-linecap="round" stroke-linejoin="round"/>
</svg>
