<svg width="40" height="40" viewBox="0 0 40 40" fill="none" xmlns="http://www.w3.org/2000/svg">
<path d="M11.8153 18.9001C12.0123 18.0658 11.4957 17.2298 10.6615 17.0328C9.82718 16.8358 8.99118 17.3524 8.79419 18.1867C8.5972 19.021 9.1138 19.857 9.94807 20.054C10.7823 20.2509 11.6184 19.7343 11.8153 18.9001Z" stroke="white" stroke-width="0.922084" stroke-miterlimit="10" stroke-linecap="round" stroke-linejoin="round"/>
<path d="M18.2685 12.4342C18.4655 11.6 17.9488 10.764 17.1146 10.567C16.2803 10.37 15.4443 10.8866 15.2473 11.7209C15.0503 12.5551 15.5669 13.3911 16.4012 13.5881C17.2355 13.7851 18.0715 13.2685 18.2685 12.4342Z" stroke="white" stroke-width="0.922084" stroke-miterlimit="10" stroke-linecap="round" stroke-linejoin="round"/>
<path d="M24.3278 17.3778C24.9339 16.7717 24.9339 15.7889 24.3278 15.1827C23.7216 14.5766 22.7389 14.5766 22.1327 15.1827C21.5265 15.7889 21.5265 16.7717 22.1327 17.3778C22.7389 17.984 23.7216 17.984 24.3278 17.3778Z" stroke="white" stroke-width="0.922084" stroke-miterlimit="10" stroke-linecap="round" stroke-linejoin="round"/>
<path d="M30.7809 9.89539C31.3871 9.28924 31.3871 8.30646 30.7809 7.7003C30.1748 7.09415 29.192 7.09415 28.5858 7.70031C27.9797 8.30646 27.9797 9.28924 28.5858 9.89539C29.192 10.5015 30.1748 10.5016 30.7809 9.89539Z" stroke="white" stroke-width="0.922084" stroke-miterlimit="10" stroke-linecap="round" stroke-linejoin="round"/>
<path d="M15.6433 13.1348L11.248 17.2841" stroke="white" stroke-width="0.922084" stroke-miterlimit="10" stroke-linecap="round" stroke-linejoin="round"/>
<path d="M21.928 15.4244L18.0859 12.8887" stroke="white" stroke-width="0.922084" stroke-miterlimit="10" stroke-linecap="round" stroke-linejoin="round"/>
<path d="M28.676 9.98438L24.25 15.1019" stroke="white" stroke-width="0.922084" stroke-miterlimit="10" stroke-linecap="round" stroke-linejoin="round"/>
<path d="M17.6875 35.0806V26.582" stroke="white" stroke-width="0.922084" stroke-miterlimit="10" stroke-linecap="round" stroke-linejoin="round"/>
<path d="M22.3125 26.582V35.0806" stroke="white" stroke-width="0.922084" stroke-miterlimit="10" stroke-linecap="round" stroke-linejoin="round"/>
<path d="M36.6673 4.66699H3.33398V26.5819H36.6673V4.66699Z" stroke="white" stroke-width="0.922084" stroke-miterlimit="10" stroke-linecap="round" stroke-linejoin="round"/>
<path d="M3.94922 23.1699H36.6678" stroke="white" stroke-width="0.922084" stroke-miterlimit="10" stroke-linecap="round" stroke-linejoin="round"/>
<path d="M15.6289 35.0801H24.3733" stroke="white" stroke-width="0.922084" stroke-miterlimit="10" stroke-linecap="round" stroke-linejoin="round"/>
</svg>
