<svg width="274" height="275" viewBox="0 0 274 275" fill="none" xmlns="http://www.w3.org/2000/svg">
<path opacity="0.2" d="M263.228 167.234C270.517 149.618 274.162 130.787 272.947 111.652C272.34 101.628 270.214 92.2129 266.265 83.101C262.317 74.5965 256.85 66.6996 250.775 59.4101C242.271 49.387 232.855 40.2751 222.224 32.3781C221.617 31.7707 221.009 31.1632 220.402 30.8595C195.496 9.29466 163.301 -1.63961 130.498 0.486494C112.882 1.39768 95.8728 6.25736 80.3826 13.8506C81.2937 12.332 79.4714 10.2058 77.649 11.117C50.3133 24.4811 28.4448 47.8683 15.0807 75.204C1.71656 102.54 -3.44685 134.128 2.62775 163.893C4.1464 171.183 6.2725 178.472 9.00607 185.458C9.3098 186.065 9.3098 186.673 9.3098 187.28C12.6508 202.77 19.6366 217.653 30.2672 229.802C40.594 241.648 53.6543 250.456 68.2334 256.227C71.5744 257.746 75.2192 258.657 78.8639 259.872C97.0877 268.984 116.83 274.147 137.18 274.754C155.1 275.058 173.324 272.021 189.422 264.124C204.912 256.531 217.365 244.381 227.084 230.41C234.374 223.424 240.752 215.223 246.523 206.415C254.116 194.266 259.583 180.902 263.228 167.234ZM50.0096 234.055C33.0007 218.868 19.6366 199.733 12.0434 178.168C11.1322 170.879 10.5247 163.589 10.8284 155.996C13.2583 166.93 17.2068 177.561 22.3702 187.28C25.7112 195.177 29.9634 202.467 34.8231 209.453C44.2387 224.943 56.9954 238.003 72.4856 247.722C80.6863 252.886 89.1907 256.834 98.3026 259.568C94.6579 258.96 91.0131 258.353 87.3683 257.442C73.7005 251.671 60.9439 243.774 50.0096 234.055ZM251.99 82.7972C250.167 79.4562 248.041 76.4189 245.915 73.3816C235.892 59.1063 224.047 45.7422 210.683 34.2005C205.519 29.9483 200.356 25.6961 194.585 22.0513C201.267 25.3923 207.342 29.0371 213.416 32.9856C216.15 34.808 218.883 36.9341 221.617 38.7564C234.374 51.5131 244.7 66.3958 251.99 82.7972ZM160.567 256.227C156.315 257.138 152.063 258.049 147.507 258.96C142.343 259.264 137.484 259.568 132.32 259.264C105.288 257.746 78.5602 246.811 57.9066 229.195C60.3364 231.017 63.07 232.84 65.8035 234.662C95.8728 253.493 133.535 259.568 168.16 251.064C185.169 246.811 201.267 238.914 215.542 228.284L215.239 228.588C209.164 234.358 202.786 239.218 195.8 243.47C184.866 249.241 173.02 253.493 160.567 256.227ZM44.8462 74.9003C51.2245 65.7884 58.514 56.6765 66.411 48.4758C80.99 36.9341 98.3026 28.7334 116.526 24.7849C146.596 18.1028 177.88 23.8737 203.697 40.5788C211.898 46.046 219.491 52.4243 226.173 59.7138C226.78 60.625 227.084 61.2324 227.691 62.1436C232.247 70.3443 234.981 79.4562 237.715 88.2644C244.093 107.096 249.864 126.534 250.168 146.58C250.775 166.019 245.612 184.85 236.196 201.556C217.365 224.032 191.548 240.737 162.693 247.115C128.979 254.405 92.228 247.115 63.9812 227.373C50.9208 218.261 39.6828 206.415 31.1783 192.747C27.5336 184.547 24.8 175.739 22.9776 166.93C19.9403 152.048 19.9403 136.557 23.2814 121.978C26.9261 104.97 35.1268 89.1756 44.8462 74.9003ZM103.77 22.9625C106.2 22.355 108.629 22.0513 110.756 21.7476C101.34 24.1774 92.228 27.8222 83.7236 32.0744C86.4572 29.9483 89.1907 27.8222 91.9243 25.9998C96.1765 24.7849 99.8213 23.57 103.77 22.9625ZM251.686 174.22C254.42 162.982 255.331 151.44 254.42 139.595C252.597 118.941 246.219 99.1987 239.537 79.4562C238.93 77.6338 238.322 76.1152 237.715 74.2928C245.612 85.8345 251.382 98.5912 254.723 111.955C259.279 131.09 258.672 151.136 253.509 169.968C252.901 171.486 252.294 172.701 251.686 174.22ZM156.315 16.8879C140.217 14.4581 123.816 14.4581 107.718 17.4954C112.882 14.7618 118.653 12.6357 124.727 11.4208C132.32 9.59839 140.217 9.29466 148.114 9.59839C161.175 12.0282 173.931 17.1916 185.473 24.1774C176.057 20.5327 166.034 18.1028 156.315 16.8879ZM88.887 21.7476C77.3453 25.6961 66.1073 31.1632 56.6916 38.7564C71.2707 25.6961 89.1907 15.9767 108.022 11.117C101.34 14.1543 94.9616 17.7991 88.887 21.7476ZM56.3879 45.1348C62.1588 39.9714 68.5371 36.0229 75.5229 32.6818C74.9154 33.2893 74.308 33.8968 73.3968 34.5042C68.2334 39.3639 63.3737 44.5273 58.514 49.6907C50.9208 56.6765 43.935 64.2697 38.4679 73.0779C37.8604 73.9891 38.1641 74.9003 38.7716 75.5077C38.4679 76.1152 38.1641 76.4189 37.8604 77.0264C28.141 91.9091 20.5478 108.311 17.5105 125.927C16.2956 132.305 15.9919 138.684 15.9919 145.366C15.6881 141.113 15.3844 137.165 15.3844 133.52C15.3844 128.66 15.6881 123.497 15.9919 118.637C18.7254 108.311 22.3702 97.9837 26.6224 88.5681C33.9119 72.4704 43.0238 56.6765 56.3879 45.1348ZM34.8231 63.6623C31.7858 68.5219 28.7485 73.9891 26.3187 79.1525C27.2299 77.0264 28.141 75.204 29.0522 73.0779C30.8746 70.0406 32.697 66.6996 34.8231 63.6623ZM267.48 118.941C267.48 120.46 267.48 121.675 267.48 123.193C267.48 122.89 267.48 122.282 267.176 121.978C266.873 118.941 266.569 115.904 266.265 113.17C263.835 98.2875 258.976 83.4047 251.686 70.0406C256.546 76.4189 260.494 83.101 263.228 90.6942C266.569 99.5024 267.48 109.222 267.48 118.941ZM21.1553 73.0779C30.5709 54.8541 43.935 38.7564 60.3364 26.6073C53.9581 31.4669 48.1872 36.9341 43.0238 43.0087C38.7716 48.1721 34.8231 53.3355 31.4821 58.8026C31.1783 59.4101 30.8746 59.7138 30.2672 60.3212C15.0807 82.4935 6.87996 109.222 7.79115 136.254C6.87996 142.632 6.2725 149.314 5.96877 155.692C2.32402 127.446 8.09488 98.2875 21.1553 73.0779ZM31.4821 224.639C27.5336 219.779 24.4963 214.616 21.7627 209.453C29.6597 221.602 39.6828 232.536 50.9208 241.648C52.4394 242.863 53.6543 243.774 55.173 244.989C46.0611 239.826 38.1641 232.84 31.4821 224.639ZM180.31 261.694C164.819 267.769 147.507 269.895 131.105 268.68C123.208 268.072 115.615 266.857 108.022 265.035C113.489 265.339 118.956 265.643 124.423 265.339C139.306 266.857 154.189 265.946 168.768 262.605C180.613 259.872 191.851 255.316 202.178 249.241C195.496 254.405 188.207 258.657 180.31 261.694Z" fill="white"/>
</svg>
