<svg width="303" height="305" viewBox="0 0 303 305" fill="none" xmlns="http://www.w3.org/2000/svg">
<path d="M291.414 185.284C299.463 165.833 303.487 145.04 302.146 123.912C301.475 112.845 299.128 102.448 294.768 92.3872C290.408 82.9968 284.371 74.2773 277.664 66.2284C268.274 55.1613 257.877 45.1002 246.139 36.3807C245.469 35.7099 244.798 35.0392 244.127 34.7038C216.627 10.8927 181.078 -1.18059 144.858 1.16699C125.407 2.1731 106.626 7.53899 89.5225 15.9232C90.5286 14.2464 88.5164 11.8988 86.5042 12.9049C56.321 27.6611 32.1745 53.4844 17.4183 83.6676C2.66213 113.851 -3.03913 148.729 3.66823 181.595C5.34508 189.644 7.69265 197.693 10.711 205.406C11.0463 206.077 11.0463 206.748 11.0463 207.418C14.7354 224.522 22.4489 240.955 34.1867 254.37C45.5893 267.449 60.0101 277.175 76.1078 283.547C79.7968 285.224 83.8212 286.23 87.8457 287.571C107.968 297.633 129.767 303.334 152.236 304.005C172.023 304.34 192.145 300.986 209.92 292.267C227.023 283.882 240.774 270.468 251.505 255.041C259.554 247.327 266.597 238.272 272.969 228.547C281.353 215.132 287.39 200.376 291.414 185.284ZM55.9857 259.065C37.2051 242.297 22.4489 221.169 14.0647 197.357C13.0585 189.309 12.3878 181.26 12.7232 172.876C15.4061 184.949 19.7659 196.687 25.4672 207.418C29.1562 216.138 33.8514 224.187 39.2173 231.9C49.6137 249.004 63.6992 263.425 80.8029 274.157C89.8579 279.858 99.2482 284.218 109.309 287.236C105.285 286.565 101.26 285.895 97.236 284.889C82.1444 278.517 68.0589 269.797 55.9857 259.065ZM279.006 92.0518C276.993 88.3627 274.646 85.0091 272.298 81.6554C261.231 65.8931 248.152 51.1369 233.396 38.3929C227.694 33.6977 221.993 29.0026 215.621 24.9781C222.999 28.6672 229.706 32.6916 236.414 37.0514C239.432 39.0636 242.45 41.4112 245.469 43.4234C259.554 57.5089 270.957 73.9419 279.006 92.0518ZM178.06 283.547C173.365 284.553 168.669 285.559 163.639 286.565C157.938 286.901 152.572 287.236 146.87 286.901C117.023 285.224 87.5103 273.151 64.7053 253.699C67.3882 255.712 70.4065 257.724 73.4248 259.736C106.626 280.529 148.212 287.236 186.444 277.846C205.225 273.151 222.999 264.431 238.761 252.693L238.426 253.029C231.719 259.401 224.676 264.766 216.962 269.462C204.889 275.834 191.81 280.529 178.06 283.547ZM50.2844 83.3322C57.3272 73.2712 65.376 63.2101 74.0956 54.1552C90.1932 41.4112 109.309 32.3562 129.431 27.9965C162.633 20.6184 197.176 26.9903 225.682 45.4356C234.737 51.4722 243.121 58.515 250.499 66.5638C251.17 67.5699 251.505 68.2406 252.176 69.2467C257.207 78.3017 260.225 88.3627 263.243 98.0884C270.286 118.881 276.658 140.345 276.993 162.479C277.664 183.943 271.963 204.736 261.566 223.181C240.774 247.998 212.267 266.443 180.407 273.486C143.181 281.535 102.602 273.486 71.4126 251.687C56.9918 241.626 44.5832 228.547 35.1928 213.455C31.1684 204.4 28.1501 194.674 26.1379 184.949C22.7842 168.516 22.7842 151.412 26.4733 135.314C30.4977 116.534 39.5526 99.0945 50.2844 83.3322ZM115.346 25.9842C118.029 25.3135 120.712 24.9781 123.059 24.6428C112.663 27.3257 102.602 31.3501 93.2116 36.0453C96.2299 33.6977 99.2482 31.3501 102.267 29.3379C106.962 27.9965 110.986 26.655 115.346 25.9842ZM278.67 192.998C281.689 180.589 282.695 167.845 281.689 154.766C279.676 131.961 272.634 110.162 265.255 88.3627C264.585 86.3505 263.914 84.6737 263.243 82.6615C271.963 95.4055 278.335 109.491 282.024 124.247C287.054 145.375 286.384 167.51 280.682 188.302C280.012 189.979 279.341 191.321 278.67 192.998ZM173.365 19.2769C155.59 16.5939 137.48 16.5939 119.706 19.9476C125.407 16.9293 131.779 14.5817 138.486 13.2403C146.87 11.228 155.59 10.8927 164.31 11.228C178.73 13.911 192.816 19.6122 205.56 27.3257C195.163 23.3013 184.096 20.6184 173.365 19.2769ZM98.9128 24.6428C86.1688 29.0026 73.7602 35.0392 63.3638 43.4234C79.4615 29.0026 99.2482 18.2708 120.041 12.9049C112.663 16.2586 105.62 20.283 98.9128 24.6428ZM63.0284 50.4661C69.4004 44.7649 76.4431 40.4051 84.1566 36.716C83.4859 37.3868 82.8151 38.0575 81.809 38.7282C76.1078 44.0941 70.7419 49.7954 65.376 55.4966C56.9918 63.2101 49.2783 71.5943 43.2417 81.32C42.571 82.3261 42.9063 83.3322 43.5771 84.0029C43.2417 84.6737 42.9063 85.009 42.5709 85.6798C31.8392 102.113 23.455 120.223 20.1013 139.674C18.7598 146.717 18.4244 153.76 18.4244 161.138C18.0891 156.442 17.7537 152.083 17.7537 148.058C17.7537 142.692 18.0891 136.991 18.4244 131.625C21.4428 120.223 25.4672 108.82 30.1623 98.4238C38.2112 80.6493 48.2722 63.2101 63.0284 50.4661ZM39.2173 70.9236C35.8636 76.2895 32.5099 82.3261 29.827 88.0274C30.8331 85.6798 31.8392 83.6676 32.8453 81.32C34.8575 77.9663 36.8697 74.2773 39.2173 70.9236ZM296.109 131.961C296.109 133.637 296.109 134.979 296.109 136.656C296.109 136.32 296.109 135.65 295.774 135.314C295.439 131.961 295.103 128.607 294.768 125.589C292.085 109.156 286.719 92.7225 278.67 77.9663C284.036 85.0091 288.396 92.3872 291.414 100.771C295.103 110.497 296.109 121.229 296.109 131.961ZM24.1257 81.32C34.5221 61.1979 49.2783 43.4234 67.3882 30.0087C60.3455 35.3746 53.9735 41.4112 48.2722 48.1185C43.5771 53.8198 39.2173 59.5211 35.5282 65.5577C35.1929 66.2284 34.8575 66.5638 34.1867 67.2345C17.4183 91.7164 8.36339 121.229 9.36949 151.077C8.36339 158.119 7.69265 165.497 7.35729 172.54C3.33287 141.351 9.70486 109.156 24.1257 81.32ZM35.5282 248.669C31.1684 243.303 27.8147 237.602 24.7964 231.9C33.516 245.315 44.5832 257.388 56.9918 267.449C58.6686 268.791 60.0101 269.797 61.6869 271.138C51.6259 265.437 42.9063 257.724 35.5282 248.669ZM199.859 289.584C182.755 296.291 163.639 298.639 145.529 297.297C136.809 296.626 128.425 295.285 120.041 293.273C126.078 293.608 132.114 293.943 138.151 293.608C154.584 295.285 171.017 294.279 187.115 290.59C200.194 287.571 212.603 282.541 224.005 275.834C216.627 281.535 208.578 286.23 199.859 289.584Z" fill="url(#paint0_radial_3002_5802)"/>
<path d="M291.414 185.284C299.463 165.833 303.487 145.04 302.146 123.912C301.475 112.845 299.128 102.448 294.768 92.3872C290.408 82.9968 284.371 74.2773 277.664 66.2284C268.274 55.1613 257.877 45.1002 246.139 36.3807C245.469 35.7099 244.798 35.0392 244.127 34.7038C216.627 10.8927 181.078 -1.18059 144.858 1.16699C125.407 2.1731 106.626 7.53899 89.5225 15.9232C90.5286 14.2464 88.5164 11.8988 86.5042 12.9049C56.321 27.6611 32.1745 53.4844 17.4183 83.6676C2.66213 113.851 -3.03913 148.729 3.66823 181.595C5.34508 189.644 7.69265 197.693 10.711 205.406C11.0463 206.077 11.0463 206.748 11.0463 207.418C14.7354 224.522 22.4489 240.955 34.1867 254.37C45.5893 267.449 60.0101 277.175 76.1078 283.547C79.7968 285.224 83.8212 286.23 87.8457 287.571C107.968 297.633 129.767 303.334 152.236 304.005C172.023 304.34 192.145 300.986 209.92 292.267C227.023 283.882 240.774 270.468 251.505 255.041C259.554 247.327 266.597 238.272 272.969 228.547C281.353 215.132 287.39 200.376 291.414 185.284ZM55.9857 259.065C37.2051 242.297 22.4489 221.169 14.0647 197.357C13.0585 189.309 12.3878 181.26 12.7232 172.876C15.4061 184.949 19.7659 196.687 25.4672 207.418C29.1562 216.138 33.8514 224.187 39.2173 231.9C49.6137 249.004 63.6992 263.425 80.8029 274.157C89.8579 279.858 99.2482 284.218 109.309 287.236C105.285 286.565 101.26 285.895 97.236 284.889C82.1444 278.517 68.0589 269.797 55.9857 259.065ZM279.006 92.0518C276.993 88.3627 274.646 85.0091 272.298 81.6554C261.231 65.8931 248.152 51.1369 233.396 38.3929C227.694 33.6977 221.993 29.0026 215.621 24.9781C222.999 28.6672 229.706 32.6916 236.414 37.0514C239.432 39.0636 242.45 41.4112 245.469 43.4234C259.554 57.5089 270.957 73.9419 279.006 92.0518ZM178.06 283.547C173.365 284.553 168.669 285.559 163.639 286.565C157.938 286.901 152.572 287.236 146.87 286.901C117.023 285.224 87.5103 273.151 64.7053 253.699C67.3882 255.712 70.4065 257.724 73.4248 259.736C106.626 280.529 148.212 287.236 186.444 277.846C205.225 273.151 222.999 264.431 238.761 252.693L238.426 253.029C231.719 259.401 224.676 264.766 216.962 269.462C204.889 275.834 191.81 280.529 178.06 283.547ZM50.2844 83.3322C57.3272 73.2712 65.376 63.2101 74.0956 54.1552C90.1932 41.4112 109.309 32.3562 129.431 27.9965C162.633 20.6184 197.176 26.9903 225.682 45.4356C234.737 51.4722 243.121 58.515 250.499 66.5638C251.17 67.5699 251.505 68.2406 252.176 69.2467C257.207 78.3017 260.225 88.3627 263.243 98.0884C270.286 118.881 276.658 140.345 276.993 162.479C277.664 183.943 271.963 204.736 261.566 223.181C240.774 247.998 212.267 266.443 180.407 273.486C143.181 281.535 102.602 273.486 71.4126 251.687C56.9918 241.626 44.5832 228.547 35.1928 213.455C31.1684 204.4 28.1501 194.674 26.1379 184.949C22.7842 168.516 22.7842 151.412 26.4733 135.314C30.4977 116.534 39.5526 99.0945 50.2844 83.3322ZM115.346 25.9842C118.029 25.3135 120.712 24.9781 123.059 24.6428C112.663 27.3257 102.602 31.3501 93.2116 36.0453C96.2299 33.6977 99.2482 31.3501 102.267 29.3379C106.962 27.9965 110.986 26.655 115.346 25.9842ZM278.67 192.998C281.689 180.589 282.695 167.845 281.689 154.766C279.676 131.961 272.634 110.162 265.255 88.3627C264.585 86.3505 263.914 84.6737 263.243 82.6615C271.963 95.4055 278.335 109.491 282.024 124.247C287.054 145.375 286.384 167.51 280.682 188.302C280.012 189.979 279.341 191.321 278.67 192.998ZM173.365 19.2769C155.59 16.5939 137.48 16.5939 119.706 19.9476C125.407 16.9293 131.779 14.5817 138.486 13.2403C146.87 11.228 155.59 10.8927 164.31 11.228C178.73 13.911 192.816 19.6122 205.56 27.3257C195.163 23.3013 184.096 20.6184 173.365 19.2769ZM98.9128 24.6428C86.1688 29.0026 73.7602 35.0392 63.3638 43.4234C79.4615 29.0026 99.2482 18.2708 120.041 12.9049C112.663 16.2586 105.62 20.283 98.9128 24.6428ZM63.0284 50.4661C69.4004 44.7649 76.4431 40.4051 84.1566 36.716C83.4859 37.3868 82.8151 38.0575 81.809 38.7282C76.1078 44.0941 70.7419 49.7954 65.376 55.4966C56.9918 63.2101 49.2783 71.5943 43.2417 81.32C42.571 82.3261 42.9063 83.3322 43.5771 84.0029C43.2417 84.6737 42.9063 85.009 42.5709 85.6798C31.8392 102.113 23.455 120.223 20.1013 139.674C18.7598 146.717 18.4244 153.76 18.4244 161.138C18.0891 156.442 17.7537 152.083 17.7537 148.058C17.7537 142.692 18.0891 136.991 18.4244 131.625C21.4428 120.223 25.4672 108.82 30.1623 98.4238C38.2112 80.6493 48.2722 63.2101 63.0284 50.4661ZM39.2173 70.9236C35.8636 76.2895 32.5099 82.3261 29.827 88.0274C30.8331 85.6798 31.8392 83.6676 32.8453 81.32C34.8575 77.9663 36.8697 74.2773 39.2173 70.9236ZM296.109 131.961C296.109 133.637 296.109 134.979 296.109 136.656C296.109 136.32 296.109 135.65 295.774 135.314C295.439 131.961 295.103 128.607 294.768 125.589C292.085 109.156 286.719 92.7225 278.67 77.9663C284.036 85.0091 288.396 92.3872 291.414 100.771C295.103 110.497 296.109 121.229 296.109 131.961ZM24.1257 81.32C34.5221 61.1979 49.2783 43.4234 67.3882 30.0087C60.3455 35.3746 53.9735 41.4112 48.2722 48.1185C43.5771 53.8198 39.2173 59.5211 35.5282 65.5577C35.1929 66.2284 34.8575 66.5638 34.1867 67.2345C17.4183 91.7164 8.36339 121.229 9.36949 151.077C8.36339 158.119 7.69265 165.497 7.35729 172.54C3.33287 141.351 9.70486 109.156 24.1257 81.32ZM35.5282 248.669C31.1684 243.303 27.8147 237.602 24.7964 231.9C33.516 245.315 44.5832 257.388 56.9918 267.449C58.6686 268.791 60.0101 269.797 61.6869 271.138C51.6259 265.437 42.9063 257.724 35.5282 248.669ZM199.859 289.584C182.755 296.291 163.639 298.639 145.529 297.297C136.809 296.626 128.425 295.285 120.041 293.273C126.078 293.608 132.114 293.943 138.151 293.608C154.584 295.285 171.017 294.279 187.115 290.59C200.194 287.571 212.603 282.541 224.005 275.834C216.627 281.535 208.578 286.23 199.859 289.584Z" fill="url(#paint1_radial_3002_5802)"/>
<path d="M291.414 185.284C299.463 165.833 303.487 145.04 302.146 123.912C301.475 112.845 299.128 102.448 294.768 92.3872C290.408 82.9968 284.371 74.2773 277.664 66.2284C268.274 55.1613 257.877 45.1002 246.139 36.3807C245.469 35.7099 244.798 35.0392 244.127 34.7038C216.627 10.8927 181.078 -1.18059 144.858 1.16699C125.407 2.1731 106.626 7.53899 89.5225 15.9232C90.5286 14.2464 88.5164 11.8988 86.5042 12.9049C56.321 27.6611 32.1745 53.4844 17.4183 83.6676C2.66213 113.851 -3.03913 148.729 3.66823 181.595C5.34508 189.644 7.69265 197.693 10.711 205.406C11.0463 206.077 11.0463 206.748 11.0463 207.418C14.7354 224.522 22.4489 240.955 34.1867 254.37C45.5893 267.449 60.0101 277.175 76.1078 283.547C79.7968 285.224 83.8212 286.23 87.8457 287.571C107.968 297.633 129.767 303.334 152.236 304.005C172.023 304.34 192.145 300.986 209.92 292.267C227.023 283.882 240.774 270.468 251.505 255.041C259.554 247.327 266.597 238.272 272.969 228.547C281.353 215.132 287.39 200.376 291.414 185.284ZM55.9857 259.065C37.2051 242.297 22.4489 221.169 14.0647 197.357C13.0585 189.309 12.3878 181.26 12.7232 172.876C15.4061 184.949 19.7659 196.687 25.4672 207.418C29.1562 216.138 33.8514 224.187 39.2173 231.9C49.6137 249.004 63.6992 263.425 80.8029 274.157C89.8579 279.858 99.2482 284.218 109.309 287.236C105.285 286.565 101.26 285.895 97.236 284.889C82.1444 278.517 68.0589 269.797 55.9857 259.065ZM279.006 92.0518C276.993 88.3627 274.646 85.0091 272.298 81.6554C261.231 65.8931 248.152 51.1369 233.396 38.3929C227.694 33.6977 221.993 29.0026 215.621 24.9781C222.999 28.6672 229.706 32.6916 236.414 37.0514C239.432 39.0636 242.45 41.4112 245.469 43.4234C259.554 57.5089 270.957 73.9419 279.006 92.0518ZM178.06 283.547C173.365 284.553 168.669 285.559 163.639 286.565C157.938 286.901 152.572 287.236 146.87 286.901C117.023 285.224 87.5103 273.151 64.7053 253.699C67.3882 255.712 70.4065 257.724 73.4248 259.736C106.626 280.529 148.212 287.236 186.444 277.846C205.225 273.151 222.999 264.431 238.761 252.693L238.426 253.029C231.719 259.401 224.676 264.766 216.962 269.462C204.889 275.834 191.81 280.529 178.06 283.547ZM50.2844 83.3322C57.3272 73.2712 65.376 63.2101 74.0956 54.1552C90.1932 41.4112 109.309 32.3562 129.431 27.9965C162.633 20.6184 197.176 26.9903 225.682 45.4356C234.737 51.4722 243.121 58.515 250.499 66.5638C251.17 67.5699 251.505 68.2406 252.176 69.2467C257.207 78.3017 260.225 88.3627 263.243 98.0884C270.286 118.881 276.658 140.345 276.993 162.479C277.664 183.943 271.963 204.736 261.566 223.181C240.774 247.998 212.267 266.443 180.407 273.486C143.181 281.535 102.602 273.486 71.4126 251.687C56.9918 241.626 44.5832 228.547 35.1928 213.455C31.1684 204.4 28.1501 194.674 26.1379 184.949C22.7842 168.516 22.7842 151.412 26.4733 135.314C30.4977 116.534 39.5526 99.0945 50.2844 83.3322ZM115.346 25.9842C118.029 25.3135 120.712 24.9781 123.059 24.6428C112.663 27.3257 102.602 31.3501 93.2116 36.0453C96.2299 33.6977 99.2482 31.3501 102.267 29.3379C106.962 27.9965 110.986 26.655 115.346 25.9842ZM278.67 192.998C281.689 180.589 282.695 167.845 281.689 154.766C279.676 131.961 272.634 110.162 265.255 88.3627C264.585 86.3505 263.914 84.6737 263.243 82.6615C271.963 95.4055 278.335 109.491 282.024 124.247C287.054 145.375 286.384 167.51 280.682 188.302C280.012 189.979 279.341 191.321 278.67 192.998ZM173.365 19.2769C155.59 16.5939 137.48 16.5939 119.706 19.9476C125.407 16.9293 131.779 14.5817 138.486 13.2403C146.87 11.228 155.59 10.8927 164.31 11.228C178.73 13.911 192.816 19.6122 205.56 27.3257C195.163 23.3013 184.096 20.6184 173.365 19.2769ZM98.9128 24.6428C86.1688 29.0026 73.7602 35.0392 63.3638 43.4234C79.4615 29.0026 99.2482 18.2708 120.041 12.9049C112.663 16.2586 105.62 20.283 98.9128 24.6428ZM63.0284 50.4661C69.4004 44.7649 76.4431 40.4051 84.1566 36.716C83.4859 37.3868 82.8151 38.0575 81.809 38.7282C76.1078 44.0941 70.7419 49.7954 65.376 55.4966C56.9918 63.2101 49.2783 71.5943 43.2417 81.32C42.571 82.3261 42.9063 83.3322 43.5771 84.0029C43.2417 84.6737 42.9063 85.009 42.5709 85.6798C31.8392 102.113 23.455 120.223 20.1013 139.674C18.7598 146.717 18.4244 153.76 18.4244 161.138C18.0891 156.442 17.7537 152.083 17.7537 148.058C17.7537 142.692 18.0891 136.991 18.4244 131.625C21.4428 120.223 25.4672 108.82 30.1623 98.4238C38.2112 80.6493 48.2722 63.2101 63.0284 50.4661ZM39.2173 70.9236C35.8636 76.2895 32.5099 82.3261 29.827 88.0274C30.8331 85.6798 31.8392 83.6676 32.8453 81.32C34.8575 77.9663 36.8697 74.2773 39.2173 70.9236ZM296.109 131.961C296.109 133.637 296.109 134.979 296.109 136.656C296.109 136.32 296.109 135.65 295.774 135.314C295.439 131.961 295.103 128.607 294.768 125.589C292.085 109.156 286.719 92.7225 278.67 77.9663C284.036 85.0091 288.396 92.3872 291.414 100.771C295.103 110.497 296.109 121.229 296.109 131.961ZM24.1257 81.32C34.5221 61.1979 49.2783 43.4234 67.3882 30.0087C60.3455 35.3746 53.9735 41.4112 48.2722 48.1185C43.5771 53.8198 39.2173 59.5211 35.5282 65.5577C35.1929 66.2284 34.8575 66.5638 34.1867 67.2345C17.4183 91.7164 8.36339 121.229 9.36949 151.077C8.36339 158.119 7.69265 165.497 7.35729 172.54C3.33287 141.351 9.70486 109.156 24.1257 81.32ZM35.5282 248.669C31.1684 243.303 27.8147 237.602 24.7964 231.9C33.516 245.315 44.5832 257.388 56.9918 267.449C58.6686 268.791 60.0101 269.797 61.6869 271.138C51.6259 265.437 42.9063 257.724 35.5282 248.669ZM199.859 289.584C182.755 296.291 163.639 298.639 145.529 297.297C136.809 296.626 128.425 295.285 120.041 293.273C126.078 293.608 132.114 293.943 138.151 293.608C154.584 295.285 171.017 294.279 187.115 290.59C200.194 287.571 212.603 282.541 224.005 275.834C216.627 281.535 208.578 286.23 199.859 289.584Z" fill="url(#paint2_radial_3002_5802)"/>
<path d="M291.414 185.284C299.463 165.833 303.487 145.04 302.146 123.912C301.475 112.845 299.128 102.448 294.768 92.3872C290.408 82.9968 284.371 74.2773 277.664 66.2284C268.274 55.1613 257.877 45.1002 246.139 36.3807C245.469 35.7099 244.798 35.0392 244.127 34.7038C216.627 10.8927 181.078 -1.18059 144.858 1.16699C125.407 2.1731 106.626 7.53899 89.5225 15.9232C90.5286 14.2464 88.5164 11.8988 86.5042 12.9049C56.321 27.6611 32.1745 53.4844 17.4183 83.6676C2.66213 113.851 -3.03913 148.729 3.66823 181.595C5.34508 189.644 7.69265 197.693 10.711 205.406C11.0463 206.077 11.0463 206.748 11.0463 207.418C14.7354 224.522 22.4489 240.955 34.1867 254.37C45.5893 267.449 60.0101 277.175 76.1078 283.547C79.7968 285.224 83.8212 286.23 87.8457 287.571C107.968 297.633 129.767 303.334 152.236 304.005C172.023 304.34 192.145 300.986 209.92 292.267C227.023 283.882 240.774 270.468 251.505 255.041C259.554 247.327 266.597 238.272 272.969 228.547C281.353 215.132 287.39 200.376 291.414 185.284ZM55.9857 259.065C37.2051 242.297 22.4489 221.169 14.0647 197.357C13.0585 189.309 12.3878 181.26 12.7232 172.876C15.4061 184.949 19.7659 196.687 25.4672 207.418C29.1562 216.138 33.8514 224.187 39.2173 231.9C49.6137 249.004 63.6992 263.425 80.8029 274.157C89.8579 279.858 99.2482 284.218 109.309 287.236C105.285 286.565 101.26 285.895 97.236 284.889C82.1444 278.517 68.0589 269.797 55.9857 259.065ZM279.006 92.0518C276.993 88.3627 274.646 85.0091 272.298 81.6554C261.231 65.8931 248.152 51.1369 233.396 38.3929C227.694 33.6977 221.993 29.0026 215.621 24.9781C222.999 28.6672 229.706 32.6916 236.414 37.0514C239.432 39.0636 242.45 41.4112 245.469 43.4234C259.554 57.5089 270.957 73.9419 279.006 92.0518ZM178.06 283.547C173.365 284.553 168.669 285.559 163.639 286.565C157.938 286.901 152.572 287.236 146.87 286.901C117.023 285.224 87.5103 273.151 64.7053 253.699C67.3882 255.712 70.4065 257.724 73.4248 259.736C106.626 280.529 148.212 287.236 186.444 277.846C205.225 273.151 222.999 264.431 238.761 252.693L238.426 253.029C231.719 259.401 224.676 264.766 216.962 269.462C204.889 275.834 191.81 280.529 178.06 283.547ZM50.2844 83.3322C57.3272 73.2712 65.376 63.2101 74.0956 54.1552C90.1932 41.4112 109.309 32.3562 129.431 27.9965C162.633 20.6184 197.176 26.9903 225.682 45.4356C234.737 51.4722 243.121 58.515 250.499 66.5638C251.17 67.5699 251.505 68.2406 252.176 69.2467C257.207 78.3017 260.225 88.3627 263.243 98.0884C270.286 118.881 276.658 140.345 276.993 162.479C277.664 183.943 271.963 204.736 261.566 223.181C240.774 247.998 212.267 266.443 180.407 273.486C143.181 281.535 102.602 273.486 71.4126 251.687C56.9918 241.626 44.5832 228.547 35.1928 213.455C31.1684 204.4 28.1501 194.674 26.1379 184.949C22.7842 168.516 22.7842 151.412 26.4733 135.314C30.4977 116.534 39.5526 99.0945 50.2844 83.3322ZM115.346 25.9842C118.029 25.3135 120.712 24.9781 123.059 24.6428C112.663 27.3257 102.602 31.3501 93.2116 36.0453C96.2299 33.6977 99.2482 31.3501 102.267 29.3379C106.962 27.9965 110.986 26.655 115.346 25.9842ZM278.67 192.998C281.689 180.589 282.695 167.845 281.689 154.766C279.676 131.961 272.634 110.162 265.255 88.3627C264.585 86.3505 263.914 84.6737 263.243 82.6615C271.963 95.4055 278.335 109.491 282.024 124.247C287.054 145.375 286.384 167.51 280.682 188.302C280.012 189.979 279.341 191.321 278.67 192.998ZM173.365 19.2769C155.59 16.5939 137.48 16.5939 119.706 19.9476C125.407 16.9293 131.779 14.5817 138.486 13.2403C146.87 11.228 155.59 10.8927 164.31 11.228C178.73 13.911 192.816 19.6122 205.56 27.3257C195.163 23.3013 184.096 20.6184 173.365 19.2769ZM98.9128 24.6428C86.1688 29.0026 73.7602 35.0392 63.3638 43.4234C79.4615 29.0026 99.2482 18.2708 120.041 12.9049C112.663 16.2586 105.62 20.283 98.9128 24.6428ZM63.0284 50.4661C69.4004 44.7649 76.4431 40.4051 84.1566 36.716C83.4859 37.3868 82.8151 38.0575 81.809 38.7282C76.1078 44.0941 70.7419 49.7954 65.376 55.4966C56.9918 63.2101 49.2783 71.5943 43.2417 81.32C42.571 82.3261 42.9063 83.3322 43.5771 84.0029C43.2417 84.6737 42.9063 85.009 42.5709 85.6798C31.8392 102.113 23.455 120.223 20.1013 139.674C18.7598 146.717 18.4244 153.76 18.4244 161.138C18.0891 156.442 17.7537 152.083 17.7537 148.058C17.7537 142.692 18.0891 136.991 18.4244 131.625C21.4428 120.223 25.4672 108.82 30.1623 98.4238C38.2112 80.6493 48.2722 63.2101 63.0284 50.4661ZM39.2173 70.9236C35.8636 76.2895 32.5099 82.3261 29.827 88.0274C30.8331 85.6798 31.8392 83.6676 32.8453 81.32C34.8575 77.9663 36.8697 74.2773 39.2173 70.9236ZM296.109 131.961C296.109 133.637 296.109 134.979 296.109 136.656C296.109 136.32 296.109 135.65 295.774 135.314C295.439 131.961 295.103 128.607 294.768 125.589C292.085 109.156 286.719 92.7225 278.67 77.9663C284.036 85.0091 288.396 92.3872 291.414 100.771C295.103 110.497 296.109 121.229 296.109 131.961ZM24.1257 81.32C34.5221 61.1979 49.2783 43.4234 67.3882 30.0087C60.3455 35.3746 53.9735 41.4112 48.2722 48.1185C43.5771 53.8198 39.2173 59.5211 35.5282 65.5577C35.1929 66.2284 34.8575 66.5638 34.1867 67.2345C17.4183 91.7164 8.36339 121.229 9.36949 151.077C8.36339 158.119 7.69265 165.497 7.35729 172.54C3.33287 141.351 9.70486 109.156 24.1257 81.32ZM35.5282 248.669C31.1684 243.303 27.8147 237.602 24.7964 231.9C33.516 245.315 44.5832 257.388 56.9918 267.449C58.6686 268.791 60.0101 269.797 61.6869 271.138C51.6259 265.437 42.9063 257.724 35.5282 248.669ZM199.859 289.584C182.755 296.291 163.639 298.639 145.529 297.297C136.809 296.626 128.425 295.285 120.041 293.273C126.078 293.608 132.114 293.943 138.151 293.608C154.584 295.285 171.017 294.279 187.115 290.59C200.194 287.571 212.603 282.541 224.005 275.834C216.627 281.535 208.578 286.23 199.859 289.584Z" fill="url(#paint3_radial_3002_5802)"/>
<defs>
<radialGradient id="paint0_radial_3002_5802" cx="0" cy="0" r="1" gradientUnits="userSpaceOnUse" gradientTransform="translate(0.878898 304.027) rotate(-36.792) scale(436.734 437.405)">
<stop stop-color="#66D2FD"/>
<stop offset="0.25" stop-color="#91DDFF"/>
<stop offset="0.5" stop-color="#ED50B9"/>
<stop offset="0.75" stop-color="#F8086E"/>
<stop offset="0.940085" stop-color="#FF5546"/>
</radialGradient>
<radialGradient id="paint1_radial_3002_5802" cx="0" cy="0" r="1" gradientUnits="userSpaceOnUse" gradientTransform="translate(21.2161 106.67) rotate(43.6332) scale(354.291 198.221)">
<stop offset="0.0149216" stop-color="#6843E7"/>
<stop offset="0.860954" stop-color="#6843E7" stop-opacity="0"/>
</radialGradient>
<radialGradient id="paint2_radial_3002_5802" cx="0" cy="0" r="1" gradientUnits="userSpaceOnUse" gradientTransform="translate(302.4 291.581) rotate(-102.26) scale(229.028 227.91)">
<stop stop-color="#FADAC7"/>
<stop offset="0.924249" stop-color="#FADAC7" stop-opacity="0"/>
</radialGradient>
<radialGradient id="paint3_radial_3002_5802" cx="0" cy="0" r="1" gradientUnits="userSpaceOnUse" gradientTransform="translate(80.9014 304.027) scale(172.866 151.77)">
<stop stop-color="#65CDFC"/>
<stop offset="1" stop-color="#65CDFC" stop-opacity="0"/>
</radialGradient>
</defs>
</svg>
